<svg width="296" height="70" viewBox="0 0 296 70" fill="none" xmlns="http://www.w3.org/2000/svg">
<rect width="296" height="70" rx="10" fill="#28D1FF"/>
<g clip-path="url(#clip0_557_937)">
<path d="M38.8841 38.022C38.8841 28.8073 46.3569 21.3344 55.5717 21.3344C57.788 21.3335 59.9823 21.7732 62.027 22.6289C59.0542 20.2069 55.336 18.8869 51.5015 18.8924C42.2868 18.8924 34.814 26.3652 34.814 35.5799C34.8149 42.3029 38.8475 48.37 45.0462 50.9733C41.1437 47.8068 38.879 43.0476 38.8841 38.022Z" fill="white"/>
<path d="M51.5016 18.0782C44.4227 18.0769 38.0406 22.3407 35.3317 28.8809C32.6231 35.4211 34.1215 42.9489 39.1284 47.953C45.9621 54.7867 57.0414 54.7867 63.8748 47.953C70.7085 41.1196 70.7085 30.0402 63.8748 23.2065C60.6006 19.9136 56.1454 18.067 51.5016 18.0782ZM51.5016 51.4533C42.7508 51.4533 35.6281 44.3305 35.6281 35.5798C35.6281 26.829 42.7508 19.7062 51.5016 19.7062C60.2524 19.7062 67.3751 26.829 67.3751 35.5798C67.3751 44.3305 60.2524 51.4533 51.5016 51.4533Z" fill="white"/>
<path d="M60.277 34.7658H52.4868V26.9756C52.4868 26.526 52.1224 26.1616 51.6728 26.1616C51.2231 26.1616 50.8587 26.526 50.8587 26.9756V34.7658H42.6695C42.2199 34.7658 41.8555 35.1302 41.8555 35.5799C41.8555 36.0295 42.2199 36.3939 42.6695 36.3939H50.8667V44.5911C50.8667 45.0407 51.2314 45.4051 51.6807 45.4051C52.1303 45.4051 52.4947 45.0407 52.4947 44.5911V36.3939H60.2852C60.7345 36.3917 61.0974 36.0253 61.0951 35.5757C61.0929 35.1264 60.7266 34.7636 60.277 34.7658Z" fill="white"/>
</g>
<path d="M82.506 43L88.138 27.6H91.306L96.938 43H93.946L92.714 39.436H86.708L85.454 43H82.506ZM87.478 37.236H91.944L89.7 30.834L87.478 37.236ZM103.356 43.264C102.329 43.264 101.413 43.0147 100.606 42.516C99.7995 42.0173 99.1615 41.3353 98.6922 40.47C98.2228 39.6047 97.9882 38.622 97.9882 37.522C97.9882 36.422 98.2228 35.4467 98.6922 34.596C99.1615 33.7307 99.7995 33.056 100.606 32.572C101.413 32.0733 102.329 31.824 103.356 31.824C104.177 31.824 104.896 31.978 105.512 32.286C106.128 32.594 106.627 33.0267 107.008 33.584V27.16H109.824V43H107.316L107.008 41.438C106.656 41.922 106.187 42.3473 105.6 42.714C105.028 43.0807 104.28 43.264 103.356 43.264ZM103.95 40.8C104.859 40.8 105.6 40.4993 106.172 39.898C106.759 39.282 107.052 38.4973 107.052 37.544C107.052 36.5907 106.759 35.8133 106.172 35.212C105.6 34.596 104.859 34.288 103.95 34.288C103.055 34.288 102.315 34.5887 101.728 35.19C101.141 35.7913 100.848 36.5687 100.848 37.522C100.848 38.4753 101.141 39.26 101.728 39.876C102.315 40.492 103.055 40.8 103.95 40.8ZM117.708 43.264C116.681 43.264 115.764 43.0147 114.958 42.516C114.151 42.0173 113.513 41.3353 113.044 40.47C112.574 39.6047 112.34 38.622 112.34 37.522C112.34 36.422 112.574 35.4467 113.044 34.596C113.513 33.7307 114.151 33.056 114.958 32.572C115.764 32.0733 116.681 31.824 117.708 31.824C118.529 31.824 119.248 31.978 119.864 32.286C120.48 32.594 120.978 33.0267 121.36 33.584V27.16H124.176V43H121.668L121.36 41.438C121.008 41.922 120.538 42.3473 119.952 42.714C119.38 43.0807 118.632 43.264 117.708 43.264ZM118.302 40.8C119.211 40.8 119.952 40.4993 120.524 39.898C121.11 39.282 121.404 38.4973 121.404 37.544C121.404 36.5907 121.11 35.8133 120.524 35.212C119.952 34.596 119.211 34.288 118.302 34.288C117.407 34.288 116.666 34.5887 116.08 35.19C115.493 35.7913 115.2 36.5687 115.2 37.522C115.2 38.4753 115.493 39.26 116.08 39.876C116.666 40.492 117.407 40.8 118.302 40.8ZM132.351 43V27.6H135.167L142.405 38.446V27.6H145.221V43H142.405L135.167 32.176V43H132.351ZM153.443 43.264C152.343 43.264 151.368 43.0293 150.517 42.56C149.666 42.0907 148.999 41.4307 148.515 40.58C148.031 39.7293 147.789 38.7467 147.789 37.632C147.789 36.5027 148.024 35.498 148.493 34.618C148.977 33.738 149.637 33.056 150.473 32.572C151.324 32.0733 152.321 31.824 153.465 31.824C154.536 31.824 155.482 32.0587 156.303 32.528C157.124 32.9973 157.762 33.6427 158.217 34.464C158.686 35.2707 158.921 36.1727 158.921 37.17C158.921 37.3313 158.914 37.5 158.899 37.676C158.899 37.852 158.892 38.0353 158.877 38.226H150.583C150.642 39.0767 150.935 39.744 151.463 40.228C152.006 40.712 152.658 40.954 153.421 40.954C153.993 40.954 154.47 40.8293 154.851 40.58C155.247 40.316 155.54 39.9787 155.731 39.568H158.591C158.386 40.2573 158.041 40.888 157.557 41.46C157.088 42.0173 156.501 42.4573 155.797 42.78C155.108 43.1027 154.323 43.264 153.443 43.264ZM153.465 34.112C152.776 34.112 152.167 34.31 151.639 34.706C151.111 35.0873 150.774 35.674 150.627 36.466H156.061C156.017 35.7473 155.753 35.1753 155.269 34.75C154.785 34.3247 154.184 34.112 153.465 34.112ZM162.994 43L159.804 32.088H162.598L164.49 39.942L166.69 32.088H169.814L172.014 39.942L173.928 32.088H176.722L173.51 43H170.584L168.252 34.838L165.92 43H162.994ZM189.065 43.264C187.935 43.264 186.938 43.0733 186.073 42.692C185.207 42.296 184.525 41.7387 184.027 41.02C183.528 40.2867 183.271 39.3993 183.257 38.358H186.227C186.256 39.0767 186.513 39.6853 186.997 40.184C187.495 40.668 188.177 40.91 189.043 40.91C189.791 40.91 190.385 40.734 190.825 40.382C191.265 40.0153 191.485 39.5313 191.485 38.93C191.485 38.2993 191.287 37.808 190.891 37.456C190.509 37.104 189.996 36.818 189.351 36.598C188.705 36.378 188.016 36.1433 187.283 35.894C186.095 35.4833 185.185 34.9553 184.555 34.31C183.939 33.6647 183.631 32.8067 183.631 31.736C183.616 30.8267 183.829 30.0493 184.269 29.404C184.723 28.744 185.339 28.238 186.117 27.886C186.894 27.5193 187.789 27.336 188.801 27.336C189.827 27.336 190.729 27.5193 191.507 27.886C192.299 28.2527 192.915 28.766 193.355 29.426C193.809 30.086 194.051 30.8707 194.081 31.78H191.067C191.052 31.2373 190.839 30.7607 190.429 30.35C190.033 29.9247 189.475 29.712 188.757 29.712C188.141 29.6973 187.62 29.8513 187.195 30.174C186.784 30.482 186.579 30.9367 186.579 31.538C186.579 32.0513 186.74 32.462 187.063 32.77C187.385 33.0633 187.825 33.3127 188.383 33.518C188.94 33.7233 189.578 33.9433 190.297 34.178C191.059 34.442 191.756 34.75 192.387 35.102C193.017 35.454 193.523 35.9233 193.905 36.51C194.286 37.082 194.477 37.8227 194.477 38.732C194.477 39.5387 194.271 40.2867 193.861 40.976C193.45 41.6653 192.841 42.2227 192.035 42.648C191.228 43.0587 190.238 43.264 189.065 43.264ZM202.17 43.264C201.07 43.264 200.094 43.0293 199.244 42.56C198.393 42.0907 197.726 41.4307 197.242 40.58C196.758 39.7293 196.516 38.7467 196.516 37.632C196.516 36.5027 196.75 35.498 197.22 34.618C197.704 33.738 198.364 33.056 199.2 32.572C200.05 32.0733 201.048 31.824 202.192 31.824C203.262 31.824 204.208 32.0587 205.03 32.528C205.851 32.9973 206.489 33.6427 206.944 34.464C207.413 35.2707 207.648 36.1727 207.648 37.17C207.648 37.3313 207.64 37.5 207.626 37.676C207.626 37.852 207.618 38.0353 207.604 38.226H199.31C199.368 39.0767 199.662 39.744 200.19 40.228C200.732 40.712 201.385 40.954 202.148 40.954C202.72 40.954 203.196 40.8293 203.578 40.58C203.974 40.316 204.267 39.9787 204.458 39.568H207.318C207.112 40.2573 206.768 40.888 206.284 41.46C205.814 42.0173 205.228 42.4573 204.524 42.78C203.834 43.1027 203.05 43.264 202.17 43.264ZM202.192 34.112C201.502 34.112 200.894 34.31 200.366 34.706C199.838 35.0873 199.5 35.674 199.354 36.466H204.788C204.744 35.7473 204.48 35.1753 203.996 34.75C203.512 34.3247 202.91 34.112 202.192 34.112ZM210.016 43V32.088H212.524L212.788 34.134C213.184 33.43 213.719 32.8727 214.394 32.462C215.083 32.0367 215.89 31.824 216.814 31.824V34.794H216.022C215.406 34.794 214.856 34.8893 214.372 35.08C213.888 35.2707 213.507 35.6007 213.228 36.07C212.964 36.5393 212.832 37.192 212.832 38.028V43H210.016ZM221.687 43L217.683 32.088H220.631L223.403 40.338L226.175 32.088H229.123L225.097 43H221.687ZM232.417 30.394C231.903 30.394 231.478 30.24 231.141 29.932C230.818 29.624 230.657 29.2353 230.657 28.766C230.657 28.2967 230.818 27.9153 231.141 27.622C231.478 27.314 231.903 27.16 232.417 27.16C232.93 27.16 233.348 27.314 233.671 27.622C234.008 27.9153 234.177 28.2967 234.177 28.766C234.177 29.2353 234.008 29.624 233.671 29.932C233.348 30.24 232.93 30.394 232.417 30.394ZM231.009 43V32.088H233.825V43H231.009ZM242.11 43.264C240.995 43.264 240.013 43.022 239.162 42.538C238.311 42.054 237.637 41.3793 237.138 40.514C236.654 39.6487 236.412 38.6587 236.412 37.544C236.412 36.4293 236.654 35.4393 237.138 34.574C237.637 33.7087 238.311 33.034 239.162 32.55C240.013 32.066 240.995 31.824 242.11 31.824C243.503 31.824 244.677 32.1907 245.63 32.924C246.583 33.6427 247.192 34.64 247.456 35.916H244.486C244.339 35.388 244.046 34.9773 243.606 34.684C243.181 34.376 242.675 34.222 242.088 34.222C241.311 34.222 240.651 34.5153 240.108 35.102C239.565 35.6887 239.294 36.5027 239.294 37.544C239.294 38.5853 239.565 39.3993 240.108 39.986C240.651 40.5727 241.311 40.866 242.088 40.866C242.675 40.866 243.181 40.7193 243.606 40.426C244.046 40.1327 244.339 39.7147 244.486 39.172H247.456C247.192 40.404 246.583 41.394 245.63 42.142C244.677 42.89 243.503 43.264 242.11 43.264ZM255.257 43.264C254.157 43.264 253.182 43.0293 252.331 42.56C251.481 42.0907 250.813 41.4307 250.329 40.58C249.845 39.7293 249.603 38.7467 249.603 37.632C249.603 36.5027 249.838 35.498 250.307 34.618C250.791 33.738 251.451 33.056 252.287 32.572C253.138 32.0733 254.135 31.824 255.279 31.824C256.35 31.824 257.296 32.0587 258.117 32.528C258.939 32.9973 259.577 33.6427 260.031 34.464C260.501 35.2707 260.735 36.1727 260.735 37.17C260.735 37.3313 260.728 37.5 260.713 37.676C260.713 37.852 260.706 38.0353 260.691 38.226H252.397C252.456 39.0767 252.749 39.744 253.277 40.228C253.82 40.712 254.473 40.954 255.235 40.954C255.807 40.954 256.284 40.8293 256.665 40.58C257.061 40.316 257.355 39.9787 257.545 39.568H260.405C260.2 40.2573 259.855 40.888 259.371 41.46C258.902 42.0173 258.315 42.4573 257.611 42.78C256.922 43.1027 256.137 43.264 255.257 43.264ZM255.279 34.112C254.59 34.112 253.981 34.31 253.453 34.706C252.925 35.0873 252.588 35.674 252.441 36.466H257.875C257.831 35.7473 257.567 35.1753 257.083 34.75C256.599 34.3247 255.998 34.112 255.279 34.112Z" fill="white"/>
<defs>
<clipPath id="clip0_557_937">
<rect width="35" height="35" fill="white" transform="translate(34 18)"/>
</clipPath>
</defs>
</svg>
