<svg width="320" height="100" viewBox="0 0 320 100" fill="none" xmlns="http://www.w3.org/2000/svg">
<rect width="320" height="100" rx="50" fill="#0D6EFD"/>
<g clip-path="url(#clip0_585_1973)">
<path d="M46.9776 53.6027C46.9776 40.4388 57.653 29.7634 70.8169 29.7634C73.9831 29.762 77.1179 30.3902 80.0388 31.6126C75.7919 28.1526 70.4803 26.267 65.0025 26.2747C51.8386 26.2747 41.1631 36.9502 41.1631 50.114C41.1644 59.7184 46.9253 68.3856 55.7806 72.1046C50.2055 67.5811 46.9703 60.7823 46.9776 53.6027Z" fill="white"/>
<path d="M65.0025 25.1116C54.8898 25.1098 45.7724 31.2009 41.9026 40.5441C38.0333 49.8872 40.1737 60.6413 47.3265 67.7899C57.0889 77.5523 72.9165 77.5523 82.6785 67.7899C92.4409 58.028 92.4409 42.2003 82.6785 32.4379C78.001 27.7336 71.6364 25.0957 65.0025 25.1116ZM65.0025 72.7904C52.5013 72.7904 42.326 62.615 42.326 50.1139C42.326 37.6128 52.5013 27.4374 65.0025 27.4374C77.5036 27.4374 87.6789 37.6128 87.6789 50.1139C87.6789 62.615 77.5036 72.7904 65.0025 72.7904Z" fill="white"/>
<path d="M77.5386 48.9511H66.4098V37.8223C66.4098 37.18 65.8892 36.6594 65.2469 36.6594C64.6046 36.6594 64.084 37.18 64.084 37.8223V48.9511H52.3851C51.7427 48.9511 51.2222 49.4717 51.2222 50.114C51.2222 50.7564 51.7427 51.2769 52.3851 51.2769H64.0953V62.9872C64.0953 63.6295 64.6164 64.1501 65.2582 64.1501C65.9005 64.1501 66.4211 63.6295 66.4211 62.9872V51.2769H77.5504C78.1923 51.2738 78.7106 50.7505 78.7074 50.1081C78.7042 49.4663 78.1809 48.948 77.5386 48.9511Z" fill="white"/>
</g>
<path d="M121.904 60V40.4H134.56V43.284H125.488V48.772H132.824V51.6H125.488V60H121.904ZM142.45 60.336C140.714 60.336 139.37 59.7947 138.418 58.712C137.485 57.6293 137.018 56.0427 137.018 53.952V46.112H140.574V53.616C140.574 54.8107 140.817 55.7253 141.302 56.36C141.787 56.9947 142.553 57.312 143.598 57.312C144.587 57.312 145.399 56.9573 146.034 56.248C146.687 55.5387 147.014 54.5493 147.014 53.28V46.112H150.598V60H147.434L147.154 57.648C146.725 58.4693 146.099 59.1227 145.278 59.608C144.475 60.0933 143.533 60.336 142.45 60.336ZM154.277 60V46.112H157.441L157.721 48.464C158.15 47.6427 158.766 46.9893 159.569 46.504C160.39 46.0187 161.352 45.776 162.453 45.776C164.17 45.776 165.505 46.3173 166.457 47.4C167.409 48.4827 167.885 50.0693 167.885 52.16V60H164.301V52.496C164.301 51.3013 164.058 50.3867 163.573 49.752C163.088 49.1173 162.332 48.8 161.305 48.8C160.297 48.8 159.466 49.1547 158.813 49.864C158.178 50.5733 157.861 51.5627 157.861 52.832V60H154.277ZM177.696 60.336C176.39 60.336 175.223 60.0187 174.196 59.384C173.17 58.7493 172.358 57.8813 171.76 56.78C171.163 55.6787 170.864 54.428 170.864 53.028C170.864 51.628 171.163 50.3867 171.76 49.304C172.358 48.2027 173.17 47.344 174.196 46.728C175.223 46.0933 176.39 45.776 177.696 45.776C178.742 45.776 179.656 45.972 180.44 46.364C181.224 46.756 181.859 47.3067 182.344 48.016V39.84H185.928V60H182.736L182.344 58.012C181.896 58.628 181.299 59.1693 180.552 59.636C179.824 60.1027 178.872 60.336 177.696 60.336ZM178.452 57.2C179.61 57.2 180.552 56.8173 181.28 56.052C182.027 55.268 182.4 54.2693 182.4 53.056C182.4 51.8427 182.027 50.8533 181.28 50.088C180.552 49.304 179.61 48.912 178.452 48.912C177.314 48.912 176.371 49.2947 175.624 50.06C174.878 50.8253 174.504 51.8147 174.504 53.028C174.504 54.2413 174.878 55.24 175.624 56.024C176.371 56.808 177.314 57.2 178.452 57.2ZM200.31 60L195.13 40.4H198.966L202.494 55.996L206.638 40.4H210.586L214.618 55.996L218.146 40.4H222.01L216.69 60H212.434L208.542 45.468L204.538 60H200.31ZM227.725 60.336C226.531 60.336 225.551 60.1493 224.785 59.776C224.02 59.384 223.451 58.8707 223.077 58.236C222.704 57.6013 222.517 56.9013 222.517 56.136C222.517 54.848 223.021 53.8027 224.029 53C225.037 52.1973 226.549 51.796 228.565 51.796H232.093V51.46C232.093 50.508 231.823 49.808 231.281 49.36C230.74 48.912 230.068 48.688 229.265 48.688C228.537 48.688 227.903 48.8653 227.361 49.22C226.82 49.556 226.484 50.06 226.353 50.732H222.853C222.947 49.724 223.283 48.8467 223.861 48.1C224.459 47.3533 225.224 46.784 226.157 46.392C227.091 45.9813 228.136 45.776 229.293 45.776C231.272 45.776 232.831 46.2707 233.969 47.26C235.108 48.2493 235.677 49.6493 235.677 51.46V60H232.625L232.289 57.76C231.879 58.5067 231.3 59.1227 230.553 59.608C229.825 60.0933 228.883 60.336 227.725 60.336ZM228.537 57.536C229.564 57.536 230.357 57.2 230.917 56.528C231.496 55.856 231.86 55.0253 232.009 54.036H228.957C228.005 54.036 227.324 54.2133 226.913 54.568C226.503 54.904 226.297 55.324 226.297 55.828C226.297 56.3693 226.503 56.7893 226.913 57.088C227.324 57.3867 227.865 57.536 228.537 57.536ZM239.097 60V39.84H242.681V60H239.097ZM246.343 60V39.84H249.927V60H246.343ZM260.338 60.336C258.938 60.336 257.696 60.0373 256.614 59.44C255.531 58.8427 254.682 58.0027 254.066 56.92C253.45 55.8373 253.142 54.5867 253.142 53.168C253.142 51.7307 253.44 50.452 254.038 49.332C254.654 48.212 255.494 47.344 256.558 46.728C257.64 46.0933 258.91 45.776 260.366 45.776C261.728 45.776 262.932 46.0747 263.978 46.672C265.023 47.2693 265.835 48.0907 266.414 49.136C267.011 50.1627 267.31 51.3107 267.31 52.58C267.31 52.7853 267.3 53 267.282 53.224C267.282 53.448 267.272 53.6813 267.254 53.924H256.698C256.772 55.0067 257.146 55.856 257.818 56.472C258.508 57.088 259.339 57.396 260.31 57.396C261.038 57.396 261.644 57.2373 262.13 56.92C262.634 56.584 263.007 56.1547 263.25 55.632H266.89C266.628 56.5093 266.19 57.312 265.574 58.04C264.976 58.7493 264.23 59.3093 263.334 59.72C262.456 60.1307 261.458 60.336 260.338 60.336ZM260.366 48.688C259.488 48.688 258.714 48.94 258.042 49.444C257.37 49.9293 256.94 50.676 256.754 51.684H263.67C263.614 50.7693 263.278 50.0413 262.662 49.5C262.046 48.9587 261.28 48.688 260.366 48.688ZM276.266 60C274.81 60 273.643 59.6453 272.766 58.936C271.888 58.2267 271.45 56.9667 271.45 55.156V49.108H269.07V46.112H271.45L271.87 42.388H275.034V46.112H278.786V49.108H275.034V55.184C275.034 55.856 275.174 56.3227 275.454 56.584C275.752 56.8267 276.256 56.948 276.966 56.948H278.702V60H276.266Z" fill="white"/>
<defs>
<clipPath id="clip0_585_1973">
<rect x="40" y="25" width="50" height="50" rx="25" fill="white"/>
</clipPath>
</defs>
</svg>
