<svg width="340" height="80" viewBox="0 0 340 80" fill="none" xmlns="http://www.w3.org/2000/svg">
<rect width="340" height="80" rx="10" fill="#0D6EFD"/>
<g clip-path="url(#clip0_733_865)">
<path d="M90.8841 43.022C90.8841 33.8073 98.3569 26.3344 107.572 26.3344C109.788 26.3335 111.982 26.7732 114.027 27.6289C111.054 25.2069 107.336 23.8869 103.502 23.8924C94.2868 23.8924 86.814 31.3652 86.814 40.5799C86.8149 47.3029 90.8475 53.37 97.0462 55.9733C93.1437 52.8068 90.879 48.0476 90.8841 43.022Z" fill="white"/>
<path d="M103.502 23.0782C96.4227 23.0769 90.0406 27.3407 87.3317 33.8809C84.6231 40.4211 86.1215 47.9489 91.1284 52.953C97.9621 59.7867 109.041 59.7867 115.875 52.953C122.708 46.1196 122.708 35.0402 115.875 28.2065C112.601 24.9136 108.145 23.067 103.502 23.0782ZM103.502 56.4533C94.7508 56.4533 87.6281 49.3305 87.6281 40.5798C87.6281 31.829 94.7508 24.7062 103.502 24.7062C112.252 24.7062 119.375 31.829 119.375 40.5798C119.375 49.3305 112.252 56.4533 103.502 56.4533Z" fill="white"/>
<path d="M112.277 39.7658H104.487V31.9756C104.487 31.526 104.122 31.1616 103.673 31.1616C103.223 31.1616 102.859 31.526 102.859 31.9756V39.7658H94.6695C94.2199 39.7658 93.8555 40.1302 93.8555 40.5799C93.8555 41.0295 94.2199 41.3939 94.6695 41.3939H102.867V49.5911C102.867 50.0407 103.231 50.4051 103.681 50.4051C104.13 50.4051 104.495 50.0407 104.495 49.5911V41.3939H112.285C112.735 41.3917 113.097 41.0253 113.095 40.5757C113.093 40.1264 112.727 39.7636 112.277 39.7658Z" fill="white"/>
</g>
<path d="M132.562 44V28.6H142.22V30.492H134.894V35.354H140.966V37.224H134.894V44H132.562ZM148.445 44.264C147.125 44.264 146.084 43.8533 145.321 43.032C144.573 42.2107 144.199 40.986 144.199 39.358V33.088H146.531V39.116C146.531 41.228 147.397 42.284 149.127 42.284C149.993 42.284 150.704 41.976 151.261 41.36C151.819 40.744 152.097 39.864 152.097 38.72V33.088H154.429V44H152.361L152.185 42.086C151.848 42.7607 151.349 43.296 150.689 43.692C150.044 44.0733 149.296 44.264 148.445 44.264ZM157.396 44V33.088H159.464L159.64 35.002C159.977 34.3273 160.469 33.7993 161.114 33.418C161.774 33.022 162.529 32.824 163.38 32.824C164.7 32.824 165.734 33.2347 166.482 34.056C167.245 34.8773 167.626 36.102 167.626 37.73V44H165.316V37.972C165.316 35.86 164.451 34.804 162.72 34.804C161.855 34.804 161.136 35.112 160.564 35.728C160.007 36.344 159.728 37.224 159.728 38.368V44H157.396ZM175.344 44.264C174.288 44.264 173.357 44.0147 172.55 43.516C171.744 43.0173 171.113 42.3353 170.658 41.47C170.204 40.6047 169.976 39.622 169.976 38.522C169.976 37.422 170.204 36.4467 170.658 35.596C171.113 34.7307 171.744 34.056 172.55 33.572C173.372 33.0733 174.31 32.824 175.366 32.824C176.232 32.824 176.987 32.9927 177.632 33.33C178.292 33.6673 178.806 34.144 179.172 34.76V28.16H181.504V44H179.414L179.172 42.306C178.82 42.8193 178.336 43.274 177.72 43.67C177.104 44.066 176.312 44.264 175.344 44.264ZM175.762 42.24C176.76 42.24 177.574 41.8953 178.204 41.206C178.85 40.5167 179.172 39.6293 179.172 38.544C179.172 37.444 178.85 36.5567 178.204 35.882C177.574 35.1927 176.76 34.848 175.762 34.848C174.765 34.848 173.944 35.1927 173.298 35.882C172.653 36.5567 172.33 37.444 172.33 38.544C172.33 39.2627 172.477 39.9007 172.77 40.458C173.064 41.0153 173.467 41.4553 173.98 41.778C174.508 42.086 175.102 42.24 175.762 42.24ZM193.222 44.022L189.064 28.6H191.572L194.63 41.36L198.15 28.6H200.724L204.134 41.36L207.192 28.6H209.7L205.476 44H202.748L199.382 31.922L195.906 44L193.222 44.022ZM214.287 44.264C213.363 44.264 212.601 44.11 211.999 43.802C211.398 43.494 210.951 43.0907 210.657 42.592C210.364 42.0787 210.217 41.5213 210.217 40.92C210.217 39.864 210.628 39.028 211.449 38.412C212.271 37.796 213.444 37.488 214.969 37.488H217.829V37.29C217.829 36.4393 217.595 35.8013 217.125 35.376C216.671 34.9507 216.077 34.738 215.343 34.738C214.698 34.738 214.133 34.8993 213.649 35.222C213.18 35.53 212.894 35.992 212.791 36.608H210.459C210.533 35.816 210.797 35.1413 211.251 34.584C211.721 34.012 212.307 33.5793 213.011 33.286C213.73 32.978 214.515 32.824 215.365 32.824C216.891 32.824 218.071 33.2273 218.907 34.034C219.743 34.826 220.161 35.9113 220.161 37.29V44H218.137L217.939 42.13C217.631 42.7313 217.184 43.2373 216.597 43.648C216.011 44.0587 215.241 44.264 214.287 44.264ZM214.749 42.372C215.38 42.372 215.908 42.2253 216.333 41.932C216.773 41.624 217.111 41.2207 217.345 40.722C217.595 40.2233 217.749 39.6733 217.807 39.072H215.211C214.287 39.072 213.627 39.2333 213.231 39.556C212.85 39.8787 212.659 40.282 212.659 40.766C212.659 41.2647 212.843 41.6607 213.209 41.954C213.591 42.2327 214.104 42.372 214.749 42.372ZM222.88 44V28.16H225.212V44H222.88ZM228.165 44V28.16H230.497V44H228.165ZM238.555 44.264C237.484 44.264 236.531 44.0293 235.695 43.56C234.873 43.076 234.228 42.4087 233.759 41.558C233.289 40.7073 233.055 39.7173 233.055 38.588C233.055 37.444 233.282 36.4393 233.737 35.574C234.206 34.7087 234.851 34.034 235.673 33.55C236.509 33.066 237.477 32.824 238.577 32.824C239.647 32.824 240.579 33.066 241.371 33.55C242.163 34.0193 242.779 34.65 243.219 35.442C243.659 36.234 243.879 37.1067 243.879 38.06C243.879 38.2067 243.871 38.368 243.857 38.544C243.857 38.7053 243.849 38.8887 243.835 39.094H235.343C235.416 40.15 235.761 40.9567 236.377 41.514C237.007 42.0567 237.733 42.328 238.555 42.328C239.215 42.328 239.765 42.1813 240.205 41.888C240.659 41.58 240.997 41.1693 241.217 40.656H243.549C243.255 41.6827 242.669 42.5407 241.789 43.23C240.923 43.9193 239.845 44.264 238.555 44.264ZM238.555 34.738C237.777 34.738 237.088 34.9727 236.487 35.442C235.885 35.8967 235.519 36.586 235.387 37.51H241.547C241.503 36.6593 241.202 35.9847 240.645 35.486C240.087 34.9873 239.391 34.738 238.555 34.738ZM250.595 44C249.524 44 248.674 43.7433 248.043 43.23C247.412 42.702 247.097 41.7707 247.097 40.436V35.046H245.227V33.088H247.097L247.383 30.316H249.429V33.088H252.509V35.046H249.429V40.436C249.429 41.0373 249.554 41.4553 249.803 41.69C250.067 41.91 250.514 42.02 251.145 42.02H252.399V44H250.595Z" fill="white"/>
<defs>
<clipPath id="clip0_733_865">
<rect x="86" y="23" width="35" height="35" rx="17.5" fill="white"/>
</clipPath>
</defs>
</svg>
