<svg width="320" height="100" viewBox="0 0 320 100" fill="none" xmlns="http://www.w3.org/2000/svg">
<rect x="0.5" y="0.5" width="319" height="99" rx="49.5" stroke="#0D6EFD"/>
<g clip-path="url(#clip0_585_1978)">
<path d="M48.9776 53.6027C48.9776 40.4388 59.653 29.7634 72.8169 29.7634C75.9831 29.762 79.1179 30.3902 82.0388 31.6126C77.7919 28.1526 72.4803 26.267 67.0025 26.2747C53.8386 26.2747 43.1631 36.9502 43.1631 50.114C43.1644 59.7184 48.9253 68.3856 57.7806 72.1046C52.2055 67.5811 48.9703 60.7823 48.9776 53.6027Z" fill="#0D6EFD"/>
<path d="M67.0025 25.1116C56.8898 25.1098 47.7724 31.2009 43.9026 40.5441C40.0333 49.8872 42.1737 60.6413 49.3265 67.7899C59.0889 77.5523 74.9165 77.5523 84.6785 67.7899C94.4409 58.028 94.4409 42.2003 84.6785 32.4379C80.001 27.7336 73.6364 25.0957 67.0025 25.1116ZM67.0025 72.7904C54.5013 72.7904 44.326 62.615 44.326 50.1139C44.326 37.6128 54.5013 27.4374 67.0025 27.4374C79.5036 27.4374 89.6789 37.6128 89.6789 50.1139C89.6789 62.615 79.5036 72.7904 67.0025 72.7904Z" fill="#0D6EFD"/>
<path d="M79.5386 48.9511H68.4098V37.8223C68.4098 37.18 67.8892 36.6594 67.2469 36.6594C66.6046 36.6594 66.084 37.18 66.084 37.8223V48.9511H54.3851C53.7427 48.9511 53.2222 49.4717 53.2222 50.114C53.2222 50.7564 53.7427 51.2769 54.3851 51.2769H66.0953V62.9872C66.0953 63.6295 66.6164 64.1501 67.2582 64.1501C67.9005 64.1501 68.4211 63.6295 68.4211 62.9872V51.2769H79.5504C80.1923 51.2738 80.7106 50.7505 80.7074 50.1081C80.7042 49.4663 80.1809 48.948 79.5386 48.9511Z" fill="#0D6EFD"/>
</g>
<path d="M123.988 60V40.4H136.28V42.808H126.956V48.996H134.684V51.376H126.956V60H123.988ZM144.203 60.336C142.523 60.336 141.198 59.8133 140.227 58.768C139.275 57.7227 138.799 56.164 138.799 54.092V46.112H141.767V53.784C141.767 56.472 142.868 57.816 145.071 57.816C146.172 57.816 147.078 57.424 147.787 56.64C148.496 55.856 148.851 54.736 148.851 53.28V46.112H151.819V60H149.187L148.963 57.564C148.534 58.4227 147.899 59.104 147.059 59.608C146.238 60.0933 145.286 60.336 144.203 60.336ZM155.595 60V46.112H158.227L158.451 48.548C158.88 47.6893 159.505 47.0173 160.327 46.532C161.167 46.028 162.128 45.776 163.211 45.776C164.891 45.776 166.207 46.2987 167.159 47.344C168.129 48.3893 168.615 49.948 168.615 52.02V60H165.675V52.328C165.675 49.64 164.573 48.296 162.371 48.296C161.269 48.296 160.355 48.688 159.627 49.472C158.917 50.256 158.563 51.376 158.563 52.832V60H155.595ZM178.438 60.336C177.094 60.336 175.909 60.0187 174.882 59.384C173.856 58.7493 173.053 57.8813 172.474 56.78C171.896 55.6787 171.606 54.428 171.606 53.028C171.606 51.628 171.896 50.3867 172.474 49.304C173.053 48.2027 173.856 47.344 174.882 46.728C175.928 46.0933 177.122 45.776 178.466 45.776C179.568 45.776 180.529 45.9907 181.35 46.42C182.19 46.8493 182.844 47.456 183.31 48.24V39.84H186.278V60H183.618L183.31 57.844C182.862 58.4973 182.246 59.076 181.462 59.58C180.678 60.084 179.67 60.336 178.438 60.336ZM178.97 57.76C180.24 57.76 181.276 57.3213 182.078 56.444C182.9 55.5667 183.31 54.4373 183.31 53.056C183.31 51.656 182.9 50.5267 182.078 49.668C181.276 48.7907 180.24 48.352 178.97 48.352C177.701 48.352 176.656 48.7907 175.834 49.668C175.013 50.5267 174.602 51.656 174.602 53.056C174.602 53.9707 174.789 54.7827 175.162 55.492C175.536 56.2013 176.049 56.7613 176.702 57.172C177.374 57.564 178.13 57.76 178.97 57.76ZM201.191 60.028L195.899 40.4H199.091L202.983 56.64L207.463 40.4H210.739L215.079 56.64L218.971 40.4H222.163L216.787 60H213.315L209.031 44.628L204.607 60L201.191 60.028ZM228.002 60.336C226.826 60.336 225.855 60.14 225.09 59.748C224.325 59.356 223.755 58.8427 223.382 58.208C223.009 57.5547 222.822 56.8453 222.822 56.08C222.822 54.736 223.345 53.672 224.39 52.888C225.435 52.104 226.929 51.712 228.87 51.712H232.51V51.46C232.51 50.3773 232.211 49.5653 231.614 49.024C231.035 48.4827 230.279 48.212 229.346 48.212C228.525 48.212 227.806 48.4173 227.19 48.828C226.593 49.22 226.229 49.808 226.098 50.592H223.13C223.223 49.584 223.559 48.7253 224.138 48.016C224.735 47.288 225.482 46.7373 226.378 46.364C227.293 45.972 228.291 45.776 229.374 45.776C231.315 45.776 232.818 46.2893 233.882 47.316C234.946 48.324 235.478 49.7053 235.478 51.46V60H232.902L232.65 57.62C232.258 58.3853 231.689 59.0293 230.942 59.552C230.195 60.0747 229.215 60.336 228.002 60.336ZM228.59 57.928C229.393 57.928 230.065 57.7413 230.606 57.368C231.166 56.976 231.595 56.4627 231.894 55.828C232.211 55.1933 232.407 54.4933 232.482 53.728H229.178C228.002 53.728 227.162 53.9333 226.658 54.344C226.173 54.7547 225.93 55.268 225.93 55.884C225.93 56.5187 226.163 57.0227 226.63 57.396C227.115 57.7507 227.769 57.928 228.59 57.928ZM238.939 60V39.84H241.907V60H238.939ZM245.665 60V39.84H248.633V60H245.665ZM258.888 60.336C257.525 60.336 256.312 60.0373 255.248 59.44C254.202 58.824 253.381 57.9747 252.784 56.892C252.186 55.8093 251.888 54.5493 251.888 53.112C251.888 51.656 252.177 50.3773 252.756 49.276C253.353 48.1747 254.174 47.316 255.22 46.7C256.284 46.084 257.516 45.776 258.916 45.776C260.278 45.776 261.464 46.084 262.472 46.7C263.48 47.2973 264.264 48.1 264.824 49.108C265.384 50.116 265.664 51.2267 265.664 52.44C265.664 52.6267 265.654 52.832 265.636 53.056C265.636 53.2613 265.626 53.4947 265.608 53.756H254.8C254.893 55.1 255.332 56.1267 256.116 56.836C256.918 57.5267 257.842 57.872 258.888 57.872C259.728 57.872 260.428 57.6853 260.988 57.312C261.566 56.92 261.996 56.3973 262.276 55.744H265.244C264.87 57.0507 264.124 58.1427 263.004 59.02C261.902 59.8973 260.53 60.336 258.888 60.336ZM258.888 48.212C257.898 48.212 257.021 48.5107 256.256 49.108C255.49 49.6867 255.024 50.564 254.856 51.74H262.696C262.64 50.6573 262.257 49.7987 261.548 49.164C260.838 48.5293 259.952 48.212 258.888 48.212ZM274.212 60C272.849 60 271.766 59.6733 270.964 59.02C270.161 58.348 269.76 57.1627 269.76 55.464V48.604H267.38V46.112H269.76L270.124 42.584H272.728V46.112H276.648V48.604H272.728V55.464C272.728 56.2293 272.886 56.7613 273.204 57.06C273.54 57.34 274.109 57.48 274.912 57.48H276.508V60H274.212Z" fill="#0D6EFD"/>
<defs>
<clipPath id="clip0_585_1978">
<rect x="42" y="25" width="50" height="50" rx="25" fill="white"/>
</clipPath>
</defs>
</svg>
