<svg width="340" height="80" viewBox="0 0 340 80" fill="none" xmlns="http://www.w3.org/2000/svg">
<rect width="340" height="80" rx="10" fill="#0D6EFD"/>
<path d="M90.116 48L84.418 32.6H86.904L91.524 45.58L96.166 32.6H98.63L92.932 48H90.116ZM101.833 35.02C101.393 35.02 101.026 34.888 100.733 34.624C100.454 34.3453 100.315 34.0007 100.315 33.59C100.315 33.1793 100.454 32.842 100.733 32.578C101.026 32.2993 101.393 32.16 101.833 32.16C102.273 32.16 102.632 32.2993 102.911 32.578C103.204 32.842 103.351 33.1793 103.351 33.59C103.351 34.0007 103.204 34.3453 102.911 34.624C102.632 34.888 102.273 35.02 101.833 35.02ZM100.667 48V37.088H102.999V48H100.667ZM111.182 48.264C110.111 48.264 109.158 48.0293 108.322 47.56C107.5 47.076 106.855 46.4087 106.386 45.558C105.916 44.7073 105.682 43.7173 105.682 42.588C105.682 41.444 105.909 40.4393 106.364 39.574C106.833 38.7087 107.478 38.034 108.3 37.55C109.136 37.066 110.104 36.824 111.204 36.824C112.274 36.824 113.206 37.066 113.998 37.55C114.79 38.0193 115.406 38.65 115.846 39.442C116.286 40.234 116.506 41.1067 116.506 42.06C116.506 42.2067 116.498 42.368 116.484 42.544C116.484 42.7053 116.476 42.8887 116.462 43.094H107.97C108.043 44.15 108.388 44.9567 109.004 45.514C109.634 46.0567 110.36 46.328 111.182 46.328C111.842 46.328 112.392 46.1813 112.832 45.888C113.286 45.58 113.624 45.1693 113.844 44.656H116.176C115.882 45.6827 115.296 46.5407 114.416 47.23C113.55 47.9193 112.472 48.264 111.182 48.264ZM111.182 38.738C110.404 38.738 109.715 38.9727 109.114 39.442C108.512 39.8967 108.146 40.586 108.014 41.51H114.174C114.13 40.6593 113.829 39.9847 113.272 39.486C112.714 38.9873 112.018 38.738 111.182 38.738ZM120.673 48L117.461 37.088H119.793L121.905 45.316L124.281 37.088H126.877L129.253 45.316L131.365 37.088H133.697L130.485 48H128.087L125.579 39.42L123.071 48H120.673ZM141.25 48V32.6H146.244C148.048 32.6 149.529 32.9153 150.688 33.546C151.861 34.1767 152.726 35.0713 153.284 36.23C153.856 37.374 154.142 38.738 154.142 40.322C154.142 41.8913 153.856 43.2553 153.284 44.414C152.726 45.558 151.861 46.4453 150.688 47.076C149.529 47.692 148.048 48 146.244 48H141.25ZM143.582 46.02H146.155C147.549 46.02 148.649 45.7927 149.456 45.338C150.277 44.8833 150.864 44.2307 151.216 43.38C151.582 42.5293 151.766 41.51 151.766 40.322C151.766 39.134 151.582 38.1073 151.216 37.242C150.864 36.3767 150.277 35.7167 149.456 35.262C148.649 34.7927 147.549 34.558 146.155 34.558H143.582V46.02ZM161.734 48.264C160.664 48.264 159.71 48.0293 158.874 47.56C158.053 47.076 157.408 46.4087 156.938 45.558C156.469 44.7073 156.234 43.7173 156.234 42.588C156.234 41.444 156.462 40.4393 156.916 39.574C157.386 38.7087 158.031 38.034 158.852 37.55C159.688 37.066 160.656 36.824 161.756 36.824C162.827 36.824 163.758 37.066 164.55 37.55C165.342 38.0193 165.958 38.65 166.398 39.442C166.838 40.234 167.058 41.1067 167.058 42.06C167.058 42.2067 167.051 42.368 167.036 42.544C167.036 42.7053 167.029 42.8887 167.014 43.094H158.522C158.596 44.15 158.94 44.9567 159.556 45.514C160.187 46.0567 160.913 46.328 161.734 46.328C162.394 46.328 162.944 46.1813 163.384 45.888C163.839 45.58 164.176 45.1693 164.396 44.656H166.728C166.435 45.6827 165.848 46.5407 164.968 47.23C164.103 47.9193 163.025 48.264 161.734 48.264ZM161.734 38.738C160.957 38.738 160.268 38.9727 159.666 39.442C159.065 39.8967 158.698 40.586 158.566 41.51H164.726C164.682 40.6593 164.382 39.9847 163.824 39.486C163.267 38.9873 162.57 38.738 161.734 38.738ZM169.478 52.84V37.088H171.568L171.81 38.782C172.162 38.2687 172.646 37.814 173.262 37.418C173.878 37.022 174.67 36.824 175.638 36.824C176.694 36.824 177.625 37.0733 178.432 37.572C179.239 38.0707 179.869 38.7527 180.324 39.618C180.793 40.4833 181.028 41.466 181.028 42.566C181.028 43.666 180.793 44.6487 180.324 45.514C179.869 46.3647 179.239 47.0393 178.432 47.538C177.625 48.022 176.687 48.264 175.616 48.264C174.765 48.264 174.01 48.0953 173.35 47.758C172.705 47.4207 172.191 46.944 171.81 46.328V52.84H169.478ZM175.22 46.24C176.217 46.24 177.039 45.9027 177.684 45.228C178.329 44.5387 178.652 43.644 178.652 42.544C178.652 41.8253 178.505 41.1873 178.212 40.63C177.919 40.0727 177.515 39.64 177.002 39.332C176.489 39.0093 175.895 38.848 175.22 38.848C174.223 38.848 173.401 39.1927 172.756 39.882C172.125 40.5713 171.81 41.4587 171.81 42.544C171.81 43.644 172.125 44.5387 172.756 45.228C173.401 45.9027 174.223 46.24 175.22 46.24ZM188.654 48.264C187.613 48.264 186.674 48.0293 185.838 47.56C185.017 47.076 184.364 46.4087 183.88 45.558C183.396 44.6927 183.154 43.688 183.154 42.544C183.154 41.4 183.396 40.4027 183.88 39.552C184.379 38.6867 185.046 38.0193 185.882 37.55C186.718 37.066 187.65 36.824 188.676 36.824C189.718 36.824 190.649 37.066 191.47 37.55C192.306 38.0193 192.966 38.6867 193.45 39.552C193.949 40.4027 194.198 41.4 194.198 42.544C194.198 43.688 193.949 44.6927 193.45 45.558C192.966 46.4087 192.306 47.076 191.47 47.56C190.634 48.0293 189.696 48.264 188.654 48.264ZM188.654 46.262C189.212 46.262 189.725 46.1227 190.194 45.844C190.678 45.5653 191.067 45.1547 191.36 44.612C191.654 44.0547 191.8 43.3653 191.8 42.544C191.8 41.7227 191.654 41.0407 191.36 40.498C191.082 39.9407 190.7 39.5227 190.216 39.244C189.747 38.9653 189.234 38.826 188.676 38.826C188.119 38.826 187.598 38.9653 187.114 39.244C186.645 39.5227 186.264 39.9407 185.97 40.498C185.677 41.0407 185.53 41.7227 185.53 42.544C185.53 43.3653 185.677 44.0547 185.97 44.612C186.264 45.1547 186.645 45.5653 187.114 45.844C187.584 46.1227 188.097 46.262 188.654 46.262ZM201.076 48.264C199.697 48.264 198.561 47.9267 197.666 47.252C196.771 46.5773 196.258 45.6827 196.126 44.568H198.48C198.597 45.0667 198.876 45.4993 199.316 45.866C199.756 46.218 200.335 46.394 201.054 46.394C201.758 46.394 202.271 46.2473 202.594 45.954C202.917 45.6607 203.078 45.3233 203.078 44.942C203.078 44.3847 202.851 44.0107 202.396 43.82C201.956 43.6147 201.34 43.4313 200.548 43.27C199.932 43.138 199.316 42.962 198.7 42.742C198.099 42.522 197.593 42.214 197.182 41.818C196.786 41.4073 196.588 40.8573 196.588 40.168C196.588 39.2147 196.955 38.4227 197.688 37.792C198.421 37.1467 199.448 36.824 200.768 36.824C201.985 36.824 202.968 37.1173 203.716 37.704C204.479 38.2907 204.926 39.1193 205.058 40.19H202.814C202.741 39.7207 202.521 39.354 202.154 39.09C201.802 38.826 201.325 38.694 200.724 38.694C200.137 38.694 199.683 38.8187 199.36 39.068C199.037 39.3027 198.876 39.6107 198.876 39.992C198.876 40.3733 199.096 40.674 199.536 40.894C199.991 41.114 200.585 41.312 201.318 41.488C202.051 41.6493 202.726 41.84 203.342 42.06C203.973 42.2653 204.479 42.5733 204.86 42.984C205.241 43.3947 205.432 43.996 205.432 44.788C205.447 45.7853 205.058 46.614 204.266 47.274C203.489 47.934 202.425 48.264 201.076 48.264ZM209.298 35.02C208.858 35.02 208.491 34.888 208.198 34.624C207.919 34.3453 207.78 34.0007 207.78 33.59C207.78 33.1793 207.919 32.842 208.198 32.578C208.491 32.2993 208.858 32.16 209.298 32.16C209.738 32.16 210.097 32.2993 210.376 32.578C210.669 32.842 210.816 33.1793 210.816 33.59C210.816 34.0007 210.669 34.3453 210.376 34.624C210.097 34.888 209.738 35.02 209.298 35.02ZM208.132 48V37.088H210.464V48H208.132ZM218.118 48C217.048 48 216.197 47.7433 215.566 47.23C214.936 46.702 214.62 45.7707 214.62 44.436V39.046H212.75V37.088H214.62L214.906 34.316H216.952V37.088H220.032V39.046H216.952V44.436C216.952 45.0373 217.077 45.4553 217.326 45.69C217.59 45.91 218.038 46.02 218.668 46.02H219.922V48H218.118ZM228.068 48V32.6H230.4V39.2H237.858V32.6H240.19V48H237.858V41.114H230.4V48H228.068ZM244.554 35.02C244.114 35.02 243.747 34.888 243.454 34.624C243.175 34.3453 243.036 34.0007 243.036 33.59C243.036 33.1793 243.175 32.842 243.454 32.578C243.747 32.2993 244.114 32.16 244.554 32.16C244.994 32.16 245.353 32.2993 245.632 32.578C245.925 32.842 246.072 33.1793 246.072 33.59C246.072 34.0007 245.925 34.3453 245.632 34.624C245.353 34.888 244.994 35.02 244.554 35.02ZM243.388 48V37.088H245.72V48H243.388ZM253.154 48.264C251.776 48.264 250.639 47.9267 249.744 47.252C248.85 46.5773 248.336 45.6827 248.204 44.568H250.558C250.676 45.0667 250.954 45.4993 251.394 45.866C251.834 46.218 252.414 46.394 253.132 46.394C253.836 46.394 254.35 46.2473 254.672 45.954C254.995 45.6607 255.156 45.3233 255.156 44.942C255.156 44.3847 254.929 44.0107 254.474 43.82C254.034 43.6147 253.418 43.4313 252.626 43.27C252.01 43.138 251.394 42.962 250.778 42.742C250.177 42.522 249.671 42.214 249.26 41.818C248.864 41.4073 248.666 40.8573 248.666 40.168C248.666 39.2147 249.033 38.4227 249.766 37.792C250.5 37.1467 251.526 36.824 252.846 36.824C254.064 36.824 255.046 37.1173 255.794 37.704C256.557 38.2907 257.004 39.1193 257.136 40.19H254.892C254.819 39.7207 254.599 39.354 254.232 39.09C253.88 38.826 253.404 38.694 252.802 38.694C252.216 38.694 251.761 38.8187 251.438 39.068C251.116 39.3027 250.954 39.6107 250.954 39.992C250.954 40.3733 251.174 40.674 251.614 40.894C252.069 41.114 252.663 41.312 253.396 41.488C254.13 41.6493 254.804 41.84 255.42 42.06C256.051 42.2653 256.557 42.5733 256.938 42.984C257.32 43.3947 257.51 43.996 257.51 44.788C257.525 45.7853 257.136 46.614 256.344 47.274C255.567 47.934 254.504 48.264 253.154 48.264ZM264.224 48C263.153 48 262.302 47.7433 261.672 47.23C261.041 46.702 260.726 45.7707 260.726 44.436V39.046H258.856V37.088H260.726L261.012 34.316H263.058V37.088H266.138V39.046H263.058V44.436C263.058 45.0373 263.182 45.4553 263.432 45.69C263.696 45.91 264.143 46.02 264.774 46.02H266.028V48H264.224ZM273.367 48.264C272.326 48.264 271.387 48.0293 270.551 47.56C269.73 47.076 269.077 46.4087 268.593 45.558C268.109 44.6927 267.867 43.688 267.867 42.544C267.867 41.4 268.109 40.4027 268.593 39.552C269.092 38.6867 269.759 38.0193 270.595 37.55C271.431 37.066 272.362 36.824 273.389 36.824C274.43 36.824 275.362 37.066 276.183 37.55C277.019 38.0193 277.679 38.6867 278.163 39.552C278.662 40.4027 278.911 41.4 278.911 42.544C278.911 43.688 278.662 44.6927 278.163 45.558C277.679 46.4087 277.019 47.076 276.183 47.56C275.347 48.0293 274.408 48.264 273.367 48.264ZM273.367 46.262C273.924 46.262 274.438 46.1227 274.907 45.844C275.391 45.5653 275.78 45.1547 276.073 44.612C276.366 44.0547 276.513 43.3653 276.513 42.544C276.513 41.7227 276.366 41.0407 276.073 40.498C275.794 39.9407 275.413 39.5227 274.929 39.244C274.46 38.9653 273.946 38.826 273.389 38.826C272.832 38.826 272.311 38.9653 271.827 39.244C271.358 39.5227 270.976 39.9407 270.683 40.498C270.39 41.0407 270.243 41.7227 270.243 42.544C270.243 43.3653 270.39 44.0547 270.683 44.612C270.976 45.1547 271.358 45.5653 271.827 45.844C272.296 46.1227 272.81 46.262 273.367 46.262ZM281.433 48V37.088H283.523L283.721 39.156C284.102 38.4373 284.63 37.8727 285.305 37.462C285.994 37.0367 286.823 36.824 287.791 36.824V39.266H287.153C286.508 39.266 285.928 39.376 285.415 39.596C284.916 39.8013 284.513 40.1607 284.205 40.674C283.912 41.1727 283.765 41.8693 283.765 42.764V48H281.433ZM291.066 52.84L293.684 47.098H293.046L288.734 37.088H291.264L294.608 45.162L298.106 37.088H300.57L293.53 52.84H291.066Z" fill="white"/>
<path d="M62.1556 48.4496L64.2212 46.384L58.1592 40.3221L56.0936 42.3877L62.1556 48.4496Z" fill="white"/>
<path d="M44.0526 28.0933C39.9825 32.1541 39.9825 38.7531 44.0526 42.8774C48.1227 46.9383 54.7367 46.9383 58.8705 42.8774C62.9406 38.8165 62.9406 32.2176 58.8705 28.0933C54.8003 23.9689 48.1863 23.9689 44.0526 28.0933ZM56.9626 40.9739C53.91 44.0195 48.9495 44.0195 45.9605 40.9739C42.9715 37.9282 42.9079 32.979 45.9605 29.9968C49.0131 26.9511 53.9736 26.9511 56.9626 29.9968C60.0152 32.979 60.0152 37.9282 56.9626 40.9739Z" fill="white"/>
<path d="M61.7255 42.4288L58.4288 45.7255C58.165 45.9892 58.165 46.4507 58.4288 46.7145L68.5167 56.8024C68.7804 57.0661 69.2419 57.0661 69.5057 56.8024L72.8024 53.5057C73.0661 53.2419 73.0661 52.7804 72.8024 52.5167L62.7145 42.4288C62.4507 42.165 61.9892 42.165 61.7255 42.4288Z" fill="white"/>
<g clip-path="url(#clip0_733_867)">
<circle cx="2.23776" cy="2.23776" r="2.23776" transform="matrix(1 0 0 -1 49.8389 38.3149)" fill="white"/>
<path d="M56.4121 38.1247C56.0376 38.4439 55.2275 39.0136 54.8101 39.2744L53.7548 38.2191C54.7131 37.1204 55.0693 35.1887 54.0384 34.1578C53.0075 33.1269 51.3543 33.0705 50.2557 34.0288L49.2793 33.0002C49.4125 32.9262 49.5455 32.8571 49.6785 32.793C50.4938 32.4012 51.2947 32.2462 52.0765 32.2462C52.8583 32.2462 53.668 32.4448 54.4832 32.8365C55.1271 33.1458 55.776 33.576 56.4121 34.1147C57.49 35.0276 58.1527 35.9288 58.1804 35.9667C58.247 36.0578 58.247 36.1815 58.1804 36.2728C58.1527 36.3107 57.49 37.2117 56.4121 38.1247Z" fill="white"/>
<path d="M49.3027 36.1197C49.3022 37.1821 49.9088 38.1514 50.8646 38.6153C51.8204 39.0792 52.9572 38.9561 53.7916 38.2986L54.8738 39.154C54.7825 39.2027 54.5746 39.3589 54.4835 39.4029C53.6683 39.7946 52.8586 39.9932 52.0767 39.9932C51.295 39.9932 50.4853 39.7945 49.67 39.4029C49.0262 39.0936 48.3773 38.6634 47.7412 38.1246C46.6631 37.2116 46.0005 36.3106 45.9728 36.2727C45.9062 36.1816 45.9062 36.0579 45.9728 35.9667C46.0005 35.9288 46.6631 35.0277 47.741 34.1147C48.08 33.8261 48.9287 33.146 49.3027 32.9044L50.3889 33.9907C50.0029 34.4788 49.3021 35.4973 49.3027 36.1197Z" fill="white"/>
</g>
<defs>
<clipPath id="clip0_733_867">
<rect width="12.3077" height="12.3077" fill="white" transform="matrix(1 0 0 -1 45.9229 42.231)"/>
</clipPath>
</defs>
</svg>
