<svg width="430" height="100" viewBox="0 0 430 100" fill="none" xmlns="http://www.w3.org/2000/svg">
<rect width="430" height="100" rx="50" fill="#0D6EFD"/>
<g clip-path="url(#clip0_585_1974)">
<path d="M59 75C72.8071 75 84 63.8071 84 50C84 36.1929 72.8071 25 59 25C45.1929 25 34 36.1929 34 50C34 63.8071 45.1929 75 59 75Z" fill="white"/>
<path d="M52.386 33.2283H69.5907V63.4645H44.7876V40.8267L52.386 33.2283Z" fill="#0D6EFD"/>
<path d="M52.386 40.8267H44.7876L52.386 33.2283V40.8267Z" fill="white"/>
<path d="M65.5357 43.5825H48.2129V44.5274H65.5357V43.5825Z" fill="white"/>
<path d="M65.5357 47.874H48.2129V48.8189H65.5357V47.874Z" fill="white"/>
<path d="M65.5357 52.1653H48.2129V53.1102H65.5357V52.1653Z" fill="white"/>
<path d="M65.5357 56.4565H48.2129V57.4014H65.5357V56.4565Z" fill="white"/>
<path d="M68.1179 56.5889L69.3984 55.3083L65.6403 51.5502L64.3597 52.8308L68.1179 56.5889Z" fill="#2B3B4E"/>
<path d="M56.5592 43.7796C54.0395 46.2993 54.0395 50.3938 56.5592 52.9529C59.0789 55.4726 63.1734 55.4726 65.7324 52.9529C68.2521 50.4332 68.2521 46.3387 65.7324 43.7796C63.2127 41.2206 59.1183 41.2206 56.5592 43.7796ZM64.5513 51.7718C62.6616 53.6615 59.5907 53.6615 57.7403 51.7718C55.8899 49.882 55.8505 46.8111 57.7403 44.9607C59.6301 43.071 62.7009 43.071 64.5513 44.9607C66.4411 46.8111 66.4411 49.882 64.5513 51.7718Z" fill="white"/>
<path d="M67.9372 53.1889L65.9687 55.1574C65.8112 55.3149 65.8112 55.5905 65.9687 55.748L71.9923 61.7716C72.1498 61.9291 72.4254 61.9291 72.5829 61.7716L74.5514 59.8031C74.7089 59.6456 74.7089 59.37 74.5514 59.2125L68.5278 53.1889C68.3703 53.0314 68.0947 53.0314 67.9372 53.1889Z" fill="#FF7058"/>
</g>
<path d="M121.588 60L114.42 40.4H118.256L123.8 56.332L129.372 40.4H133.152L125.984 60H121.588ZM137.33 43.956C136.677 43.956 136.135 43.76 135.706 43.368C135.295 42.976 135.09 42.4813 135.09 41.884C135.09 41.2867 135.295 40.8013 135.706 40.428C136.135 40.036 136.677 39.84 137.33 39.84C137.983 39.84 138.515 40.036 138.926 40.428C139.355 40.8013 139.57 41.2867 139.57 41.884C139.57 42.4813 139.355 42.976 138.926 43.368C138.515 43.76 137.983 43.956 137.33 43.956ZM135.538 60V46.112H139.122V60H135.538ZM149.611 60.336C148.211 60.336 146.97 60.0373 145.887 59.44C144.804 58.8427 143.955 58.0027 143.339 56.92C142.723 55.8373 142.415 54.5867 142.415 53.168C142.415 51.7307 142.714 50.452 143.311 49.332C143.927 48.212 144.767 47.344 145.831 46.728C146.914 46.0933 148.183 45.776 149.639 45.776C151.002 45.776 152.206 46.0747 153.251 46.672C154.296 47.2693 155.108 48.0907 155.687 49.136C156.284 50.1627 156.583 51.3107 156.583 52.58C156.583 52.7853 156.574 53 156.555 53.224C156.555 53.448 156.546 53.6813 156.527 53.924H145.971C146.046 55.0067 146.419 55.856 147.091 56.472C147.782 57.088 148.612 57.396 149.583 57.396C150.311 57.396 150.918 57.2373 151.403 56.92C151.907 56.584 152.28 56.1547 152.523 55.632H156.163C155.902 56.5093 155.463 57.312 154.847 58.04C154.25 58.7493 153.503 59.3093 152.607 59.72C151.73 60.1307 150.731 60.336 149.611 60.336ZM149.639 48.688C148.762 48.688 147.987 48.94 147.315 49.444C146.643 49.9293 146.214 50.676 146.027 51.684H152.943C152.887 50.7693 152.551 50.0413 151.935 49.5C151.319 48.9587 150.554 48.688 149.639 48.688ZM161.766 60L157.706 46.112H161.262L163.67 56.108L166.47 46.112H170.446L173.246 56.108L175.682 46.112H179.238L175.15 60H171.426L168.458 49.612L165.49 60H161.766ZM188.256 60V40.4H194.948C197.244 40.4 199.129 40.8107 200.604 41.632C202.097 42.4347 203.198 43.5733 203.908 45.048C204.636 46.504 205 48.2213 205 50.2C205 52.1787 204.636 53.9053 203.908 55.38C203.198 56.836 202.097 57.9747 200.604 58.796C199.129 59.5987 197.244 60 194.948 60H188.256ZM191.84 56.92H194.78C196.422 56.92 197.72 56.6587 198.672 56.136C199.624 55.5947 200.305 54.8293 200.716 53.84C201.126 52.832 201.332 51.6187 201.332 50.2C201.332 48.8 201.126 47.596 200.716 46.588C200.305 45.58 199.624 44.8053 198.672 44.264C197.72 43.7227 196.422 43.452 194.78 43.452H191.84V56.92ZM214.826 60.336C213.426 60.336 212.184 60.0373 211.102 59.44C210.019 58.8427 209.17 58.0027 208.554 56.92C207.938 55.8373 207.63 54.5867 207.63 53.168C207.63 51.7307 207.928 50.452 208.526 49.332C209.142 48.212 209.982 47.344 211.046 46.728C212.128 46.0933 213.398 45.776 214.854 45.776C216.216 45.776 217.42 46.0747 218.466 46.672C219.511 47.2693 220.323 48.0907 220.902 49.136C221.499 50.1627 221.798 51.3107 221.798 52.58C221.798 52.7853 221.788 53 221.77 53.224C221.77 53.448 221.76 53.6813 221.742 53.924H211.186C211.26 55.0067 211.634 55.856 212.306 56.472C212.996 57.088 213.827 57.396 214.798 57.396C215.526 57.396 216.132 57.2373 216.618 56.92C217.122 56.584 217.495 56.1547 217.738 55.632H221.378C221.116 56.5093 220.678 57.312 220.062 58.04C219.464 58.7493 218.718 59.3093 217.822 59.72C216.944 60.1307 215.946 60.336 214.826 60.336ZM214.854 48.688C213.976 48.688 213.202 48.94 212.53 49.444C211.858 49.9293 211.428 50.676 211.242 51.684H218.158C218.102 50.7693 217.766 50.0413 217.15 49.5C216.534 48.9587 215.768 48.688 214.854 48.688ZM224.812 66.16V46.112H228.004L228.396 48.1C228.844 47.484 229.432 46.9427 230.16 46.476C230.907 46.0093 231.868 45.776 233.044 45.776C234.351 45.776 235.518 46.0933 236.544 46.728C237.571 47.3627 238.383 48.2307 238.98 49.332C239.578 50.4333 239.876 51.684 239.876 53.084C239.876 54.484 239.578 55.7347 238.98 56.836C238.383 57.9187 237.571 58.7773 236.544 59.412C235.518 60.028 234.351 60.336 233.044 60.336C231.999 60.336 231.084 60.14 230.3 59.748C229.516 59.356 228.882 58.8053 228.396 58.096V66.16H224.812ZM232.288 57.2C233.427 57.2 234.37 56.8173 235.116 56.052C235.863 55.2867 236.236 54.2973 236.236 53.084C236.236 51.8707 235.863 50.872 235.116 50.088C234.37 49.304 233.427 48.912 232.288 48.912C231.131 48.912 230.179 49.304 229.432 50.088C228.704 50.8533 228.34 51.8427 228.34 53.056C228.34 54.2693 228.704 55.268 229.432 56.052C230.179 56.8173 231.131 57.2 232.288 57.2ZM249.742 60.336C248.398 60.336 247.184 60.028 246.102 59.412C245.038 58.796 244.188 57.9467 243.554 56.864C242.938 55.7627 242.63 54.4933 242.63 53.056C242.63 51.6187 242.947 50.3587 243.582 49.276C244.216 48.1747 245.066 47.316 246.13 46.7C247.212 46.084 248.426 45.776 249.77 45.776C251.095 45.776 252.29 46.084 253.354 46.7C254.436 47.316 255.286 48.1747 255.902 49.276C256.536 50.3587 256.854 51.6187 256.854 53.056C256.854 54.4933 256.536 55.7627 255.902 56.864C255.286 57.9467 254.436 58.796 253.354 59.412C252.271 60.028 251.067 60.336 249.742 60.336ZM249.742 57.228C250.675 57.228 251.487 56.8827 252.178 56.192C252.868 55.4827 253.214 54.4373 253.214 53.056C253.214 51.6747 252.868 50.6387 252.178 49.948C251.487 49.2387 250.684 48.884 249.77 48.884C248.818 48.884 247.996 49.2387 247.306 49.948C246.634 50.6387 246.298 51.6747 246.298 53.056C246.298 54.4373 246.634 55.4827 247.306 56.192C247.996 56.8827 248.808 57.228 249.742 57.228ZM265.798 60.336C264.566 60.336 263.484 60.14 262.55 59.748C261.617 59.3373 260.87 58.7773 260.31 58.068C259.75 57.3587 259.414 56.5373 259.302 55.604H262.914C263.026 56.1453 263.325 56.612 263.81 57.004C264.314 57.3773 264.958 57.564 265.742 57.564C266.526 57.564 267.096 57.4053 267.45 57.088C267.824 56.7707 268.01 56.4067 268.01 55.996C268.01 55.3987 267.749 54.9973 267.226 54.792C266.704 54.568 265.976 54.3533 265.042 54.148C264.445 54.0173 263.838 53.8587 263.222 53.672C262.606 53.4853 262.037 53.252 261.514 52.972C261.01 52.6733 260.6 52.3 260.282 51.852C259.965 51.3853 259.806 50.816 259.806 50.144C259.806 48.912 260.292 47.876 261.262 47.036C262.252 46.196 263.633 45.776 265.406 45.776C267.049 45.776 268.356 46.1587 269.326 46.924C270.316 47.6893 270.904 48.744 271.09 50.088H267.702C267.497 49.0613 266.722 48.548 265.378 48.548C264.706 48.548 264.184 48.6787 263.81 48.94C263.456 49.2013 263.278 49.528 263.278 49.92C263.278 50.3307 263.549 50.6573 264.09 50.9C264.632 51.1427 265.35 51.3667 266.246 51.572C267.217 51.796 268.104 52.048 268.906 52.328C269.728 52.5893 270.381 52.9907 270.866 53.532C271.352 54.0547 271.594 54.8107 271.594 55.8C271.613 56.6587 271.389 57.4333 270.922 58.124C270.456 58.8147 269.784 59.356 268.906 59.748C268.029 60.14 266.993 60.336 265.798 60.336ZM276.701 43.956C276.048 43.956 275.507 43.76 275.077 43.368C274.667 42.976 274.461 42.4813 274.461 41.884C274.461 41.2867 274.667 40.8013 275.077 40.428C275.507 40.036 276.048 39.84 276.701 39.84C277.355 39.84 277.887 40.036 278.297 40.428C278.727 40.8013 278.941 41.2867 278.941 41.884C278.941 42.4813 278.727 42.976 278.297 43.368C277.887 43.76 277.355 43.956 276.701 43.956ZM274.909 60V46.112H278.493V60H274.909ZM288.422 60C286.966 60 285.799 59.6453 284.922 58.936C284.045 58.2267 283.606 56.9667 283.606 55.156V49.108H281.226V46.112H283.606L284.026 42.388H287.19V46.112H290.942V49.108H287.19V55.184C287.19 55.856 287.33 56.3227 287.61 56.584C287.909 56.8267 288.413 56.948 289.122 56.948H290.858V60H288.422ZM300.775 60V40.4H304.359V48.548H313.151V40.4H316.735V60H313.151V51.46H304.359V60H300.775ZM322.393 43.956C321.739 43.956 321.198 43.76 320.769 43.368C320.358 42.976 320.153 42.4813 320.153 41.884C320.153 41.2867 320.358 40.8013 320.769 40.428C321.198 40.036 321.739 39.84 322.393 39.84C323.046 39.84 323.578 40.036 323.989 40.428C324.418 40.8013 324.633 41.2867 324.633 41.884C324.633 42.4813 324.418 42.976 323.989 43.368C323.578 43.76 323.046 43.956 322.393 43.956ZM320.601 60V46.112H324.185V60H320.601ZM333.665 60.336C332.433 60.336 331.351 60.14 330.417 59.748C329.484 59.3373 328.737 58.7773 328.177 58.068C327.617 57.3587 327.281 56.5373 327.169 55.604H330.781C330.893 56.1453 331.192 56.612 331.677 57.004C332.181 57.3773 332.825 57.564 333.609 57.564C334.393 57.564 334.963 57.4053 335.317 57.088C335.691 56.7707 335.877 56.4067 335.877 55.996C335.877 55.3987 335.616 54.9973 335.093 54.792C334.571 54.568 333.843 54.3533 332.909 54.148C332.312 54.0173 331.705 53.8587 331.089 53.672C330.473 53.4853 329.904 53.252 329.381 52.972C328.877 52.6733 328.467 52.3 328.149 51.852C327.832 51.3853 327.673 50.816 327.673 50.144C327.673 48.912 328.159 47.876 329.129 47.036C330.119 46.196 331.5 45.776 333.273 45.776C334.916 45.776 336.223 46.1587 337.193 46.924C338.183 47.6893 338.771 48.744 338.957 50.088H335.569C335.364 49.0613 334.589 48.548 333.245 48.548C332.573 48.548 332.051 48.6787 331.677 48.94C331.323 49.2013 331.145 49.528 331.145 49.92C331.145 50.3307 331.416 50.6573 331.957 50.9C332.499 51.1427 333.217 51.3667 334.113 51.572C335.084 51.796 335.971 52.048 336.773 52.328C337.595 52.5893 338.248 52.9907 338.733 53.532C339.219 54.0547 339.461 54.8107 339.461 55.8C339.48 56.6587 339.256 57.4333 338.789 58.124C338.323 58.8147 337.651 59.356 336.773 59.748C335.896 60.14 334.86 60.336 333.665 60.336ZM348.387 60C346.931 60 345.764 59.6453 344.887 58.936C344.01 58.2267 343.571 56.9667 343.571 55.156V49.108H341.191V46.112H343.571L343.991 42.388H347.155V46.112H350.907V49.108H347.155V55.184C347.155 55.856 347.295 56.3227 347.575 56.584C347.874 56.8267 348.378 56.948 349.087 56.948H350.823V60H348.387ZM360.293 60.336C358.949 60.336 357.735 60.028 356.653 59.412C355.589 58.796 354.739 57.9467 354.105 56.864C353.489 55.7627 353.181 54.4933 353.181 53.056C353.181 51.6187 353.498 50.3587 354.133 49.276C354.767 48.1747 355.617 47.316 356.681 46.7C357.763 46.084 358.977 45.776 360.321 45.776C361.646 45.776 362.841 46.084 363.905 46.7C364.987 47.316 365.837 48.1747 366.453 49.276C367.087 50.3587 367.405 51.6187 367.405 53.056C367.405 54.4933 367.087 55.7627 366.453 56.864C365.837 57.9467 364.987 58.796 363.905 59.412C362.822 60.028 361.618 60.336 360.293 60.336ZM360.293 57.228C361.226 57.228 362.038 56.8827 362.729 56.192C363.419 55.4827 363.765 54.4373 363.765 53.056C363.765 51.6747 363.419 50.6387 362.729 49.948C362.038 49.2387 361.235 48.884 360.321 48.884C359.369 48.884 358.547 49.2387 357.857 49.948C357.185 50.6387 356.849 51.6747 356.849 53.056C356.849 54.4373 357.185 55.4827 357.857 56.192C358.547 56.8827 359.359 57.228 360.293 57.228ZM370.609 60V46.112H373.801L374.137 48.716C374.641 47.82 375.322 47.1107 376.181 46.588C377.058 46.0467 378.085 45.776 379.261 45.776V49.556H378.253C377.469 49.556 376.769 49.6773 376.153 49.92C375.537 50.1627 375.052 50.5827 374.697 51.18C374.361 51.7773 374.193 52.608 374.193 53.672V60H370.609ZM383.447 66.16L386.667 59.076H385.827L380.423 46.112H384.315L388.207 55.884L392.267 46.112H396.075L387.255 66.16H383.447Z" fill="white"/>
<defs>
<clipPath id="clip0_585_1974">
<rect width="50" height="50" fill="white" transform="translate(34 25)"/>
</clipPath>
</defs>
</svg>
