<svg width="430" height="100" viewBox="0 0 430 100" fill="none" xmlns="http://www.w3.org/2000/svg">
<rect x="0.5" y="0.5" width="429" height="99" rx="49.5" stroke="#0D6EFD"/>
<path d="M125.784 61L118.532 41.4H121.696L127.576 57.92L133.484 41.4H136.62L129.368 61H125.784ZM140.697 44.48C140.137 44.48 139.67 44.312 139.297 43.976C138.942 43.6213 138.765 43.1827 138.765 42.66C138.765 42.1373 138.942 41.708 139.297 41.372C139.67 41.0173 140.137 40.84 140.697 40.84C141.257 40.84 141.714 41.0173 142.069 41.372C142.442 41.708 142.629 42.1373 142.629 42.66C142.629 43.1827 142.442 43.6213 142.069 43.976C141.714 44.312 141.257 44.48 140.697 44.48ZM139.213 61V47.112H142.181V61H139.213ZM152.595 61.336C151.232 61.336 150.019 61.0373 148.955 60.44C147.909 59.824 147.088 58.9747 146.491 57.892C145.893 56.8093 145.595 55.5493 145.595 54.112C145.595 52.656 145.884 51.3773 146.463 50.276C147.06 49.1747 147.881 48.316 148.927 47.7C149.991 47.084 151.223 46.776 152.623 46.776C153.985 46.776 155.171 47.084 156.179 47.7C157.187 48.2973 157.971 49.1 158.531 50.108C159.091 51.116 159.371 52.2267 159.371 53.44C159.371 53.6267 159.361 53.832 159.343 54.056C159.343 54.2613 159.333 54.4947 159.315 54.756H148.507C148.6 56.1 149.039 57.1267 149.823 57.836C150.625 58.5267 151.549 58.872 152.595 58.872C153.435 58.872 154.135 58.6853 154.695 58.312C155.273 57.92 155.703 57.3973 155.983 56.744H158.951C158.577 58.0507 157.831 59.1427 156.711 60.02C155.609 60.8973 154.237 61.336 152.595 61.336ZM152.595 49.212C151.605 49.212 150.728 49.5107 149.963 50.108C149.197 50.6867 148.731 51.564 148.563 52.74H156.403C156.347 51.6573 155.964 50.7987 155.255 50.164C154.545 49.5293 153.659 49.212 152.595 49.212ZM164.675 61L160.587 47.112H163.555L166.243 57.584L169.267 47.112H172.571L175.595 57.584L178.283 47.112H181.251L177.163 61H174.111L170.919 50.08L167.727 61H164.675ZM190.863 61V41.4H197.219C199.515 41.4 201.4 41.8013 202.875 42.604C204.368 43.4067 205.47 44.5453 206.179 46.02C206.907 47.476 207.271 49.212 207.271 51.228C207.271 53.2253 206.907 54.9613 206.179 56.436C205.47 57.892 204.368 59.0213 202.875 59.824C201.4 60.608 199.515 61 197.219 61H190.863ZM193.831 58.48H197.107C198.88 58.48 200.28 58.1907 201.307 57.612C202.352 57.0333 203.099 56.2027 203.547 55.12C204.014 54.0373 204.247 52.74 204.247 51.228C204.247 49.716 204.014 48.4093 203.547 47.308C203.099 46.2067 202.352 45.3667 201.307 44.788C200.28 44.1907 198.88 43.892 197.107 43.892H193.831V58.48ZM216.935 61.336C215.572 61.336 214.359 61.0373 213.295 60.44C212.249 59.824 211.428 58.9747 210.831 57.892C210.233 56.8093 209.935 55.5493 209.935 54.112C209.935 52.656 210.224 51.3773 210.803 50.276C211.4 49.1747 212.221 48.316 213.267 47.7C214.331 47.084 215.563 46.776 216.963 46.776C218.325 46.776 219.511 47.084 220.519 47.7C221.527 48.2973 222.311 49.1 222.871 50.108C223.431 51.116 223.711 52.2267 223.711 53.44C223.711 53.6267 223.701 53.832 223.683 54.056C223.683 54.2613 223.673 54.4947 223.655 54.756H212.847C212.94 56.1 213.379 57.1267 214.163 57.836C214.965 58.5267 215.889 58.872 216.935 58.872C217.775 58.872 218.475 58.6853 219.035 58.312C219.613 57.92 220.043 57.3973 220.323 56.744H223.291C222.917 58.0507 222.171 59.1427 221.051 60.02C219.949 60.8973 218.577 61.336 216.935 61.336ZM216.935 49.212C215.945 49.212 215.068 49.5107 214.303 50.108C213.537 50.6867 213.071 51.564 212.903 52.74H220.743C220.687 51.6573 220.304 50.7987 219.595 50.164C218.885 49.5293 217.999 49.212 216.935 49.212ZM226.79 67.16V47.112H229.45L229.758 49.268C230.206 48.6147 230.822 48.036 231.606 47.532C232.39 47.028 233.398 46.776 234.63 46.776C235.974 46.776 237.159 47.0933 238.186 47.728C239.213 48.3627 240.015 49.2307 240.594 50.332C241.191 51.4333 241.49 52.684 241.49 54.084C241.49 55.484 241.191 56.7347 240.594 57.836C240.015 58.9187 239.213 59.7773 238.186 60.412C237.159 61.028 235.965 61.336 234.602 61.336C233.519 61.336 232.558 61.1213 231.718 60.692C230.897 60.2627 230.243 59.656 229.758 58.872V67.16H226.79ZM234.098 58.76C235.367 58.76 236.413 58.3307 237.234 57.472C238.055 56.5947 238.466 55.456 238.466 54.056C238.466 53.1413 238.279 52.3293 237.906 51.62C237.533 50.9107 237.019 50.36 236.366 49.968C235.713 49.5573 234.957 49.352 234.098 49.352C232.829 49.352 231.783 49.7907 230.962 50.668C230.159 51.5453 229.758 52.6747 229.758 54.056C229.758 55.456 230.159 56.5947 230.962 57.472C231.783 58.3307 232.829 58.76 234.098 58.76ZM251.196 61.336C249.871 61.336 248.676 61.0373 247.612 60.44C246.567 59.824 245.736 58.9747 245.12 57.892C244.504 56.7907 244.196 55.512 244.196 54.056C244.196 52.6 244.504 51.3307 245.12 50.248C245.755 49.1467 246.604 48.2973 247.668 47.7C248.732 47.084 249.918 46.776 251.224 46.776C252.55 46.776 253.735 47.084 254.78 47.7C255.844 48.2973 256.684 49.1467 257.3 50.248C257.935 51.3307 258.252 52.6 258.252 54.056C258.252 55.512 257.935 56.7907 257.3 57.892C256.684 58.9747 255.844 59.824 254.78 60.44C253.716 61.0373 252.522 61.336 251.196 61.336ZM251.196 58.788C251.906 58.788 252.559 58.6107 253.156 58.256C253.772 57.9013 254.267 57.3787 254.64 56.688C255.014 55.9787 255.2 55.1013 255.2 54.056C255.2 53.0107 255.014 52.1427 254.64 51.452C254.286 50.7427 253.8 50.2107 253.184 49.856C252.587 49.5013 251.934 49.324 251.224 49.324C250.515 49.324 249.852 49.5013 249.236 49.856C248.639 50.2107 248.154 50.7427 247.78 51.452C247.407 52.1427 247.22 53.0107 247.22 54.056C247.22 55.1013 247.407 55.9787 247.78 56.688C248.154 57.3787 248.639 57.9013 249.236 58.256C249.834 58.6107 250.487 58.788 251.196 58.788ZM267.006 61.336C265.251 61.336 263.805 60.9067 262.666 60.048C261.527 59.1893 260.874 58.0507 260.706 56.632H263.702C263.851 57.2667 264.206 57.8173 264.766 58.284C265.326 58.732 266.063 58.956 266.978 58.956C267.874 58.956 268.527 58.7693 268.938 58.396C269.349 58.0227 269.554 57.5933 269.554 57.108C269.554 56.3987 269.265 55.9227 268.686 55.68C268.126 55.4187 267.342 55.1853 266.334 54.98C265.55 54.812 264.766 54.588 263.982 54.308C263.217 54.028 262.573 53.636 262.05 53.132C261.546 52.6093 261.294 51.9093 261.294 51.032C261.294 49.8187 261.761 48.8107 262.694 48.008C263.627 47.1867 264.934 46.776 266.614 46.776C268.163 46.776 269.414 47.1493 270.366 47.896C271.337 48.6427 271.906 49.6973 272.074 51.06H269.218C269.125 50.4627 268.845 49.996 268.378 49.66C267.93 49.324 267.323 49.156 266.558 49.156C265.811 49.156 265.233 49.3147 264.822 49.632C264.411 49.9307 264.206 50.3227 264.206 50.808C264.206 51.2933 264.486 51.676 265.046 51.956C265.625 52.236 266.381 52.488 267.314 52.712C268.247 52.9173 269.106 53.16 269.89 53.44C270.693 53.7013 271.337 54.0933 271.822 54.616C272.307 55.1387 272.55 55.904 272.55 56.912C272.569 58.1813 272.074 59.236 271.066 60.076C270.077 60.916 268.723 61.336 267.006 61.336ZM277.47 44.48C276.91 44.48 276.443 44.312 276.07 43.976C275.715 43.6213 275.538 43.1827 275.538 42.66C275.538 42.1373 275.715 41.708 276.07 41.372C276.443 41.0173 276.91 40.84 277.47 40.84C278.03 40.84 278.487 41.0173 278.842 41.372C279.215 41.708 279.402 42.1373 279.402 42.66C279.402 43.1827 279.215 43.6213 278.842 43.976C278.487 44.312 278.03 44.48 277.47 44.48ZM275.986 61V47.112H278.954V61H275.986ZM288.696 61C287.333 61 286.251 60.6733 285.448 60.02C284.645 59.348 284.244 58.1627 284.244 56.464V49.604H281.864V47.112H284.244L284.608 43.584H287.212V47.112H291.132V49.604H287.212V56.464C287.212 57.2293 287.371 57.7613 287.688 58.06C288.024 58.34 288.593 58.48 289.396 58.48H290.992V61H288.696ZM301.359 61V41.4H304.327V49.8H313.819V41.4H316.787V61H313.819V52.236H304.327V61H301.359ZM322.341 44.48C321.781 44.48 321.314 44.312 320.941 43.976C320.586 43.6213 320.409 43.1827 320.409 42.66C320.409 42.1373 320.586 41.708 320.941 41.372C321.314 41.0173 321.781 40.84 322.341 40.84C322.901 40.84 323.358 41.0173 323.713 41.372C324.086 41.708 324.273 42.1373 324.273 42.66C324.273 43.1827 324.086 43.6213 323.713 43.976C323.358 44.312 322.901 44.48 322.341 44.48ZM320.857 61V47.112H323.825V61H320.857ZM333.287 61.336C331.533 61.336 330.086 60.9067 328.947 60.048C327.809 59.1893 327.155 58.0507 326.987 56.632H329.983C330.133 57.2667 330.487 57.8173 331.047 58.284C331.607 58.732 332.345 58.956 333.259 58.956C334.155 58.956 334.809 58.7693 335.219 58.396C335.63 58.0227 335.835 57.5933 335.835 57.108C335.835 56.3987 335.546 55.9227 334.967 55.68C334.407 55.4187 333.623 55.1853 332.615 54.98C331.831 54.812 331.047 54.588 330.263 54.308C329.498 54.028 328.854 53.636 328.331 53.132C327.827 52.6093 327.575 51.9093 327.575 51.032C327.575 49.8187 328.042 48.8107 328.975 48.008C329.909 47.1867 331.215 46.776 332.895 46.776C334.445 46.776 335.695 47.1493 336.647 47.896C337.618 48.6427 338.187 49.6973 338.355 51.06H335.499C335.406 50.4627 335.126 49.996 334.659 49.66C334.211 49.324 333.605 49.156 332.839 49.156C332.093 49.156 331.514 49.3147 331.103 49.632C330.693 49.9307 330.487 50.3227 330.487 50.808C330.487 51.2933 330.767 51.676 331.327 51.956C331.906 52.236 332.662 52.488 333.595 52.712C334.529 52.9173 335.387 53.16 336.171 53.44C336.974 53.7013 337.618 54.0933 338.103 54.616C338.589 55.1387 338.831 55.904 338.831 56.912C338.85 58.1813 338.355 59.236 337.347 60.076C336.358 60.916 335.005 61.336 333.287 61.336ZM347.376 61C346.013 61 344.93 60.6733 344.128 60.02C343.325 59.348 342.924 58.1627 342.924 56.464V49.604H340.544V47.112H342.924L343.288 43.584H345.892V47.112H349.812V49.604H345.892V56.464C345.892 57.2293 346.05 57.7613 346.368 58.06C346.704 58.34 347.273 58.48 348.076 58.48H349.672V61H347.376ZM359.013 61.336C357.687 61.336 356.493 61.0373 355.429 60.44C354.383 59.824 353.553 58.9747 352.937 57.892C352.321 56.7907 352.013 55.512 352.013 54.056C352.013 52.6 352.321 51.3307 352.937 50.248C353.571 49.1467 354.421 48.2973 355.485 47.7C356.549 47.084 357.734 46.776 359.041 46.776C360.366 46.776 361.551 47.084 362.597 47.7C363.661 48.2973 364.501 49.1467 365.117 50.248C365.751 51.3307 366.069 52.6 366.069 54.056C366.069 55.512 365.751 56.7907 365.117 57.892C364.501 58.9747 363.661 59.824 362.597 60.44C361.533 61.0373 360.338 61.336 359.013 61.336ZM359.013 58.788C359.722 58.788 360.375 58.6107 360.973 58.256C361.589 57.9013 362.083 57.3787 362.457 56.688C362.83 55.9787 363.017 55.1013 363.017 54.056C363.017 53.0107 362.83 52.1427 362.457 51.452C362.102 50.7427 361.617 50.2107 361.001 49.856C360.403 49.5013 359.75 49.324 359.041 49.324C358.331 49.324 357.669 49.5013 357.053 49.856C356.455 50.2107 355.97 50.7427 355.597 51.452C355.223 52.1427 355.037 53.0107 355.037 54.056C355.037 55.1013 355.223 55.9787 355.597 56.688C355.97 57.3787 356.455 57.9013 357.053 58.256C357.65 58.6107 358.303 58.788 359.013 58.788ZM369.278 61V47.112H371.938L372.19 49.744C372.676 48.8293 373.348 48.1107 374.206 47.588C375.084 47.0467 376.138 46.776 377.37 46.776V49.884H376.558C375.737 49.884 375 50.024 374.346 50.304C373.712 50.5653 373.198 51.0227 372.806 51.676C372.433 52.3107 372.246 53.1973 372.246 54.336V61H369.278ZM381.539 67.16L384.871 59.852H384.059L378.571 47.112H381.791L386.047 57.388L390.499 47.112H393.635L384.675 67.16H381.539Z" fill="#0D6EFD"/>
<g clip-path="url(#clip0_585_1986)">
<path d="M63 76C76.8071 76 88 64.8071 88 51C88 37.1929 76.8071 26 63 26C49.1929 26 38 37.1929 38 51C38 64.8071 49.1929 76 63 76Z" fill="#84DBFF"/>
<path d="M56.3858 34.2283H73.5905V64.4645H48.7874V41.8267L56.3858 34.2283Z" fill="white"/>
<path d="M56.3858 41.8267H48.7874L56.3858 34.2283V41.8267Z" fill="#E6E9EE"/>
<path d="M69.5355 44.5825H52.2126V45.5274H69.5355V44.5825Z" fill="#E6E9EE"/>
<path d="M69.5355 48.874H52.2126V49.8189H69.5355V48.874Z" fill="#E6E9EE"/>
<path d="M69.5355 53.1653H52.2126V54.1102H69.5355V53.1653Z" fill="#E6E9EE"/>
<path d="M69.5355 57.4565H52.2126V58.4014H69.5355V57.4565Z" fill="#E6E9EE"/>
<path d="M72.1176 57.5889L73.3982 56.3083L69.6401 52.5502L68.3595 53.8308L72.1176 57.5889Z" fill="#2B3B4E"/>
<path d="M60.559 44.7796C58.0393 47.2993 58.0393 51.3938 60.559 53.9529C63.0786 56.4726 67.1731 56.4726 69.7322 53.9529C72.2519 51.4332 72.2519 47.3387 69.7322 44.7796C67.2125 42.2206 63.118 42.2206 60.559 44.7796ZM68.5511 52.7718C66.6613 54.6615 63.5904 54.6615 61.7401 52.7718C59.8897 50.882 59.8503 47.8111 61.7401 45.9607C63.6298 44.071 66.7007 44.071 68.5511 45.9607C70.4408 47.8111 70.4408 50.882 68.5511 52.7718Z" fill="#324A5E"/>
<path d="M71.937 54.1889L69.9685 56.1574C69.811 56.3149 69.811 56.5905 69.9685 56.748L75.9921 62.7716C76.1496 62.9291 76.4251 62.9291 76.5826 62.7716L78.5511 60.8031C78.7086 60.6456 78.7086 60.37 78.5511 60.2125L72.5275 54.1889C72.37 54.0314 72.0944 54.0314 71.937 54.1889Z" fill="#FF7058"/>
</g>
<defs>
<clipPath id="clip0_585_1986">
<rect width="50" height="50" fill="white" transform="translate(38 26)"/>
</clipPath>
</defs>
</svg>
