<svg width="174" height="119" viewBox="0 0 174 119" fill="none" xmlns="http://www.w3.org/2000/svg">
<path d="M5.134 80.204C4.26133 80.204 3.49633 80.051 2.839 79.745C2.18167 79.439 1.666 79.0027 1.292 78.436C0.929333 77.8693 0.742333 77.195 0.731 76.413H2.635C2.64633 77.0477 2.86733 77.586 3.298 78.028C3.72867 78.47 4.335 78.691 5.117 78.691C5.80833 78.691 6.34667 78.5267 6.732 78.198C7.12867 77.858 7.327 77.4273 7.327 76.906C7.327 76.4867 7.23067 76.1467 7.038 75.886C6.85667 75.6253 6.60167 75.41 6.273 75.24C5.95567 75.07 5.58733 74.917 5.168 74.781C4.74867 74.645 4.30667 74.4977 3.842 74.339C2.924 74.033 2.23267 73.6363 1.768 73.149C1.31467 72.6617 1.088 72.0213 1.088 71.228C1.07667 70.5593 1.22967 69.9757 1.547 69.477C1.87567 68.9783 2.329 68.593 2.907 68.321C3.49633 68.0377 4.182 67.896 4.964 67.896C5.73467 67.896 6.409 68.0377 6.987 68.321C7.57633 68.6043 8.03533 69.001 8.364 69.511C8.69267 70.0097 8.86267 70.5933 8.874 71.262H6.97C6.97 70.956 6.89067 70.667 6.732 70.395C6.57333 70.1117 6.341 69.8793 6.035 69.698C5.729 69.5167 5.355 69.426 4.913 69.426C4.34633 69.4147 3.876 69.5563 3.502 69.851C3.13933 70.1457 2.958 70.5537 2.958 71.075C2.958 71.5397 3.094 71.8967 3.366 72.146C3.638 72.3953 4.012 72.605 4.488 72.775C4.964 72.9337 5.508 73.1207 6.12 73.336C6.70933 73.5287 7.23633 73.761 7.701 74.033C8.16567 74.305 8.534 74.662 8.806 75.104C9.08933 75.546 9.231 76.107 9.231 76.787C9.231 77.3877 9.078 77.9487 8.772 78.47C8.466 78.98 8.007 79.3993 7.395 79.728C6.783 80.0453 6.02933 80.204 5.134 80.204ZM15.0771 80.204C14.2498 80.204 13.5131 80.0227 12.8671 79.66C12.2325 79.286 11.7338 78.7703 11.3711 78.113C11.0085 77.4557 10.8271 76.6907 10.8271 75.818C10.8271 74.934 11.0028 74.1577 11.3541 73.489C11.7168 72.8203 12.2155 72.299 12.8501 71.925C13.4961 71.551 14.2441 71.364 15.0941 71.364C15.9215 71.364 16.6411 71.551 17.2531 71.925C17.8651 72.2877 18.3411 72.775 18.6811 73.387C19.0211 73.999 19.1911 74.6733 19.1911 75.41C19.1911 75.5233 19.1855 75.648 19.1741 75.784C19.1741 75.9087 19.1685 76.0503 19.1571 76.209H12.5951C12.6518 77.025 12.9181 77.6483 13.3941 78.079C13.8815 78.4983 14.4425 78.708 15.0771 78.708C15.5871 78.708 16.0121 78.5947 16.3521 78.368C16.7035 78.13 16.9641 77.8127 17.1341 77.416H18.9361C18.7095 78.2093 18.2561 78.8723 17.5761 79.405C16.9075 79.9377 16.0745 80.204 15.0771 80.204ZM15.0771 72.843C14.4765 72.843 13.9438 73.0243 13.4791 73.387C13.0145 73.7383 12.7311 74.271 12.6291 74.985H17.3891C17.3551 74.3277 17.1228 73.8063 16.6921 73.421C16.2615 73.0357 15.7231 72.843 15.0771 72.843ZM21.0609 80V67.76H22.8629V80H21.0609ZM29.0889 80.204C28.2615 80.204 27.5249 80.0227 26.8789 79.66C26.2442 79.286 25.7455 78.7703 25.3829 78.113C25.0202 77.4557 24.8389 76.6907 24.8389 75.818C24.8389 74.934 25.0145 74.1577 25.3659 73.489C25.7285 72.8203 26.2272 72.299 26.8619 71.925C27.5079 71.551 28.2559 71.364 29.1059 71.364C29.9332 71.364 30.6529 71.551 31.2649 71.925C31.8769 72.2877 32.3529 72.775 32.6929 73.387C33.0329 73.999 33.2029 74.6733 33.2029 75.41C33.2029 75.5233 33.1972 75.648 33.1859 75.784C33.1859 75.9087 33.1802 76.0503 33.1689 76.209H26.6069C26.6635 77.025 26.9299 77.6483 27.4059 78.079C27.8932 78.4983 28.4542 78.708 29.0889 78.708C29.5989 78.708 30.0239 78.5947 30.3639 78.368C30.7152 78.13 30.9759 77.8127 31.1459 77.416H32.9479C32.7212 78.2093 32.2679 78.8723 31.5879 79.405C30.9192 79.9377 30.0862 80.204 29.0889 80.204ZM29.0889 72.843C28.4882 72.843 27.9555 73.0243 27.4909 73.387C27.0262 73.7383 26.7429 74.271 26.6409 74.985H31.4009C31.3669 74.3277 31.1345 73.8063 30.7039 73.421C30.2732 73.0357 29.7349 72.843 29.0889 72.843ZM39.0676 80.204C38.2403 80.204 37.4979 80.017 36.8406 79.643C36.1946 79.269 35.6846 78.7533 35.3106 78.096C34.9479 77.4273 34.7666 76.6567 34.7666 75.784C34.7666 74.9113 34.9479 74.1463 35.3106 73.489C35.6846 72.8203 36.1946 72.299 36.8406 71.925C37.4979 71.551 38.2403 71.364 39.0676 71.364C40.1103 71.364 40.9829 71.636 41.6856 72.18C42.3996 72.724 42.8586 73.4607 43.0626 74.39H41.1756C41.0623 73.9253 40.8129 73.5627 40.4276 73.302C40.0423 73.0413 39.5889 72.911 39.0676 72.911C38.6256 72.911 38.2176 73.0243 37.8436 73.251C37.4696 73.4663 37.1693 73.7893 36.9426 74.22C36.7159 74.6393 36.6026 75.1607 36.6026 75.784C36.6026 76.4073 36.7159 76.9343 36.9426 77.365C37.1693 77.7843 37.4696 78.1073 37.8436 78.334C38.2176 78.5607 38.6256 78.674 39.0676 78.674C39.5889 78.674 40.0423 78.5437 40.4276 78.283C40.8129 78.0223 41.0623 77.654 41.1756 77.178H43.0626C42.8699 78.0847 42.4166 78.8157 41.7026 79.371C40.9886 79.9263 40.1103 80.204 39.0676 80.204ZM48.3869 80C47.5596 80 46.9022 79.8017 46.4149 79.405C45.9276 78.997 45.6839 78.2773 45.6839 77.246V73.081H44.2389V71.568H45.6839L45.9049 69.426H47.4859V71.568H49.8659V73.081H47.4859V77.246C47.4859 77.7107 47.5822 78.0337 47.7749 78.215C47.9789 78.385 48.3246 78.47 48.8119 78.47H49.7809V80H48.3869ZM58.8632 80.204C58.1492 80.204 57.5598 80.085 57.0952 79.847C56.6305 79.609 56.2848 79.2973 56.0582 78.912C55.8315 78.5153 55.7182 78.0847 55.7182 77.62C55.7182 76.804 56.0355 76.158 56.6702 75.682C57.3048 75.206 58.2115 74.968 59.3902 74.968H61.6002V74.815C61.6002 74.1577 61.4188 73.6647 61.0562 73.336C60.7048 73.0073 60.2458 72.843 59.6792 72.843C59.1805 72.843 58.7442 72.9677 58.3702 73.217C58.0075 73.455 57.7865 73.812 57.7072 74.288H55.9052C55.9618 73.676 56.1658 73.1547 56.5172 72.724C56.8798 72.282 57.3332 71.9477 57.8772 71.721C58.4325 71.483 59.0388 71.364 59.6962 71.364C60.8748 71.364 61.7872 71.6757 62.4332 72.299C63.0792 72.911 63.4022 73.7497 63.4022 74.815V80H61.8382L61.6852 78.555C61.4472 79.0197 61.1015 79.4107 60.6482 79.728C60.1948 80.0453 59.5998 80.204 58.8632 80.204ZM59.2202 78.742C59.7075 78.742 60.1155 78.6287 60.4442 78.402C60.7842 78.164 61.0448 77.8523 61.2262 77.467C61.4188 77.0817 61.5378 76.6567 61.5832 76.192H59.5772C58.8632 76.192 58.3532 76.3167 58.0472 76.566C57.7525 76.8153 57.6052 77.127 57.6052 77.501C57.6052 77.8863 57.7468 78.1923 58.0302 78.419C58.3248 78.6343 58.7215 78.742 59.2202 78.742ZM70.2115 80V73.081H69.0045V71.568H70.2115V70.344C70.2115 69.426 70.4381 68.7687 70.8915 68.372C71.3561 67.964 72.0078 67.76 72.8465 67.76H73.7305V69.29H73.1185C72.7218 69.29 72.4385 69.375 72.2685 69.545C72.0985 69.7037 72.0135 69.9757 72.0135 70.361V71.568H77.3515V80H75.5495V73.081H72.0135V80H70.2115ZM76.4675 70.157C76.1275 70.157 75.8441 70.055 75.6175 69.851C75.4021 69.6357 75.2945 69.3637 75.2945 69.035C75.2945 68.7177 75.4021 68.457 75.6175 68.253C75.8441 68.049 76.1275 67.947 76.4675 67.947C76.8075 67.947 77.0851 68.049 77.3005 68.253C77.5271 68.457 77.6405 68.7177 77.6405 69.035C77.6405 69.3637 77.5271 69.6357 77.3005 69.851C77.0851 70.055 76.8075 70.157 76.4675 70.157ZM79.7474 80V67.76H81.5494V80H79.7474ZM87.7754 80.204C86.948 80.204 86.2114 80.0227 85.5654 79.66C84.9307 79.286 84.432 78.7703 84.0694 78.113C83.7067 77.4557 83.5254 76.6907 83.5254 75.818C83.5254 74.934 83.701 74.1577 84.0524 73.489C84.415 72.8203 84.9137 72.299 85.5484 71.925C86.1944 71.551 86.9424 71.364 87.7924 71.364C88.6197 71.364 89.3394 71.551 89.9514 71.925C90.5634 72.2877 91.0394 72.775 91.3794 73.387C91.7194 73.999 91.8894 74.6733 91.8894 75.41C91.8894 75.5233 91.8837 75.648 91.8724 75.784C91.8724 75.9087 91.8667 76.0503 91.8554 76.209H85.2934C85.35 77.025 85.6164 77.6483 86.0924 78.079C86.5797 78.4983 87.1407 78.708 87.7754 78.708C88.2854 78.708 88.7104 78.5947 89.0504 78.368C89.4017 78.13 89.6624 77.8127 89.8324 77.416H91.6344C91.4077 78.2093 90.9544 78.8723 90.2744 79.405C89.6057 79.9377 88.7727 80.204 87.7754 80.204ZM87.7754 72.843C87.1747 72.843 86.642 73.0243 86.1774 73.387C85.7127 73.7383 85.4294 74.271 85.3274 74.985H90.0874C90.0534 74.3277 89.821 73.8063 89.3904 73.421C88.9597 73.0357 88.4214 72.843 87.7754 72.843ZM101.578 80C100.751 80 100.094 79.8017 99.6063 79.405C99.119 78.997 98.8753 78.2773 98.8753 77.246V73.081H97.4303V71.568H98.8753L99.0963 69.426H100.677V71.568H103.057V73.081H100.677V77.246C100.677 77.7107 100.774 78.0337 100.966 78.215C101.17 78.385 101.516 78.47 102.003 78.47H102.972V80H101.578ZM108.644 80.204C107.839 80.204 107.114 80.0227 106.468 79.66C105.833 79.286 105.329 78.7703 104.955 78.113C104.581 77.4443 104.394 76.668 104.394 75.784C104.394 74.9 104.581 74.1293 104.955 73.472C105.34 72.8033 105.856 72.2877 106.502 71.925C107.148 71.551 107.867 71.364 108.661 71.364C109.465 71.364 110.185 71.551 110.82 71.925C111.466 72.2877 111.976 72.8033 112.35 73.472C112.735 74.1293 112.928 74.9 112.928 75.784C112.928 76.668 112.735 77.4443 112.35 78.113C111.976 78.7703 111.466 79.286 110.82 79.66C110.174 80.0227 109.448 80.204 108.644 80.204ZM108.644 78.657C109.074 78.657 109.471 78.5493 109.834 78.334C110.208 78.1187 110.508 77.8013 110.735 77.382C110.961 76.9513 111.075 76.4187 111.075 75.784C111.075 75.1493 110.961 74.6223 110.735 74.203C110.519 73.7723 110.225 73.4493 109.851 73.234C109.488 73.0187 109.091 72.911 108.661 72.911C108.23 72.911 107.828 73.0187 107.454 73.234C107.091 73.4493 106.796 73.7723 106.57 74.203C106.343 74.6223 106.23 75.1493 106.23 75.784C106.23 76.4187 106.343 76.9513 106.57 77.382C106.796 77.8013 107.091 78.1187 107.454 78.334C107.816 78.5493 108.213 78.657 108.644 78.657ZM122.271 80.204C121.251 80.204 120.446 79.8867 119.857 79.252C119.279 78.6173 118.99 77.671 118.99 76.413V71.568H120.792V76.226C120.792 77.858 121.46 78.674 122.798 78.674C123.466 78.674 124.016 78.436 124.447 77.96C124.877 77.484 125.093 76.804 125.093 75.92V71.568H126.895V80H125.297L125.161 78.521C124.9 79.0423 124.515 79.456 124.005 79.762C123.506 80.0567 122.928 80.204 122.271 80.204ZM129.187 83.74V71.568H130.802L130.989 72.877C131.261 72.4803 131.635 72.129 132.111 71.823C132.587 71.517 133.199 71.364 133.947 71.364C134.763 71.364 135.483 71.5567 136.106 71.942C136.729 72.3273 137.217 72.8543 137.568 73.523C137.931 74.1917 138.112 74.951 138.112 75.801C138.112 76.651 137.931 77.4103 137.568 78.079C137.217 78.7363 136.729 79.2577 136.106 79.643C135.483 80.017 134.757 80.204 133.93 80.204C133.273 80.204 132.689 80.0737 132.179 79.813C131.68 79.5523 131.284 79.184 130.989 78.708V83.74H129.187ZM133.624 78.64C134.395 78.64 135.029 78.3793 135.528 77.858C136.027 77.3253 136.276 76.634 136.276 75.784C136.276 75.2287 136.163 74.7357 135.936 74.305C135.709 73.8743 135.398 73.54 135.001 73.302C134.604 73.0527 134.145 72.928 133.624 72.928C132.853 72.928 132.219 73.1943 131.72 73.727C131.233 74.2597 130.989 74.9453 130.989 75.784C130.989 76.634 131.233 77.3253 131.72 77.858C132.219 78.3793 132.853 78.64 133.624 78.64ZM140.061 80V67.76H141.863V80H140.061ZM148.089 80.204C147.284 80.204 146.559 80.0227 145.913 79.66C145.278 79.286 144.774 78.7703 144.4 78.113C144.026 77.4443 143.839 76.668 143.839 75.784C143.839 74.9 144.026 74.1293 144.4 73.472C144.785 72.8033 145.301 72.2877 145.947 71.925C146.593 71.551 147.313 71.364 148.106 71.364C148.911 71.364 149.63 71.551 150.265 71.925C150.911 72.2877 151.421 72.8033 151.795 73.472C152.18 74.1293 152.373 74.9 152.373 75.784C152.373 76.668 152.18 77.4443 151.795 78.113C151.421 78.7703 150.911 79.286 150.265 79.66C149.619 80.0227 148.894 80.204 148.089 80.204ZM148.089 78.657C148.52 78.657 148.916 78.5493 149.279 78.334C149.653 78.1187 149.953 77.8013 150.18 77.382C150.407 76.9513 150.52 76.4187 150.52 75.784C150.52 75.1493 150.407 74.6223 150.18 74.203C149.965 73.7723 149.67 73.4493 149.296 73.234C148.933 73.0187 148.537 72.911 148.106 72.911C147.675 72.911 147.273 73.0187 146.899 73.234C146.536 73.4493 146.242 73.7723 146.015 74.203C145.788 74.6223 145.675 75.1493 145.675 75.784C145.675 76.4187 145.788 76.9513 146.015 77.382C146.242 77.8013 146.536 78.1187 146.899 78.334C147.262 78.5493 147.658 78.657 148.089 78.657ZM157.178 80.204C156.464 80.204 155.874 80.085 155.41 79.847C154.945 79.609 154.599 79.2973 154.373 78.912C154.146 78.5153 154.033 78.0847 154.033 77.62C154.033 76.804 154.35 76.158 154.985 75.682C155.619 75.206 156.526 74.968 157.705 74.968H159.915V74.815C159.915 74.1577 159.733 73.6647 159.371 73.336C159.019 73.0073 158.56 72.843 157.994 72.843C157.495 72.843 157.059 72.9677 156.685 73.217C156.322 73.455 156.101 73.812 156.022 74.288H154.22C154.276 73.676 154.48 73.1547 154.832 72.724C155.194 72.282 155.648 71.9477 156.192 71.721C156.747 71.483 157.353 71.364 158.011 71.364C159.189 71.364 160.102 71.6757 160.748 72.299C161.394 72.911 161.717 73.7497 161.717 74.815V80H160.153L160 78.555C159.762 79.0197 159.416 79.4107 158.963 79.728C158.509 80.0453 157.914 80.204 157.178 80.204ZM157.535 78.742C158.022 78.742 158.43 78.6287 158.759 78.402C159.099 78.164 159.359 77.8523 159.541 77.467C159.733 77.0817 159.852 76.6567 159.898 76.192H157.892C157.178 76.192 156.668 76.3167 156.362 76.566C156.067 76.8153 155.92 77.127 155.92 77.501C155.92 77.8863 156.061 78.1923 156.345 78.419C156.639 78.6343 157.036 78.742 157.535 78.742ZM167.66 80.204C166.844 80.204 166.124 80.0113 165.501 79.626C164.877 79.2407 164.39 78.7137 164.039 78.045C163.687 77.3763 163.512 76.617 163.512 75.767C163.512 74.917 163.687 74.1633 164.039 73.506C164.39 72.8373 164.877 72.316 165.501 71.942C166.135 71.5567 166.861 71.364 167.677 71.364C168.345 71.364 168.929 71.4943 169.428 71.755C169.938 72.0157 170.334 72.384 170.618 72.86V67.76H172.42V80H170.805L170.618 78.691C170.346 79.0877 169.972 79.439 169.496 79.745C169.02 80.051 168.408 80.204 167.66 80.204ZM167.983 78.64C168.753 78.64 169.382 78.3737 169.87 77.841C170.368 77.3083 170.618 76.6227 170.618 75.784C170.618 74.934 170.368 74.2483 169.87 73.727C169.382 73.1943 168.753 72.928 167.983 72.928C167.212 72.928 166.577 73.1943 166.079 73.727C165.58 74.2483 165.331 74.934 165.331 75.784C165.331 76.3393 165.444 76.8323 165.671 77.263C165.897 77.6937 166.209 78.0337 166.606 78.283C167.014 78.521 167.473 78.64 167.983 78.64Z" fill="#28D1FF"/>
<path d="M33.93 99.12C33.45 99.12 33.0267 99.0067 32.66 98.78C32.2933 98.5533 32.0067 98.2433 31.8 97.85C31.5933 97.4567 31.49 97.01 31.49 96.51C31.49 96.01 31.5933 95.5667 31.8 95.18C32.0067 94.7867 32.2933 94.48 32.66 94.26C33.0333 94.0333 33.46 93.92 33.94 93.92C34.3333 93.92 34.6767 93.9967 34.97 94.15C35.27 94.3033 35.5033 94.52 35.67 94.8V91.8H36.73V99H35.78L35.67 98.23C35.51 98.4633 35.29 98.67 35.01 98.85C34.73 99.03 34.37 99.12 33.93 99.12ZM34.12 98.2C34.5733 98.2 34.9433 98.0433 35.23 97.73C35.5233 97.4167 35.67 97.0133 35.67 96.52C35.67 96.02 35.5233 95.6167 35.23 95.31C34.9433 94.9967 34.5733 94.84 34.12 94.84C33.6667 94.84 33.2933 94.9967 33 95.31C32.7067 95.6167 32.56 96.02 32.56 96.52C32.56 96.8467 32.6267 97.1367 32.76 97.39C32.8933 97.6433 33.0767 97.8433 33.31 97.99C33.55 98.13 33.82 98.2 34.12 98.2ZM38.0665 99V94.04H39.0165L39.1065 94.98C39.2798 94.6533 39.5198 94.3967 39.8265 94.21C40.1398 94.0167 40.5165 93.92 40.9565 93.92V95.03H40.6665C40.3732 95.03 40.1098 95.08 39.8765 95.18C39.6498 95.2733 39.4665 95.4367 39.3265 95.67C39.1932 95.8967 39.1265 96.2133 39.1265 96.62V99H38.0665ZM44.0486 99.12C43.5753 99.12 43.1486 99.0133 42.7686 98.8C42.3953 98.58 42.0986 98.2767 41.8786 97.89C41.6586 97.4967 41.5486 97.04 41.5486 96.52C41.5486 96 41.6586 95.5467 41.8786 95.16C42.1053 94.7667 42.4086 94.4633 42.7886 94.25C43.1686 94.03 43.5919 93.92 44.0586 93.92C44.5319 93.92 44.9553 94.03 45.3286 94.25C45.7086 94.4633 46.0086 94.7667 46.2286 95.16C46.4553 95.5467 46.5686 96 46.5686 96.52C46.5686 97.04 46.4553 97.4967 46.2286 97.89C46.0086 98.2767 45.7086 98.58 45.3286 98.8C44.9486 99.0133 44.5219 99.12 44.0486 99.12ZM44.0486 98.21C44.3019 98.21 44.5353 98.1467 44.7486 98.02C44.9686 97.8933 45.1453 97.7067 45.2786 97.46C45.4119 97.2067 45.4786 96.8933 45.4786 96.52C45.4786 96.1467 45.4119 95.8367 45.2786 95.59C45.1519 95.3367 44.9786 95.1467 44.7586 95.02C44.5453 94.8933 44.3119 94.83 44.0586 94.83C43.8053 94.83 43.5686 94.8933 43.3486 95.02C43.1353 95.1467 42.9619 95.3367 42.8286 95.59C42.6953 95.8367 42.6286 96.1467 42.6286 96.52C42.6286 96.8933 42.6953 97.2067 42.8286 97.46C42.9619 97.7067 43.1353 97.8933 43.3486 98.02C43.5619 98.1467 43.7953 98.21 44.0486 98.21ZM47.7149 101.2V94.04H48.6649L48.7749 94.81C48.9349 94.5767 49.1549 94.37 49.4349 94.19C49.7149 94.01 50.0749 93.92 50.5149 93.92C50.9949 93.92 51.4183 94.0333 51.7849 94.26C52.1516 94.4867 52.4383 94.7967 52.6449 95.19C52.8583 95.5833 52.9649 96.03 52.9649 96.53C52.9649 97.03 52.8583 97.4767 52.6449 97.87C52.4383 98.2567 52.1516 98.5633 51.7849 98.79C51.4183 99.01 50.9916 99.12 50.5049 99.12C50.1183 99.12 49.7749 99.0433 49.4749 98.89C49.1816 98.7367 48.9483 98.52 48.7749 98.24V101.2H47.7149ZM50.3249 98.2C50.7783 98.2 51.1516 98.0467 51.4449 97.74C51.7383 97.4267 51.8849 97.02 51.8849 96.52C51.8849 96.1933 51.8183 95.9033 51.6849 95.65C51.5516 95.3967 51.3683 95.2 51.1349 95.06C50.9016 94.9133 50.6316 94.84 50.3249 94.84C49.8716 94.84 49.4983 94.9967 49.2049 95.31C48.9183 95.6233 48.7749 96.0267 48.7749 96.52C48.7749 97.02 48.9183 97.4267 49.2049 97.74C49.4983 98.0467 49.8716 98.2 50.3249 98.2ZM58.8909 99.12C58.4109 99.12 57.9876 99.0067 57.6209 98.78C57.2543 98.5533 56.9676 98.2433 56.7609 97.85C56.5543 97.4567 56.4509 97.01 56.4509 96.51C56.4509 96.01 56.5543 95.5667 56.7609 95.18C56.9676 94.7867 57.2543 94.48 57.6209 94.26C57.9943 94.0333 58.4209 93.92 58.9009 93.92C59.2943 93.92 59.6376 93.9967 59.9309 94.15C60.2309 94.3033 60.4643 94.52 60.6309 94.8V91.8H61.6909V99H60.7409L60.6309 98.23C60.4709 98.4633 60.2509 98.67 59.9709 98.85C59.6909 99.03 59.3309 99.12 58.8909 99.12ZM59.0809 98.2C59.5343 98.2 59.9043 98.0433 60.1909 97.73C60.4843 97.4167 60.6309 97.0133 60.6309 96.52C60.6309 96.02 60.4843 95.6167 60.1909 95.31C59.9043 94.9967 59.5343 94.84 59.0809 94.84C58.6276 94.84 58.2543 94.9967 57.9609 95.31C57.6676 95.6167 57.5209 96.02 57.5209 96.52C57.5209 96.8467 57.5876 97.1367 57.7209 97.39C57.8543 97.6433 58.0376 97.8433 58.2709 97.99C58.5109 98.13 58.7809 98.2 59.0809 98.2ZM65.3474 99.12C64.8741 99.12 64.4474 99.0133 64.0674 98.8C63.6941 98.58 63.3974 98.2767 63.1774 97.89C62.9574 97.4967 62.8474 97.04 62.8474 96.52C62.8474 96 62.9574 95.5467 63.1774 95.16C63.4041 94.7667 63.7074 94.4633 64.0874 94.25C64.4674 94.03 64.8908 93.92 65.3574 93.92C65.8308 93.92 66.2541 94.03 66.6274 94.25C67.0074 94.4633 67.3074 94.7667 67.5274 95.16C67.7541 95.5467 67.8674 96 67.8674 96.52C67.8674 97.04 67.7541 97.4967 67.5274 97.89C67.3074 98.2767 67.0074 98.58 66.6274 98.8C66.2474 99.0133 65.8208 99.12 65.3474 99.12ZM65.3474 98.21C65.6008 98.21 65.8341 98.1467 66.0474 98.02C66.2674 97.8933 66.4441 97.7067 66.5774 97.46C66.7108 97.2067 66.7774 96.8933 66.7774 96.52C66.7774 96.1467 66.7108 95.8367 66.5774 95.59C66.4508 95.3367 66.2774 95.1467 66.0574 95.02C65.8441 94.8933 65.6108 94.83 65.3574 94.83C65.1041 94.83 64.8674 94.8933 64.6474 95.02C64.4341 95.1467 64.2608 95.3367 64.1274 95.59C63.9941 95.8367 63.9274 96.1467 63.9274 96.52C63.9274 96.8933 63.9941 97.2067 64.1274 97.46C64.2608 97.7067 64.4341 97.8933 64.6474 98.02C64.8608 98.1467 65.0941 98.21 65.3474 98.21ZM71.3638 99.12C70.8771 99.12 70.4404 99.01 70.0538 98.79C69.6738 98.57 69.3738 98.2667 69.1538 97.88C68.9404 97.4867 68.8338 97.0333 68.8338 96.52C68.8338 96.0067 68.9404 95.5567 69.1538 95.17C69.3738 94.7767 69.6738 94.47 70.0538 94.25C70.4404 94.03 70.8771 93.92 71.3638 93.92C71.9771 93.92 72.4904 94.08 72.9038 94.4C73.3238 94.72 73.5938 95.1533 73.7138 95.7H72.6038C72.5371 95.4267 72.3904 95.2133 72.1638 95.06C71.9371 94.9067 71.6704 94.83 71.3638 94.83C71.1038 94.83 70.8638 94.8967 70.6438 95.03C70.4238 95.1567 70.2471 95.3467 70.1138 95.6C69.9804 95.8467 69.9138 96.1533 69.9138 96.52C69.9138 96.8867 69.9804 97.1967 70.1138 97.45C70.2471 97.6967 70.4238 97.8867 70.6438 98.02C70.8638 98.1533 71.1038 98.22 71.3638 98.22C71.6704 98.22 71.9371 98.1433 72.1638 97.99C72.3904 97.8367 72.5371 97.62 72.6038 97.34H73.7138C73.6004 97.8733 73.3338 98.3033 72.9138 98.63C72.4938 98.9567 71.9771 99.12 71.3638 99.12ZM74.2734 100.18L74.8534 97.82H75.9034L74.9834 100.18H74.2734ZM79.4239 101.2V94.04H80.3739L80.4839 94.81C80.6439 94.5767 80.8639 94.37 81.1439 94.19C81.4239 94.01 81.7839 93.92 82.2239 93.92C82.7039 93.92 83.1272 94.0333 83.4939 94.26C83.8606 94.4867 84.1472 94.7967 84.3539 95.19C84.5672 95.5833 84.6739 96.03 84.6739 96.53C84.6739 97.03 84.5672 97.4767 84.3539 97.87C84.1472 98.2567 83.8606 98.5633 83.4939 98.79C83.1272 99.01 82.7006 99.12 82.2139 99.12C81.8272 99.12 81.4839 99.0433 81.1839 98.89C80.8906 98.7367 80.6572 98.52 80.4839 98.24V101.2H79.4239ZM82.0339 98.2C82.4872 98.2 82.8606 98.0467 83.1539 97.74C83.4472 97.4267 83.5939 97.02 83.5939 96.52C83.5939 96.1933 83.5272 95.9033 83.3939 95.65C83.2606 95.3967 83.0772 95.2 82.8439 95.06C82.6106 94.9133 82.3406 94.84 82.0339 94.84C81.5806 94.84 81.2072 94.9967 80.9139 95.31C80.6272 95.6233 80.4839 96.0267 80.4839 96.52C80.4839 97.02 80.6272 97.4267 80.9139 97.74C81.2072 98.0467 81.5806 98.2 82.0339 98.2ZM85.8204 101.2V94.04H86.7704L86.8804 94.81C87.0404 94.5767 87.2604 94.37 87.5404 94.19C87.8204 94.01 88.1804 93.92 88.6204 93.92C89.1004 93.92 89.5237 94.0333 89.8904 94.26C90.2571 94.4867 90.5437 94.7967 90.7504 95.19C90.9637 95.5833 91.0704 96.03 91.0704 96.53C91.0704 97.03 90.9637 97.4767 90.7504 97.87C90.5437 98.2567 90.2571 98.5633 89.8904 98.79C89.5237 99.01 89.0971 99.12 88.6104 99.12C88.2237 99.12 87.8804 99.0433 87.5804 98.89C87.2871 98.7367 87.0537 98.52 86.8804 98.24V101.2H85.8204ZM88.4304 98.2C88.8837 98.2 89.2571 98.0467 89.5504 97.74C89.8437 97.4267 89.9904 97.02 89.9904 96.52C89.9904 96.1933 89.9237 95.9033 89.7904 95.65C89.6571 95.3967 89.4737 95.2 89.2404 95.06C89.0071 94.9133 88.7371 94.84 88.4304 94.84C87.9771 94.84 87.6037 94.9967 87.3104 95.31C87.0237 95.6233 86.8804 96.0267 86.8804 96.52C86.8804 97.02 87.0237 97.4267 87.3104 97.74C87.6037 98.0467 87.9771 98.2 88.4304 98.2ZM94.1016 99C93.6149 99 93.2282 98.8833 92.9416 98.65C92.6549 98.41 92.5116 97.9867 92.5116 97.38V94.93H91.6616V94.04H92.5116L92.6416 92.78H93.5716V94.04H94.9716V94.93H93.5716V97.38C93.5716 97.6533 93.6282 97.8433 93.7416 97.95C93.8616 98.05 94.0649 98.1 94.3516 98.1H94.9216V99H94.1016ZM98.8341 99V94.93H98.1241V94.04H98.8341V93.32C98.8341 92.78 98.9674 92.3933 99.2341 92.16C99.5074 91.92 99.8907 91.8 100.384 91.8H100.904V92.7H100.544C100.311 92.7 100.144 92.75 100.044 92.85C99.9441 92.9433 99.8941 93.1033 99.8941 93.33V94.04H103.034V99H101.974V94.93H99.8941V99H98.8341ZM102.514 93.21C102.314 93.21 102.147 93.15 102.014 93.03C101.887 92.9033 101.824 92.7433 101.824 92.55C101.824 92.3633 101.887 92.21 102.014 92.09C102.147 91.97 102.314 91.91 102.514 91.91C102.714 91.91 102.877 91.97 103.004 92.09C103.137 92.21 103.204 92.3633 103.204 92.55C103.204 92.7433 103.137 92.9033 103.004 93.03C102.877 93.15 102.714 93.21 102.514 93.21ZM104.443 99V91.8H105.503V99H104.443ZM109.166 99.12C108.679 99.12 108.246 99.0133 107.866 98.8C107.492 98.58 107.199 98.2767 106.986 97.89C106.772 97.5033 106.666 97.0533 106.666 96.54C106.666 96.02 106.769 95.5633 106.976 95.17C107.189 94.7767 107.482 94.47 107.856 94.25C108.236 94.03 108.676 93.92 109.176 93.92C109.662 93.92 110.086 94.03 110.446 94.25C110.806 94.4633 111.086 94.75 111.286 95.11C111.486 95.47 111.586 95.8667 111.586 96.3C111.586 96.3667 111.582 96.44 111.576 96.52C111.576 96.5933 111.572 96.6767 111.566 96.77H107.706C107.739 97.25 107.896 97.6167 108.176 97.87C108.462 98.1167 108.792 98.24 109.166 98.24C109.466 98.24 109.716 98.1733 109.916 98.04C110.122 97.9 110.276 97.7133 110.376 97.48H111.436C111.302 97.9467 111.036 98.3367 110.636 98.65C110.242 98.9633 109.752 99.12 109.166 99.12ZM109.166 94.79C108.812 94.79 108.499 94.8967 108.226 95.11C107.952 95.3167 107.786 95.63 107.726 96.05H110.526C110.506 95.6633 110.369 95.3567 110.116 95.13C109.862 94.9033 109.546 94.79 109.166 94.79ZM114.666 99.12C114.039 99.12 113.522 98.9667 113.116 98.66C112.709 98.3533 112.476 97.9467 112.416 97.44H113.486C113.539 97.6667 113.666 97.8633 113.866 98.03C114.066 98.19 114.329 98.27 114.656 98.27C114.976 98.27 115.209 98.2033 115.356 98.07C115.502 97.9367 115.576 97.7833 115.576 97.61C115.576 97.3567 115.472 97.1867 115.266 97.1C115.066 97.0067 114.786 96.9233 114.426 96.85C114.146 96.79 113.866 96.71 113.586 96.61C113.312 96.51 113.082 96.37 112.896 96.19C112.716 96.0033 112.626 95.7533 112.626 95.44C112.626 95.0067 112.792 94.6467 113.126 94.36C113.459 94.0667 113.926 93.92 114.526 93.92C115.079 93.92 115.526 94.0533 115.866 94.32C116.212 94.5867 116.416 94.9633 116.476 95.45H115.456C115.422 95.2367 115.322 95.07 115.156 94.95C114.996 94.83 114.779 94.77 114.506 94.77C114.239 94.77 114.032 94.8267 113.886 94.94C113.739 95.0467 113.666 95.1867 113.666 95.36C113.666 95.5333 113.766 95.67 113.966 95.77C114.172 95.87 114.442 95.96 114.776 96.04C115.109 96.1133 115.416 96.2 115.696 96.3C115.982 96.3933 116.212 96.5333 116.386 96.72C116.559 96.9067 116.646 97.18 116.646 97.54C116.652 97.9933 116.476 98.37 116.116 98.67C115.762 98.97 115.279 99.12 114.666 99.12ZM120.322 99V91.8H121.382V94.84C121.549 94.5533 121.779 94.33 122.072 94.17C122.372 94.0033 122.702 93.92 123.062 93.92C123.656 93.92 124.122 94.1067 124.462 94.48C124.802 94.8533 124.972 95.41 124.972 96.15V99H123.922V96.26C123.922 95.3 123.539 94.82 122.772 94.82C122.372 94.82 122.039 94.96 121.772 95.24C121.512 95.52 121.382 95.92 121.382 96.44V99H120.322ZM128.541 99.12C128.054 99.12 127.621 99.0133 127.241 98.8C126.867 98.58 126.574 98.2767 126.361 97.89C126.147 97.5033 126.041 97.0533 126.041 96.54C126.041 96.02 126.144 95.5633 126.351 95.17C126.564 94.7767 126.857 94.47 127.231 94.25C127.611 94.03 128.051 93.92 128.551 93.92C129.037 93.92 129.461 94.03 129.821 94.25C130.181 94.4633 130.461 94.75 130.661 95.11C130.861 95.47 130.961 95.8667 130.961 96.3C130.961 96.3667 130.957 96.44 130.951 96.52C130.951 96.5933 130.947 96.6767 130.941 96.77H127.081C127.114 97.25 127.271 97.6167 127.551 97.87C127.837 98.1167 128.167 98.24 128.541 98.24C128.841 98.24 129.091 98.1733 129.291 98.04C129.497 97.9 129.651 97.7133 129.751 97.48H130.811C130.677 97.9467 130.411 98.3367 130.011 98.65C129.617 98.9633 129.127 99.12 128.541 99.12ZM128.541 94.79C128.187 94.79 127.874 94.8967 127.601 95.11C127.327 95.3167 127.161 95.63 127.101 96.05H129.901C129.881 95.6633 129.744 95.3567 129.491 95.13C129.237 94.9033 128.921 94.79 128.541 94.79ZM132.061 99V94.04H133.011L133.101 94.98C133.274 94.6533 133.514 94.3967 133.821 94.21C134.134 94.0167 134.511 93.92 134.951 93.92V95.03H134.661C134.367 95.03 134.104 95.08 133.871 95.18C133.644 95.2733 133.461 95.4367 133.321 95.67C133.187 95.8967 133.121 96.2133 133.121 96.62V99H132.061ZM138.043 99.12C137.556 99.12 137.123 99.0133 136.743 98.8C136.369 98.58 136.076 98.2767 135.863 97.89C135.649 97.5033 135.543 97.0533 135.543 96.54C135.543 96.02 135.646 95.5633 135.853 95.17C136.066 94.7767 136.359 94.47 136.733 94.25C137.113 94.03 137.553 93.92 138.053 93.92C138.539 93.92 138.963 94.03 139.323 94.25C139.683 94.4633 139.963 94.75 140.163 95.11C140.363 95.47 140.463 95.8667 140.463 96.3C140.463 96.3667 140.459 96.44 140.453 96.52C140.453 96.5933 140.449 96.6767 140.443 96.77H136.583C136.616 97.25 136.773 97.6167 137.053 97.87C137.339 98.1167 137.669 98.24 138.043 98.24C138.343 98.24 138.593 98.1733 138.793 98.04C138.999 97.9 139.153 97.7133 139.253 97.48H140.313C140.179 97.9467 139.913 98.3367 139.513 98.65C139.119 98.9633 138.629 99.12 138.043 99.12ZM138.043 94.79C137.689 94.79 137.376 94.8967 137.103 95.11C136.829 95.3167 136.663 95.63 136.603 96.05H139.403C139.383 95.6633 139.246 95.3567 138.993 95.13C138.739 94.9033 138.423 94.79 138.043 94.79Z" fill="#AFAEAE"/>
<path d="M43.592 115V109.4H44.376L46.392 113.304L48.392 109.4H49.184V115H48.512V110.6L46.64 114.2H46.136L44.264 110.608V115H43.592ZM51.6454 115.096C51.3148 115.096 51.0401 115.04 50.8214 114.928C50.6028 114.816 50.4401 114.667 50.3334 114.48C50.2268 114.293 50.1734 114.091 50.1734 113.872C50.1734 113.467 50.3281 113.155 50.6374 112.936C50.9468 112.717 51.3681 112.608 51.9014 112.608H52.9734V112.56C52.9734 112.213 52.8828 111.952 52.7014 111.776C52.5201 111.595 52.2774 111.504 51.9734 111.504C51.7121 111.504 51.4854 111.571 51.2934 111.704C51.1068 111.832 50.9894 112.021 50.9414 112.272H50.2534C50.2801 111.984 50.3761 111.741 50.5414 111.544C50.7121 111.347 50.9228 111.197 51.1734 111.096C51.4241 110.989 51.6908 110.936 51.9734 110.936C52.5281 110.936 52.9441 111.085 53.2214 111.384C53.5041 111.677 53.6454 112.069 53.6454 112.56V115H53.0454L53.0054 114.288C52.8934 114.512 52.7281 114.704 52.5094 114.864C52.2961 115.019 52.0081 115.096 51.6454 115.096ZM51.7494 114.528C52.0054 114.528 52.2241 114.461 52.4054 114.328C52.5921 114.195 52.7334 114.021 52.8294 113.808C52.9254 113.595 52.9734 113.371 52.9734 113.136V113.128H51.9574C51.5628 113.128 51.2828 113.197 51.1174 113.336C50.9574 113.469 50.8774 113.637 50.8774 113.84C50.8774 114.048 50.9521 114.216 51.1014 114.344C51.2561 114.467 51.4721 114.528 51.7494 114.528ZM54.2536 115L55.6296 113.016L54.2536 111.032H54.9816L56.0936 112.672L57.2136 111.032H57.9336L56.5576 113.016L57.9336 115H57.2136L56.0936 113.36L54.9816 115H54.2536ZM59.0459 110.152C58.9126 110.152 58.8006 110.109 58.7099 110.024C58.6246 109.933 58.5819 109.821 58.5819 109.688C58.5819 109.56 58.6246 109.453 58.7099 109.368C58.8006 109.283 58.9126 109.24 59.0459 109.24C59.1739 109.24 59.2833 109.283 59.3739 109.368C59.4646 109.453 59.5099 109.56 59.5099 109.688C59.5099 109.821 59.4646 109.933 59.3739 110.024C59.2833 110.109 59.1739 110.152 59.0459 110.152ZM58.7099 115V111.032H59.3819V115H58.7099ZM60.552 115V111.032H61.16L61.208 111.608C61.336 111.395 61.5067 111.229 61.72 111.112C61.9333 110.995 62.1733 110.936 62.44 110.936C62.7547 110.936 63.024 111 63.248 111.128C63.4773 111.256 63.6533 111.451 63.776 111.712C63.9147 111.472 64.104 111.283 64.344 111.144C64.5893 111.005 64.8533 110.936 65.136 110.936C65.6107 110.936 65.9893 111.08 66.272 111.368C66.5547 111.651 66.696 112.088 66.696 112.68V115H66.032V112.752C66.032 112.341 65.9493 112.032 65.784 111.824C65.6187 111.616 65.3813 111.512 65.072 111.512C64.752 111.512 64.4853 111.637 64.272 111.888C64.064 112.133 63.96 112.485 63.96 112.944V115H63.288V112.752C63.288 112.341 63.2053 112.032 63.04 111.824C62.8747 111.616 62.6373 111.512 62.328 111.512C62.0133 111.512 61.7493 111.637 61.536 111.888C61.328 112.133 61.224 112.485 61.224 112.944V115H60.552ZM69.1562 115.096C68.6869 115.096 68.3136 114.955 68.0363 114.672C67.7589 114.384 67.6203 113.944 67.6203 113.352V111.032H68.2923V113.28C68.2923 114.107 68.6309 114.52 69.3083 114.52C69.6549 114.52 69.9403 114.397 70.1643 114.152C70.3936 113.901 70.5083 113.547 70.5083 113.088V111.032H71.1803V115H70.5723L70.5243 114.288C70.4016 114.539 70.2176 114.736 69.9723 114.88C69.7323 115.024 69.4603 115.096 69.1562 115.096ZM72.2864 115V111.032H72.8944L72.9424 111.608C73.0704 111.395 73.241 111.229 73.4544 111.112C73.6677 110.995 73.9077 110.936 74.1744 110.936C74.489 110.936 74.7584 111 74.9824 111.128C75.2117 111.256 75.3877 111.451 75.5104 111.712C75.649 111.472 75.8384 111.283 76.0784 111.144C76.3237 111.005 76.5877 110.936 76.8704 110.936C77.345 110.936 77.7237 111.08 78.0064 111.368C78.289 111.651 78.4304 112.088 78.4304 112.68V115H77.7664V112.752C77.7664 112.341 77.6837 112.032 77.5184 111.824C77.353 111.616 77.1157 111.512 76.8064 111.512C76.4864 111.512 76.2197 111.637 76.0064 111.888C75.7984 112.133 75.6944 112.485 75.6944 112.944V115H75.0224V112.752C75.0224 112.341 74.9397 112.032 74.7744 111.824C74.609 111.616 74.3717 111.512 74.0624 111.512C73.7477 111.512 73.4837 111.637 73.2704 111.888C73.0624 112.133 72.9584 112.485 72.9584 112.944V115H72.2864ZM81.7758 115V111.6H81.1758V111.032H81.7758V110.344C81.7758 109.96 81.8718 109.68 82.0638 109.504C82.2558 109.328 82.5358 109.24 82.9038 109.24H83.3038V109.816H83.0078C82.8051 109.816 82.6611 109.859 82.5758 109.944C82.4905 110.024 82.4478 110.163 82.4478 110.36V111.032H84.9118V115H84.2398V111.6H82.4478V115H81.7758ZM84.5838 110.272C84.4558 110.272 84.3465 110.229 84.2558 110.144C84.1651 110.053 84.1198 109.941 84.1198 109.808C84.1198 109.68 84.1651 109.573 84.2558 109.488C84.3465 109.403 84.4558 109.36 84.5838 109.36C84.7171 109.36 84.8265 109.403 84.9118 109.488C85.0025 109.573 85.0478 109.68 85.0478 109.808C85.0478 109.941 85.0025 110.053 84.9118 110.144C84.8265 110.229 84.7171 110.272 84.5838 110.272ZM86.0989 115V109.24H86.7709V115H86.0989ZM89.6563 115.096C89.2776 115.096 88.9416 115.011 88.6483 114.84C88.355 114.664 88.123 114.421 87.9523 114.112C87.787 113.803 87.7043 113.437 87.7043 113.016C87.7043 112.6 87.787 112.237 87.9523 111.928C88.1176 111.613 88.347 111.371 88.6403 111.2C88.939 111.024 89.283 110.936 89.6723 110.936C90.0563 110.936 90.387 111.024 90.6643 111.2C90.947 111.371 91.163 111.597 91.3123 111.88C91.4616 112.163 91.5363 112.467 91.5363 112.792C91.5363 112.851 91.5336 112.909 91.5283 112.968C91.5283 113.027 91.5283 113.093 91.5283 113.168H88.3683C88.3843 113.472 88.4536 113.725 88.5763 113.928C88.7043 114.125 88.8616 114.275 89.0483 114.376C89.2403 114.477 89.443 114.528 89.6563 114.528C89.9336 114.528 90.1656 114.464 90.3523 114.336C90.539 114.208 90.675 114.035 90.7603 113.816H91.4243C91.3176 114.184 91.1123 114.491 90.8083 114.736C90.5096 114.976 90.1256 115.096 89.6563 115.096ZM89.6563 111.504C89.3363 111.504 89.051 111.603 88.8003 111.8C88.555 111.992 88.4136 112.275 88.3763 112.648H90.8723C90.8563 112.291 90.7336 112.011 90.5043 111.808C90.275 111.605 89.9923 111.504 89.6563 111.504ZM96.0642 115.096C95.5895 115.096 95.1949 114.976 94.8802 114.736C94.5655 114.496 94.3815 114.171 94.3282 113.76H95.0162C95.0589 113.968 95.1682 114.149 95.3442 114.304C95.5255 114.453 95.7682 114.528 96.0722 114.528C96.3549 114.528 96.5629 114.469 96.6962 114.352C96.8295 114.229 96.8962 114.085 96.8962 113.92C96.8962 113.68 96.8082 113.52 96.6322 113.44C96.4615 113.36 96.2189 113.288 95.9042 113.224C95.6909 113.181 95.4775 113.12 95.2642 113.04C95.0509 112.96 94.8722 112.848 94.7282 112.704C94.5842 112.555 94.5122 112.36 94.5122 112.12C94.5122 111.773 94.6402 111.491 94.8962 111.272C95.1575 111.048 95.5095 110.936 95.9522 110.936C96.3735 110.936 96.7175 111.043 96.9842 111.256C97.2562 111.464 97.4135 111.763 97.4562 112.152H96.7922C96.7655 111.949 96.6775 111.792 96.5282 111.68C96.3842 111.563 96.1895 111.504 95.9442 111.504C95.7042 111.504 95.5175 111.555 95.3842 111.656C95.2562 111.757 95.1922 111.891 95.1922 112.056C95.1922 112.216 95.2749 112.341 95.4402 112.432C95.6109 112.523 95.8402 112.6 96.1282 112.664C96.3735 112.717 96.6055 112.784 96.8242 112.864C97.0482 112.939 97.2295 113.053 97.3682 113.208C97.5122 113.357 97.5842 113.576 97.5842 113.864C97.5895 114.221 97.4535 114.517 97.1762 114.752C96.9042 114.981 96.5335 115.096 96.0642 115.096ZM98.9522 110.152C98.8189 110.152 98.7069 110.109 98.6162 110.024C98.5309 109.933 98.4882 109.821 98.4882 109.688C98.4882 109.56 98.5309 109.453 98.6162 109.368C98.7069 109.283 98.8189 109.24 98.9522 109.24C99.0802 109.24 99.1895 109.283 99.2802 109.368C99.3709 109.453 99.4162 109.56 99.4162 109.688C99.4162 109.821 99.3709 109.933 99.2802 110.024C99.1895 110.109 99.0802 110.152 98.9522 110.152ZM98.6162 115V111.032H99.2882V115H98.6162ZM100.186 115V114.448L102.394 111.592H100.226V111.032H103.146V111.584L100.938 114.44H103.186V115H100.186ZM105.859 115.096C105.481 115.096 105.145 115.011 104.851 114.84C104.558 114.664 104.326 114.421 104.155 114.112C103.99 113.803 103.907 113.437 103.907 113.016C103.907 112.6 103.99 112.237 104.155 111.928C104.321 111.613 104.55 111.371 104.843 111.2C105.142 111.024 105.486 110.936 105.875 110.936C106.259 110.936 106.59 111.024 106.867 111.2C107.15 111.371 107.366 111.597 107.515 111.88C107.665 112.163 107.739 112.467 107.739 112.792C107.739 112.851 107.737 112.909 107.731 112.968C107.731 113.027 107.731 113.093 107.731 113.168H104.571C104.587 113.472 104.657 113.725 104.779 113.928C104.907 114.125 105.065 114.275 105.251 114.376C105.443 114.477 105.646 114.528 105.859 114.528C106.137 114.528 106.369 114.464 106.555 114.336C106.742 114.208 106.878 114.035 106.963 113.816H107.627C107.521 114.184 107.315 114.491 107.011 114.736C106.713 114.976 106.329 115.096 105.859 115.096ZM105.859 111.504C105.539 111.504 105.254 111.603 105.003 111.8C104.758 111.992 104.617 112.275 104.579 112.648H107.075C107.059 112.291 106.937 112.011 106.707 111.808C106.478 111.605 106.195 111.504 105.859 111.504ZM111.339 115V110.152L110.435 110.352V109.888L111.563 109.4H112.019V115H111.339ZM115.105 115.096C114.721 115.096 114.388 115.027 114.105 114.888C113.823 114.749 113.596 114.56 113.425 114.32C113.26 114.075 113.159 113.797 113.121 113.488H113.777C113.841 113.797 113.991 114.048 114.225 114.24C114.46 114.427 114.756 114.52 115.113 114.52C115.38 114.52 115.609 114.459 115.801 114.336C115.993 114.208 116.14 114.037 116.241 113.824C116.348 113.611 116.401 113.373 116.401 113.112C116.401 112.696 116.284 112.36 116.049 112.104C115.815 111.848 115.511 111.72 115.137 111.72C114.828 111.72 114.564 111.789 114.345 111.928C114.127 112.067 113.967 112.248 113.865 112.472H113.225L113.705 109.4H116.641V109.984H114.225L113.897 111.688C114.025 111.533 114.201 111.405 114.425 111.304C114.655 111.203 114.916 111.152 115.209 111.152C115.577 111.152 115.897 111.237 116.169 111.408C116.447 111.579 116.663 111.811 116.817 112.104C116.972 112.397 117.049 112.731 117.049 113.104C117.049 113.461 116.972 113.792 116.817 114.096C116.668 114.4 116.447 114.643 116.153 114.824C115.865 115.005 115.516 115.096 115.105 115.096ZM120.217 115V109.4H121.001L123.017 113.304L125.017 109.4H125.809V115H125.137V110.6L123.265 114.2H122.761L120.889 110.608V115H120.217ZM126.99 115V109.4H128.958C129.353 109.4 129.678 109.464 129.934 109.592C130.196 109.715 130.39 109.885 130.518 110.104C130.646 110.317 130.71 110.557 130.71 110.824C130.71 111.187 130.612 111.472 130.414 111.68C130.222 111.888 129.99 112.032 129.718 112.112C129.926 112.149 130.116 112.232 130.286 112.36C130.457 112.488 130.59 112.648 130.686 112.84C130.788 113.032 130.838 113.243 130.838 113.472C130.838 113.755 130.769 114.013 130.63 114.248C130.492 114.477 130.286 114.661 130.014 114.8C129.742 114.933 129.412 115 129.022 115H126.99ZM127.662 111.848H128.91C129.268 111.848 129.542 111.765 129.734 111.6C129.926 111.429 130.022 111.195 130.022 110.896C130.022 110.613 129.926 110.387 129.734 110.216C129.548 110.045 129.265 109.96 128.886 109.96H127.662V111.848ZM127.662 114.44H128.95C129.334 114.44 129.63 114.352 129.838 114.176C130.046 113.995 130.15 113.744 130.15 113.424C130.15 113.109 130.041 112.859 129.822 112.672C129.604 112.48 129.308 112.384 128.934 112.384H127.662V114.44Z" fill="#AFAEAE"/>
<path d="M109.671 16.0164L94.3378 0.336512C94.2418 0.226601 94.1234 0.139553 93.9909 0.081501C93.8584 0.0234488 93.7151 -0.00419557 93.5711 0.000515142H67.2857C66.4143 0.000515142 65.5785 0.354511 64.9624 0.984627C64.3462 1.61474 64 2.46936 64 3.36048V52.64C64 53.5311 64.3462 54.3858 64.9624 55.0159C65.5785 55.646 66.4143 56 67.2857 56H106.714C107.585 56 108.421 55.646 109.037 55.0159C109.653 54.3858 109.999 53.5311 109.999 52.64V16.8004C110.004 16.6531 109.977 16.5065 109.92 16.3711C109.864 16.2356 109.778 16.1145 109.671 16.0164ZM94.6663 3.83648L106.248 15.6804H94.6663V3.83648ZM106.714 53.76H67.2857C66.9952 53.76 66.7166 53.642 66.5112 53.432C66.3058 53.2219 66.1905 52.9371 66.1905 52.64V3.36048C66.1905 3.06344 66.3058 2.77857 66.5112 2.56853C66.7166 2.35849 66.9952 2.24049 67.2857 2.24049H92.4759V16.8004C92.4759 17.0974 92.5913 17.3823 92.7967 17.5923C93.0021 17.8024 93.2806 17.9203 93.5711 17.9203H107.809V52.64C107.809 52.9371 107.694 53.2219 107.488 53.432C107.283 53.642 107.004 53.76 106.714 53.76ZM95.433 35.0562C95.5357 35.158 95.6173 35.2798 95.673 35.4145C95.7288 35.5492 95.7575 35.6939 95.7575 35.8402C95.7575 35.9864 95.7288 36.1312 95.673 36.2659C95.6173 36.4005 95.5357 36.5224 95.433 36.6242L87.7664 44.4641C87.6669 44.5691 87.5477 44.6526 87.416 44.7096C87.2843 44.7666 87.1428 44.796 86.9997 44.796C86.8567 44.796 86.7152 44.7666 86.5835 44.7096C86.4518 44.6526 86.3326 44.5691 86.2331 44.4641L78.5665 36.6242C78.4083 36.4085 78.3315 36.1417 78.3502 35.8728C78.3689 35.6039 78.4818 35.3509 78.6682 35.1602C78.8547 34.9696 79.1021 34.8541 79.365 34.835C79.628 34.8159 79.8889 34.8944 80.0998 35.0562L85.9045 40.9641V25.7603C85.9045 25.4632 86.0199 25.1784 86.2253 24.9683C86.4307 24.7583 86.7093 24.6403 86.9997 24.6403C87.2902 24.6403 87.5688 24.7583 87.7742 24.9683C87.9796 25.1784 88.095 25.4632 88.095 25.7603V40.9641L93.8997 35.0562C93.9992 34.9512 94.1184 34.8677 94.2501 34.8107C94.3818 34.7537 94.5233 34.7243 94.6663 34.7243C94.8093 34.7243 94.9509 34.7537 95.0826 34.8107C95.2143 34.8677 95.3334 34.9512 95.433 35.0562Z" fill="black"/>
<circle cx="108" cy="50" r="11" fill="white"/>
<path d="M113 51H109V55H107V51H103V49H107V45H109V49H113M108 40C106.687 40 105.386 40.2587 104.173 40.7612C102.96 41.2638 101.858 42.0003 100.929 42.9289C99.0536 44.8043 98 47.3478 98 50C98 52.6522 99.0536 55.1957 100.929 57.0711C101.858 57.9997 102.96 58.7362 104.173 59.2388C105.386 59.7413 106.687 60 108 60C110.652 60 113.196 58.9464 115.071 57.0711C116.946 55.1957 118 52.6522 118 50C118 48.6868 117.741 47.3864 117.239 46.1732C116.736 44.9599 116 43.8575 115.071 42.9289C114.142 42.0003 113.04 41.2638 111.827 40.7612C110.614 40.2587 109.313 40 108 40Z" fill="black"/>
</svg>
