<svg width="552" height="70" viewBox="0 0 552 70" fill="none" xmlns="http://www.w3.org/2000/svg">
<rect x="0.5" y="0.5" width="551" height="69" rx="14.5" fill="white" stroke="#28D1FF"/>
<path d="M194.988 45V25.4H201.736C203.285 25.4 204.555 25.6613 205.544 26.184C206.552 26.7067 207.299 27.416 207.784 28.312C208.269 29.1893 208.512 30.1693 208.512 31.252C208.512 32.4653 208.185 33.5667 207.532 34.556C206.897 35.5453 205.899 36.2547 204.536 36.684L208.708 45H205.264L201.456 37.104H197.956V45H194.988ZM197.956 34.864H201.568C202.912 34.864 203.892 34.5373 204.508 33.884C205.143 33.2307 205.46 32.3813 205.46 31.336C205.46 30.2907 205.152 29.46 204.536 28.844C203.92 28.2093 202.921 27.892 201.54 27.892H197.956V34.864ZM216.178 45.336C215.002 45.336 214.031 45.14 213.266 44.748C212.5 44.356 211.931 43.8427 211.558 43.208C211.184 42.5547 210.998 41.8453 210.998 41.08C210.998 39.736 211.52 38.672 212.566 37.888C213.611 37.104 215.104 36.712 217.046 36.712H220.686V36.46C220.686 35.3773 220.387 34.5653 219.79 34.024C219.211 33.4827 218.455 33.212 217.522 33.212C216.7 33.212 215.982 33.4173 215.366 33.828C214.768 34.22 214.404 34.808 214.274 35.592H211.306C211.399 34.584 211.735 33.7253 212.314 33.016C212.911 32.288 213.658 31.7373 214.554 31.364C215.468 30.972 216.467 30.776 217.55 30.776C219.491 30.776 220.994 31.2893 222.058 32.316C223.122 33.324 223.654 34.7053 223.654 36.46V45H221.078L220.826 42.62C220.434 43.3853 219.864 44.0293 219.118 44.552C218.371 45.0747 217.391 45.336 216.178 45.336ZM216.766 42.928C217.568 42.928 218.24 42.7413 218.782 42.368C219.342 41.976 219.771 41.4627 220.07 40.828C220.387 40.1933 220.583 39.4933 220.658 38.728H217.354C216.178 38.728 215.338 38.9333 214.834 39.344C214.348 39.7547 214.106 40.268 214.106 40.884C214.106 41.5187 214.339 42.0227 214.806 42.396C215.291 42.7507 215.944 42.928 216.766 42.928ZM232.665 45C231.302 45 230.22 44.6733 229.417 44.02C228.614 43.348 228.213 42.1627 228.213 40.464V33.604H225.833V31.112H228.213L228.577 27.584H231.181V31.112H235.101V33.604H231.181V40.464C231.181 41.2293 231.34 41.7613 231.657 42.06C231.993 42.34 232.562 42.48 233.365 42.48H234.961V45H232.665ZM244.302 45.336C242.939 45.336 241.726 45.0373 240.662 44.44C239.616 43.824 238.795 42.9747 238.198 41.892C237.6 40.8093 237.302 39.5493 237.302 38.112C237.302 36.656 237.591 35.3773 238.17 34.276C238.767 33.1747 239.588 32.316 240.634 31.7C241.698 31.084 242.93 30.776 244.33 30.776C245.692 30.776 246.878 31.084 247.886 31.7C248.894 32.2973 249.678 33.1 250.238 34.108C250.798 35.116 251.078 36.2267 251.078 37.44C251.078 37.6267 251.068 37.832 251.05 38.056C251.05 38.2613 251.04 38.4947 251.022 38.756H240.214C240.307 40.1 240.746 41.1267 241.53 41.836C242.332 42.5267 243.256 42.872 244.302 42.872C245.142 42.872 245.842 42.6853 246.402 42.312C246.98 41.92 247.41 41.3973 247.69 40.744H250.658C250.284 42.0507 249.538 43.1427 248.418 44.02C247.316 44.8973 245.944 45.336 244.302 45.336ZM244.302 33.212C243.312 33.212 242.435 33.5107 241.67 34.108C240.904 34.6867 240.438 35.564 240.27 36.74H248.11C248.054 35.6573 247.671 34.7987 246.962 34.164C246.252 33.5293 245.366 33.212 244.302 33.212ZM267.708 45.336C266.383 45.336 265.188 45.0373 264.124 44.44C263.079 43.824 262.248 42.9747 261.632 41.892C261.016 40.7907 260.708 39.512 260.708 38.056C260.708 36.6 261.016 35.3307 261.632 34.248C262.267 33.1467 263.116 32.2973 264.18 31.7C265.244 31.084 266.429 30.776 267.736 30.776C269.061 30.776 270.247 31.084 271.292 31.7C272.356 32.2973 273.196 33.1467 273.812 34.248C274.447 35.3307 274.764 36.6 274.764 38.056C274.764 39.512 274.447 40.7907 273.812 41.892C273.196 42.9747 272.356 43.824 271.292 44.44C270.228 45.0373 269.033 45.336 267.708 45.336ZM267.708 42.788C268.417 42.788 269.071 42.6107 269.668 42.256C270.284 41.9013 270.779 41.3787 271.152 40.688C271.525 39.9787 271.712 39.1013 271.712 38.056C271.712 37.0107 271.525 36.1427 271.152 35.452C270.797 34.7427 270.312 34.2107 269.696 33.856C269.099 33.5013 268.445 33.324 267.736 33.324C267.027 33.324 266.364 33.5013 265.748 33.856C265.151 34.2107 264.665 34.7427 264.292 35.452C263.919 36.1427 263.732 37.0107 263.732 38.056C263.732 39.1013 263.919 39.9787 264.292 40.688C264.665 41.3787 265.151 41.9013 265.748 42.256C266.345 42.6107 266.999 42.788 267.708 42.788ZM283.098 45.336C281.418 45.336 280.092 44.8133 279.122 43.768C278.17 42.7227 277.694 41.164 277.694 39.092V31.112H280.662V38.784C280.662 41.472 281.763 42.816 283.966 42.816C285.067 42.816 285.972 42.424 286.682 41.64C287.391 40.856 287.746 39.736 287.746 38.28V31.112H290.714V45H288.082L287.858 42.564C287.428 43.4227 286.794 44.104 285.954 44.608C285.132 45.0933 284.18 45.336 283.098 45.336ZM294.489 45V31.112H297.149L297.401 33.744C297.887 32.8293 298.559 32.1107 299.417 31.588C300.295 31.0467 301.349 30.776 302.581 30.776V33.884H301.769C300.948 33.884 300.211 34.024 299.557 34.304C298.923 34.5653 298.409 35.0227 298.017 35.676C297.644 36.3107 297.457 37.1973 297.457 38.336V45H294.489ZM318.761 45.336C317.323 45.336 316.063 45.084 314.981 44.58C313.898 44.076 313.049 43.3573 312.433 42.424C311.835 41.4907 311.527 40.38 311.509 39.092H314.645C314.663 40.1373 315.027 41.024 315.737 41.752C316.446 42.48 317.445 42.844 318.733 42.844C319.871 42.844 320.758 42.5733 321.393 42.032C322.046 41.472 322.373 40.7627 322.373 39.904C322.373 39.2133 322.214 38.6533 321.897 38.224C321.598 37.7947 321.178 37.44 320.637 37.16C320.114 36.88 319.507 36.628 318.817 36.404C318.126 36.18 317.398 35.9373 316.633 35.676C315.121 35.172 313.982 34.5187 313.217 33.716C312.47 32.9133 312.097 31.8587 312.097 30.552C312.078 29.4507 312.33 28.4893 312.853 27.668C313.394 26.8467 314.141 26.212 315.093 25.764C316.063 25.2973 317.193 25.064 318.481 25.064C319.75 25.064 320.861 25.2973 321.813 25.764C322.783 26.2307 323.539 26.884 324.081 27.724C324.622 28.5453 324.902 29.5067 324.921 30.608H321.785C321.785 30.104 321.654 29.628 321.393 29.18C321.131 28.7133 320.749 28.3307 320.245 28.032C319.741 27.7333 319.125 27.584 318.397 27.584C317.463 27.5653 316.689 27.7987 316.073 28.284C315.475 28.7693 315.177 29.4413 315.177 30.3C315.177 31.0653 315.401 31.6533 315.849 32.064C316.297 32.4747 316.913 32.82 317.697 33.1C318.481 33.3613 319.377 33.6693 320.385 34.024C321.355 34.3413 322.223 34.724 322.989 35.172C323.754 35.62 324.361 36.208 324.809 36.936C325.275 37.664 325.509 38.588 325.509 39.708C325.509 40.6973 325.257 41.6213 324.753 42.48C324.249 43.32 323.493 44.0107 322.485 44.552C321.477 45.0747 320.235 45.336 318.761 45.336ZM335.138 45.336C333.775 45.336 332.562 45.0373 331.498 44.44C330.452 43.824 329.631 42.9747 329.034 41.892C328.436 40.8093 328.138 39.5493 328.138 38.112C328.138 36.656 328.427 35.3773 329.006 34.276C329.603 33.1747 330.424 32.316 331.47 31.7C332.534 31.084 333.766 30.776 335.166 30.776C336.528 30.776 337.714 31.084 338.722 31.7C339.73 32.2973 340.514 33.1 341.074 34.108C341.634 35.116 341.914 36.2267 341.914 37.44C341.914 37.6267 341.904 37.832 341.886 38.056C341.886 38.2613 341.876 38.4947 341.858 38.756H331.05C331.143 40.1 331.582 41.1267 332.366 41.836C333.168 42.5267 334.092 42.872 335.138 42.872C335.978 42.872 336.678 42.6853 337.238 42.312C337.816 41.92 338.246 41.3973 338.526 40.744H341.494C341.12 42.0507 340.374 43.1427 339.254 44.02C338.152 44.8973 336.78 45.336 335.138 45.336ZM335.138 33.212C334.148 33.212 333.271 33.5107 332.506 34.108C331.74 34.6867 331.274 35.564 331.106 36.74H338.946C338.89 35.6573 338.507 34.7987 337.798 34.164C337.088 33.5293 336.202 33.212 335.138 33.212ZM344.993 45V31.112H347.653L347.905 33.744C348.391 32.8293 349.063 32.1107 349.921 31.588C350.799 31.0467 351.853 30.776 353.085 30.776V33.884H352.273C351.452 33.884 350.715 34.024 350.061 34.304C349.427 34.5653 348.913 35.0227 348.521 35.676C348.148 36.3107 347.961 37.1973 347.961 38.336V45H344.993ZM359.522 45L354.314 31.112H357.422L361.286 42.172L365.15 31.112H368.23L363.05 45H359.522ZM372.349 28.48C371.789 28.48 371.322 28.312 370.949 27.976C370.594 27.6213 370.417 27.1827 370.417 26.66C370.417 26.1373 370.594 25.708 370.949 25.372C371.322 25.0173 371.789 24.84 372.349 24.84C372.909 24.84 373.366 25.0173 373.721 25.372C374.094 25.708 374.281 26.1373 374.281 26.66C374.281 27.1827 374.094 27.6213 373.721 27.976C373.366 28.312 372.909 28.48 372.349 28.48ZM370.865 45V31.112H373.833V45H370.865ZM384.331 45.336C382.968 45.336 381.746 45.028 380.663 44.412C379.599 43.796 378.759 42.9467 378.143 41.864C377.546 40.7627 377.247 39.4933 377.247 38.056C377.247 36.6187 377.546 35.3587 378.143 34.276C378.759 33.1747 379.599 32.316 380.663 31.7C381.746 31.084 382.968 30.776 384.331 30.776C386.048 30.776 387.486 31.224 388.643 32.12C389.819 33.016 390.575 34.2293 390.911 35.76H387.803C387.616 34.9947 387.206 34.3973 386.571 33.968C385.936 33.5387 385.19 33.324 384.331 33.324C383.603 33.324 382.931 33.5107 382.315 33.884C381.699 34.2387 381.204 34.7707 380.831 35.48C380.458 36.1707 380.271 37.0293 380.271 38.056C380.271 39.0827 380.458 39.9507 380.831 40.66C381.204 41.3507 381.699 41.8827 382.315 42.256C382.931 42.6293 383.603 42.816 384.331 42.816C385.19 42.816 385.936 42.6013 386.571 42.172C387.206 41.7427 387.616 41.136 387.803 40.352H390.911C390.594 41.8453 389.847 43.0493 388.671 43.964C387.495 44.8787 386.048 45.336 384.331 45.336ZM400.626 45.336C399.263 45.336 398.05 45.0373 396.986 44.44C395.941 43.824 395.119 42.9747 394.522 41.892C393.925 40.8093 393.626 39.5493 393.626 38.112C393.626 36.656 393.915 35.3773 394.494 34.276C395.091 33.1747 395.913 32.316 396.958 31.7C398.022 31.084 399.254 30.776 400.654 30.776C402.017 30.776 403.202 31.084 404.21 31.7C405.218 32.2973 406.002 33.1 406.562 34.108C407.122 35.116 407.402 36.2267 407.402 37.44C407.402 37.6267 407.393 37.832 407.374 38.056C407.374 38.2613 407.365 38.4947 407.346 38.756H396.538C396.631 40.1 397.07 41.1267 397.854 41.836C398.657 42.5267 399.581 42.872 400.626 42.872C401.466 42.872 402.166 42.6853 402.726 42.312C403.305 41.92 403.734 41.3973 404.014 40.744H406.982C406.609 42.0507 405.862 43.1427 404.742 44.02C403.641 44.8973 402.269 45.336 400.626 45.336ZM400.626 33.212C399.637 33.212 398.759 33.5107 397.994 34.108C397.229 34.6867 396.762 35.564 396.594 36.74H404.434C404.378 35.6573 403.995 34.7987 403.286 34.164C402.577 33.5293 401.69 33.212 400.626 33.212ZM416.025 45.336C414.271 45.336 412.824 44.9067 411.685 44.048C410.547 43.1893 409.893 42.0507 409.725 40.632H412.721C412.871 41.2667 413.225 41.8173 413.785 42.284C414.345 42.732 415.083 42.956 415.997 42.956C416.893 42.956 417.547 42.7693 417.957 42.396C418.368 42.0227 418.573 41.5933 418.573 41.108C418.573 40.3987 418.284 39.9227 417.705 39.68C417.145 39.4187 416.361 39.1853 415.353 38.98C414.569 38.812 413.785 38.588 413.001 38.308C412.236 38.028 411.592 37.636 411.069 37.132C410.565 36.6093 410.313 35.9093 410.313 35.032C410.313 33.8187 410.78 32.8107 411.713 32.008C412.647 31.1867 413.953 30.776 415.633 30.776C417.183 30.776 418.433 31.1493 419.385 31.896C420.356 32.6427 420.925 33.6973 421.093 35.06H418.237C418.144 34.4627 417.864 33.996 417.397 33.66C416.949 33.324 416.343 33.156 415.577 33.156C414.831 33.156 414.252 33.3147 413.841 33.632C413.431 33.9307 413.225 34.3227 413.225 34.808C413.225 35.2933 413.505 35.676 414.065 35.956C414.644 36.236 415.4 36.488 416.333 36.712C417.267 36.9173 418.125 37.16 418.909 37.44C419.712 37.7013 420.356 38.0933 420.841 38.616C421.327 39.1387 421.569 39.904 421.569 40.912C421.588 42.1813 421.093 43.236 420.085 44.076C419.096 44.916 417.743 45.336 416.025 45.336Z" fill="#28D1FF"/>
<path d="M159.692 14.8779L160.906 18.613H164.833C164.987 18.613 165.137 18.6617 165.261 18.752C165.385 18.8424 165.478 18.9698 165.525 19.116C165.573 19.2622 165.573 19.4197 165.526 19.5659C165.478 19.7121 165.385 19.8395 165.261 19.9299L162.084 22.2384L163.297 25.9736C163.345 26.1198 163.345 26.2773 163.297 26.4235C163.25 26.5697 163.157 26.6971 163.033 26.7875C162.909 26.8778 162.759 26.9265 162.605 26.9265C162.451 26.9264 162.302 26.8777 162.177 26.7873L159 24.4787L155.823 26.7873C155.699 26.8777 155.549 26.9264 155.395 26.9265C155.241 26.9265 155.091 26.8778 154.967 26.7875C154.843 26.6971 154.75 26.5697 154.703 26.4235C154.655 26.2773 154.655 26.1198 154.703 25.9736L155.916 22.2382L152.739 19.9296C152.615 19.8392 152.522 19.7118 152.475 19.5656C152.427 19.4194 152.427 19.2619 152.475 19.1157C152.522 18.9696 152.615 18.8422 152.739 18.7518C152.863 18.6615 153.013 18.6128 153.167 18.6128H157.094L158.308 14.8777C158.355 14.7315 158.448 14.6041 158.572 14.5137C158.697 14.4234 158.846 14.3747 159 14.3748C159.154 14.3748 159.304 14.4235 159.428 14.5139C159.552 14.6042 159.645 14.7317 159.692 14.8779Z" fill="#FBB540"/>
<path d="M145.06 21.7028L146.02 24.6617H149.132C149.253 24.6618 149.372 24.7003 149.47 24.7719C149.569 24.8435 149.642 24.9444 149.68 25.0601C149.717 25.1759 149.717 25.3006 149.68 25.4164C149.642 25.5321 149.569 25.6331 149.471 25.7047L146.954 27.5328L147.915 30.4917C147.952 30.6075 147.952 30.7322 147.914 30.848C147.877 30.9638 147.803 31.0647 147.705 31.1362C147.606 31.2078 147.488 31.2463 147.366 31.2463C147.244 31.2463 147.126 31.2078 147.027 31.1362L144.51 29.3075L141.993 31.1362C141.895 31.2077 141.776 31.2462 141.654 31.2462C141.533 31.2462 141.414 31.2076 141.316 31.1361C141.217 31.0646 141.144 30.9637 141.106 30.8479C141.068 30.7322 141.068 30.6075 141.106 30.4917L142.067 27.5328L139.55 25.7047C139.451 25.6331 139.378 25.5322 139.341 25.4164C139.303 25.3006 139.303 25.1759 139.341 25.0602C139.378 24.9444 139.452 24.8435 139.55 24.772C139.648 24.7004 139.767 24.6618 139.889 24.6617H143L143.961 21.7028C143.998 21.5863 144.071 21.4847 144.17 21.4125C144.269 21.3404 144.388 21.3015 144.51 21.3015C144.632 21.3015 144.752 21.3404 144.85 21.4125C144.949 21.4847 145.022 21.5863 145.06 21.7028Z" fill="#FBB540"/>
<path d="M137.475 33.8904L138.436 36.8492H141.547C141.669 36.8493 141.788 36.8879 141.886 36.9595C141.984 37.0311 142.058 37.132 142.095 37.2477C142.133 37.3635 142.133 37.4881 142.095 37.6039C142.058 37.7197 141.985 37.8206 141.886 37.8922L139.369 39.7203L140.33 42.6792C140.368 42.795 140.368 42.9197 140.33 43.0355C140.292 43.1512 140.219 43.2521 140.12 43.3236C140.022 43.3952 139.903 43.4337 139.782 43.4337C139.66 43.4338 139.541 43.3952 139.443 43.3237L136.926 41.496L134.409 43.3247C134.311 43.3962 134.192 43.4348 134.07 43.4348C133.949 43.4348 133.83 43.3963 133.732 43.3247C133.633 43.2532 133.56 43.1523 133.522 43.0365C133.484 42.9207 133.484 42.796 133.522 42.6801L134.483 39.7213L131.966 37.8931C131.867 37.8215 131.794 37.7206 131.757 37.6048C131.719 37.489 131.719 37.3643 131.757 37.2486C131.794 37.1328 131.868 37.0319 131.966 36.9604C132.065 36.8888 132.183 36.8502 132.305 36.8502H135.416L136.377 33.8913C136.415 33.7753 136.488 33.6741 136.587 33.6023C136.685 33.5305 136.804 33.4918 136.926 33.4917C137.048 33.4916 137.166 33.5301 137.265 33.6018C137.364 33.6734 137.437 33.7744 137.475 33.8904Z" fill="#FBB540"/>
<path d="M181.537 33.8904L182.498 36.8492H185.61C185.731 36.8493 185.85 36.8879 185.948 36.9595C186.047 37.0311 186.12 37.1319 186.158 37.2477C186.195 37.3635 186.195 37.4881 186.158 37.6039C186.12 37.7197 186.047 37.8206 185.949 37.8922L183.432 39.7203L184.393 42.6792C184.43 42.795 184.43 42.9197 184.392 43.0355C184.355 43.1512 184.281 43.2521 184.183 43.3236C184.084 43.3952 183.966 43.4337 183.844 43.4337C183.722 43.4337 183.604 43.3952 183.505 43.3237L180.988 41.495L178.472 43.3247C178.373 43.3962 178.255 43.4348 178.133 43.4348C178.011 43.4348 177.893 43.3963 177.794 43.3247C177.696 43.2532 177.622 43.1523 177.585 43.0365C177.547 42.9207 177.547 42.7959 177.584 42.6801L178.545 39.7213L176.028 37.8931C175.93 37.8215 175.857 37.7206 175.819 37.6048C175.782 37.489 175.782 37.3643 175.819 37.2486C175.857 37.1328 175.93 37.0319 176.029 36.9604C176.127 36.8888 176.246 36.8502 176.367 36.8502H179.479L180.439 33.8913C180.477 33.7751 180.55 33.6738 180.649 33.6018C180.747 33.5299 180.866 33.4911 180.988 33.491C181.11 33.4909 181.229 33.5295 181.328 33.6012C181.426 33.673 181.5 33.7742 181.537 33.8904Z" fill="#FBB540"/>
<path d="M174.037 21.7029L174.998 24.6617H178.11C178.231 24.6618 178.35 24.7004 178.448 24.772C178.547 24.8436 178.62 24.9444 178.658 25.0602C178.695 25.176 178.695 25.3006 178.658 25.4164C178.62 25.5322 178.547 25.6331 178.449 25.7047L175.932 27.5328L176.893 30.4917C176.93 30.6075 176.93 30.7322 176.892 30.848C176.855 30.9637 176.781 31.0646 176.683 31.1361C176.584 31.2077 176.466 31.2462 176.344 31.2462C176.222 31.2462 176.104 31.2077 176.005 31.1362L173.488 29.3075L170.972 31.1372C170.873 31.2087 170.755 31.2473 170.633 31.2473C170.511 31.2473 170.393 31.2088 170.294 31.1372C170.196 31.0657 170.122 30.9648 170.085 30.849C170.047 30.7332 170.047 30.6084 170.084 30.4926L171.045 27.5338L168.528 25.7056C168.43 25.634 168.357 25.5331 168.319 25.4173C168.282 25.3015 168.282 25.1768 168.319 25.0611C168.357 24.9453 168.43 24.8444 168.529 24.7729C168.627 24.7013 168.746 24.6627 168.867 24.6627H171.979L172.939 21.7038C172.977 21.5876 173.05 21.4863 173.149 21.4143C173.247 21.3424 173.366 21.3036 173.488 21.3035C173.61 21.3034 173.729 21.342 173.828 21.4137C173.926 21.4855 174 21.5867 174.037 21.7029Z" fill="#FBB540"/>
<path d="M145.875 41.6438H153.375V54.7688H145.875V41.6438Z" fill="#0296E5"/>
<path d="M170.25 41.6445H162.75V36.0195C162.75 35.2736 162.454 34.5582 161.926 34.0308C161.399 33.5033 160.683 33.207 159.938 33.207H158.062L157.718 35.6191C157.535 36.8997 157.044 38.1168 156.288 39.1662C155.532 40.2157 154.532 41.066 153.375 41.6445V54.7695L154.225 55.3361C155.505 56.1893 157.008 56.6446 158.546 56.6445H169.312C169.81 56.6445 170.287 56.447 170.638 56.0954C170.99 55.7437 171.188 55.2668 171.188 54.7695C171.188 54.2723 170.99 53.7953 170.638 53.4437C170.287 53.0921 169.81 52.8945 169.312 52.8945C169.81 52.8945 170.287 52.697 170.638 52.3454C170.99 51.9937 171.188 51.5168 171.188 51.0195C171.188 50.5223 170.99 50.0453 170.638 49.6937C170.287 49.3421 169.81 49.1445 169.312 49.1445C169.81 49.1445 170.287 48.947 170.638 48.5954C170.99 48.2437 171.188 47.7668 171.188 47.2695C171.188 46.7723 170.99 46.2953 170.638 45.9437C170.287 45.5921 169.81 45.3945 169.312 45.3945H170.25C170.747 45.3945 171.224 45.197 171.576 44.8454C171.927 44.4937 172.125 44.0168 172.125 43.5195C172.125 43.0223 171.927 42.5453 171.576 42.1937C171.224 41.8421 170.747 41.6445 170.25 41.6445Z" fill="#FDC9A6"/>
</svg>
