<svg width="63" height="63" viewBox="0 0 63 63" fill="none" xmlns="http://www.w3.org/2000/svg">
<g filter="url(#filter0_d_548_2280)">
<circle cx="31.5" cy="27.5" r="27.5" fill="#FDE5CF"/>
</g>
<path d="M18.0111 45.0139H22.3624V42.2944V36.3114V34.1357H18.0111V45.0139Z" fill="#006DF0"/>
<path d="M37.0479 34.1357C40.3522 34.1357 43.0309 31.457 43.0309 28.1527C43.0309 24.8484 40.3522 22.1697 37.0479 22.1697C33.7436 22.1697 31.0649 24.8484 31.0649 28.1527C31.0649 31.457 33.7436 34.1357 37.0479 34.1357Z" fill="#EE8700"/>
<path d="M37.0479 33.0479C39.7514 33.0479 41.9431 30.8563 41.9431 28.1527C41.9431 25.4492 39.7514 23.2576 37.0479 23.2576C34.3444 23.2576 32.1527 25.4492 32.1527 28.1527C32.1527 30.8563 34.3444 33.0479 37.0479 33.0479Z" fill="#FF9811"/>
<path d="M25.6258 23.2576C28.3294 23.2576 30.521 21.066 30.521 18.3625C30.521 15.6589 28.3294 13.4673 25.6258 13.4673C22.9223 13.4673 20.7307 15.6589 20.7307 18.3625C20.7307 21.066 22.9223 23.2576 25.6258 23.2576Z" fill="#FFA733"/>
<path d="M25.6258 22.1699C27.7286 22.1699 29.4332 20.4653 29.4332 18.3625C29.4332 16.2598 27.7286 14.5552 25.6258 14.5552C23.5231 14.5552 21.8185 16.2598 21.8185 18.3625C21.8185 20.4653 23.5231 22.1699 25.6258 22.1699Z" fill="#FFB655"/>
<path d="M45.2065 21.082C47.3092 21.082 49.0138 19.3774 49.0138 17.2746C49.0138 15.1719 47.3092 13.4673 45.2065 13.4673C43.1037 13.4673 41.3991 15.1719 41.3991 17.2746C41.3991 19.3774 43.1037 21.082 45.2065 21.082Z" fill="#FF6243"/>
<path d="M45.2065 19.994C46.7084 19.994 47.926 18.7764 47.926 17.2745C47.926 15.7725 46.7084 14.5549 45.2065 14.5549C43.7045 14.5549 42.4869 15.7725 42.4869 17.2745C42.4869 18.7764 43.7045 19.994 45.2065 19.994Z" fill="#FF7956"/>
<path d="M30.5672 37.8571L35.3444 39.1397C35.7623 39.2517 36.2077 39.193 36.5824 38.9767C36.9572 38.7603 37.2306 38.404 37.3427 37.9861C37.3985 37.7789 37.413 37.5628 37.3852 37.3501C37.3575 37.1373 37.288 36.9322 37.1808 36.7463C37.0737 36.5604 36.9309 36.3975 36.7608 36.2669C36.5906 36.1363 36.3963 36.0405 36.1891 35.985L28.9578 34.0476C27.8672 33.7554 26.7058 33.8986 25.7188 34.4468L22.3624 36.3114V42.2943L22.7197 42.6517C23.1238 43.0557 23.6035 43.3762 24.1314 43.5949C24.6593 43.8136 25.2252 43.9261 25.7966 43.9261H30.9969C31.7543 43.9262 32.4986 43.7286 33.1562 43.3528L45.8538 36.0394C46.1012 35.8957 46.3064 35.6893 46.4486 35.441C46.5909 35.1928 46.6653 34.9114 46.6642 34.6252C46.6635 34.339 46.5885 34.0579 46.4466 33.8094C46.2304 33.4356 45.8749 33.1628 45.4579 33.0506C45.041 32.9385 44.5965 32.9962 44.222 33.2111L37.3525 37.1762" fill="#FFBCAB"/>
<path d="M20.7307 34.1357H22.3624V45.0139H20.7307V34.1357Z" fill="#005ECE"/>
<path d="M43.9501 32.74L37.6005 36.4043C37.3117 35.94 36.8577 35.6024 36.3299 35.4596L29.0986 33.5222C27.8719 33.1903 26.5639 33.3516 25.4545 33.9714L22.9062 35.3867V34.1357C22.9062 33.9914 22.8489 33.8531 22.7469 33.7511C22.6449 33.6491 22.5066 33.5918 22.3623 33.5918H18.0111C17.8668 33.5918 17.7285 33.6491 17.6265 33.7511C17.5245 33.8531 17.4672 33.9914 17.4672 34.1357V45.0138C17.4672 45.1581 17.5245 45.2964 17.6265 45.3984C17.7285 45.5004 17.8668 45.5578 18.0111 45.5578H22.3623C22.5066 45.5578 22.6449 45.5004 22.7469 45.3984C22.8489 45.2964 22.9062 45.1581 22.9062 45.0138V43.5197C23.7428 44.138 24.7558 44.4711 25.796 44.4699H30.9969C31.8495 44.4695 32.6873 44.2468 33.4276 43.8238L46.1279 36.5093C46.4583 36.3187 46.7323 36.0439 46.9221 35.7129C47.1118 35.382 47.2105 35.0067 47.2081 34.6252C47.2077 34.244 47.1072 33.8696 46.9166 33.5395C46.726 33.2093 46.452 32.9351 46.1221 32.7442C45.7921 32.5533 45.4178 32.4524 45.0366 32.4517C44.6554 32.4509 44.2807 32.5504 43.9501 32.74ZM21.8184 44.4699H18.555V34.6796H21.8184V44.4699ZM45.5823 35.5678L32.8864 42.8806C32.3108 43.209 31.6596 43.3818 30.9969 43.3821H25.796C25.2959 43.3835 24.8004 43.2856 24.3383 43.0941C23.8763 42.9026 23.4568 42.6213 23.1042 42.2666L22.9062 42.0686V36.6295L25.9826 34.9205C26.8455 34.4384 27.8628 34.3131 28.8169 34.5713L36.0482 36.5087C36.1886 36.5435 36.3206 36.6058 36.4366 36.6922C36.5526 36.7786 36.6503 36.8872 36.7238 37.0117C36.7973 37.1363 36.8453 37.2742 36.8648 37.4175C36.8844 37.5608 36.8752 37.7066 36.8378 37.8463C36.8004 37.986 36.7355 38.1168 36.6469 38.2311C36.5583 38.3455 36.4478 38.441 36.3218 38.5121C36.1959 38.5832 36.057 38.6284 35.9134 38.6452C35.7697 38.662 35.6242 38.65 35.4852 38.6099L30.7081 37.3301C30.6391 37.3116 30.5671 37.3068 30.4963 37.3161C30.4254 37.3254 30.3572 37.3486 30.2953 37.3843C30.2334 37.42 30.1792 37.4676 30.1357 37.5242C30.0922 37.5809 30.0603 37.6456 30.0418 37.7146C30.0233 37.7836 30.0185 37.8556 30.0279 37.9264C30.0372 37.9972 30.0603 38.0655 30.0961 38.1274C30.1318 38.1893 30.1793 38.2435 30.236 38.287C30.2926 38.3305 30.3573 38.3624 30.4263 38.3809C30.4263 38.3809 35.5793 39.7379 35.7702 39.7379C36.0639 39.7412 36.3551 39.684 36.6257 39.5699C36.8963 39.4557 37.1405 39.2871 37.3431 39.0745C37.5457 38.8619 37.7024 38.6098 37.8034 38.334C37.9044 38.0583 37.9475 37.7646 37.9301 37.4715L44.4923 33.6831C44.741 33.5404 45.0361 33.5016 45.3132 33.5752C45.5904 33.6489 45.8273 33.829 45.9723 34.0764C46.0687 34.2435 46.1197 34.4328 46.1202 34.6257C46.1217 34.8163 46.0728 35.0038 45.9783 35.1693C45.8838 35.3347 45.7472 35.4722 45.5823 35.5678Z" fill="black"/>
<path d="M25.6258 19.994C25.4816 19.994 25.3432 19.9367 25.2412 19.8347C25.1392 19.7327 25.0819 19.5944 25.0819 19.4501C25.0819 19.3059 25.0246 19.1675 24.9226 19.0655C24.8206 18.9635 24.6822 18.9062 24.538 18.9062C24.3937 18.9062 24.2554 18.9635 24.1534 19.0655C24.0514 19.1675 23.9941 19.3059 23.9941 19.4501C23.9955 19.7864 24.1007 20.114 24.2955 20.3882C24.4902 20.6624 24.7648 20.8697 25.0819 20.9818V21.6257C25.0819 21.77 25.1392 21.9083 25.2412 22.0103C25.3432 22.1123 25.4816 22.1696 25.6258 22.1696C25.7701 22.1696 25.9084 22.1123 26.0104 22.0103C26.1124 21.9083 26.1697 21.77 26.1697 21.6257V20.9818C26.5323 20.854 26.838 20.6021 27.0327 20.2706C27.2274 19.939 27.2984 19.5493 27.2333 19.1704C27.1681 18.7916 26.971 18.4479 26.6768 18.2005C26.3826 17.953 26.0103 17.8177 25.6258 17.8184C25.5182 17.8184 25.4131 17.7865 25.3236 17.7267C25.2342 17.667 25.1645 17.582 25.1233 17.4826C25.0821 17.3832 25.0714 17.2739 25.0923 17.1684C25.1133 17.0629 25.1651 16.9659 25.2412 16.8899C25.3173 16.8138 25.4142 16.762 25.5197 16.741C25.6252 16.72 25.7346 16.7308 25.8339 16.772C25.9333 16.8131 26.0183 16.8828 26.078 16.9723C26.1378 17.0617 26.1697 17.1669 26.1697 17.2745C26.1697 17.4187 26.227 17.5571 26.329 17.6591C26.431 17.7611 26.5694 17.8184 26.7136 17.8184C26.8579 17.8184 26.9962 17.7611 27.0982 17.6591C27.2002 17.5571 27.2575 17.4187 27.2575 17.2745C27.2561 16.9382 27.1509 16.6106 26.9562 16.3364C26.7614 16.0622 26.4868 15.8549 26.1697 15.7428V15.0988C26.1697 14.9546 26.1124 14.8162 26.0104 14.7142C25.9084 14.6122 25.7701 14.5549 25.6258 14.5549C25.4816 14.5549 25.3432 14.6122 25.2412 14.7142C25.1392 14.8162 25.0819 14.9546 25.0819 15.0988V15.7428C24.7193 15.8705 24.4136 16.1225 24.2189 16.454C24.0242 16.7855 23.9532 17.1752 24.0183 17.5541C24.0835 17.933 24.2806 18.2766 24.5748 18.5241C24.8691 18.7716 25.2414 18.9069 25.6258 18.9062C25.7701 18.9062 25.9084 18.9635 26.0104 19.0655C26.1124 19.1675 26.1697 19.3059 26.1697 19.4501C26.1697 19.5944 26.1124 19.7327 26.0104 19.8347C25.9084 19.9367 25.7701 19.994 25.6258 19.994Z" fill="black"/>
<path d="M37.0479 30.8723C36.7594 30.8723 36.4827 30.7577 36.2787 30.5537C36.0747 30.3497 35.9601 30.073 35.9601 29.7845C35.9601 29.6402 35.9028 29.5019 35.8008 29.3999C35.6988 29.2979 35.5604 29.2406 35.4162 29.2406C35.2719 29.2406 35.1336 29.2979 35.0316 29.3999C34.9296 29.5019 34.8723 29.6402 34.8723 29.7845C34.8741 30.2654 35.0352 30.7322 35.3304 31.1118C35.6256 31.4915 36.0383 31.7626 36.504 31.8829V32.504C36.504 32.6483 36.5613 32.7866 36.6633 32.8886C36.7653 32.9906 36.9036 33.0479 37.0479 33.0479C37.1921 33.0479 37.3305 32.9906 37.4325 32.8886C37.5345 32.7866 37.5918 32.6483 37.5918 32.504V31.8829C38.104 31.751 38.5504 31.4368 38.8473 30.9992C39.1443 30.5616 39.2713 30.0306 39.2045 29.506C39.1377 28.9814 38.8818 28.4992 38.4847 28.1499C38.0876 27.8006 37.5767 27.6082 37.0479 27.6088C36.8327 27.6088 36.6224 27.545 36.4435 27.4255C36.2646 27.306 36.1252 27.1361 36.0429 26.9373C35.9605 26.7385 35.939 26.5198 35.981 26.3088C36.0229 26.0978 36.1265 25.9039 36.2787 25.7518C36.4308 25.5997 36.6246 25.4961 36.8357 25.4541C37.0467 25.4121 37.2654 25.4337 37.4642 25.516C37.6629 25.5983 37.8328 25.7378 37.9524 25.9167C38.0719 26.0955 38.1357 26.3059 38.1357 26.521C38.1357 26.6653 38.193 26.8036 38.295 26.9056C38.397 27.0076 38.5354 27.0649 38.6796 27.0649C38.8239 27.0649 38.9622 27.0076 39.0642 26.9056C39.1662 26.8036 39.2235 26.6653 39.2235 26.521C39.2217 26.0401 39.0606 25.5733 38.7654 25.1936C38.4702 24.814 38.0575 24.5429 37.5918 24.4226V23.8015C37.5918 23.6572 37.5345 23.5189 37.4325 23.4169C37.3305 23.3149 37.1921 23.2576 37.0479 23.2576C36.9036 23.2576 36.7653 23.3149 36.6633 23.4169C36.5613 23.5189 36.504 23.6572 36.504 23.8015V24.4226C35.9918 24.5544 35.5454 24.8686 35.2484 25.3063C34.9515 25.7439 34.8245 26.2749 34.8913 26.7995C34.958 27.3241 35.214 27.8063 35.611 28.1556C36.0081 28.5049 36.519 28.6973 37.0479 28.6967C37.3364 28.6967 37.6131 28.8113 37.8171 29.0153C38.0211 29.2193 38.1357 29.496 38.1357 29.7845C38.1357 30.073 38.0211 30.3497 37.8171 30.5537C37.6131 30.7577 37.3364 30.8723 37.0479 30.8723Z" fill="black"/>
<path d="M45.2065 12.9233C44.3459 12.9233 43.5046 13.1785 42.7891 13.6567C42.0735 14.1348 41.5158 14.8144 41.1864 15.6094C40.8571 16.4045 40.7709 17.2794 40.9388 18.1235C41.1067 18.9676 41.5211 19.7429 42.1297 20.3514C42.7382 20.9599 43.5135 21.3744 44.3576 21.5423C45.2017 21.7102 46.0766 21.624 46.8716 21.2947C47.6667 20.9653 48.3463 20.4076 48.8244 19.692C49.3026 18.9765 49.5578 18.1352 49.5578 17.2746C49.5565 16.121 49.0976 15.015 48.2819 14.1992C47.4661 13.3835 46.3601 12.9246 45.2065 12.9233ZM45.2065 18.9063C45.0622 18.9063 44.9239 18.849 44.8219 18.747C44.7199 18.645 44.6626 18.5067 44.6626 18.3624C44.6626 18.2182 44.6053 18.0798 44.5033 17.9778C44.4013 17.8758 44.2629 17.8185 44.1187 17.8185C43.9744 17.8185 43.8361 17.8758 43.7341 17.9778C43.6321 18.0798 43.5748 18.2182 43.5748 18.3624C43.5762 18.6987 43.6814 19.0263 43.8761 19.3005C44.0709 19.5747 44.3455 19.782 44.6626 19.8941V20.4891C43.9025 20.3613 43.2123 19.9682 42.7145 19.3797C42.2167 18.7912 41.9436 18.0454 41.9436 17.2746C41.9436 16.5038 42.2167 15.758 42.7145 15.1695C43.2123 14.581 43.9025 14.1879 44.6626 14.0601V14.6551C44.3 14.7829 43.9943 15.0348 43.7996 15.3663C43.6049 15.6978 43.5339 16.0876 43.599 16.4665C43.6642 16.8453 43.8613 17.189 44.1555 17.4364C44.4497 17.6839 44.822 17.8192 45.2065 17.8185C45.3507 17.8185 45.4891 17.8758 45.5911 17.9778C45.6931 18.0798 45.7504 18.2182 45.7504 18.3624C45.7504 18.5067 45.6931 18.645 45.5911 18.747C45.4891 18.849 45.3507 18.9063 45.2065 18.9063ZM45.7504 20.4891V19.8941C46.113 19.7663 46.4187 19.5144 46.6134 19.1829C46.808 18.8514 46.8791 18.4616 46.814 18.0828C46.7488 17.7039 46.5517 17.3603 46.2575 17.1128C45.9632 16.8653 45.5909 16.73 45.2065 16.7307C45.0989 16.7307 44.9938 16.6988 44.9043 16.639C44.8149 16.5793 44.7452 16.4943 44.704 16.3949C44.6628 16.2955 44.652 16.1862 44.673 16.0807C44.694 15.9752 44.7458 15.8783 44.8219 15.8022C44.898 15.7261 44.9949 15.6743 45.1004 15.6533C45.2059 15.6323 45.3153 15.6431 45.4146 15.6843C45.514 15.7255 45.599 15.7952 45.6587 15.8846C45.7185 15.9741 45.7504 16.0792 45.7504 16.1868C45.7504 16.331 45.8077 16.4694 45.9097 16.5714C46.0117 16.6734 46.1501 16.7307 46.2943 16.7307C46.4386 16.7307 46.5769 16.6734 46.6789 16.5714C46.7809 16.4694 46.8382 16.331 46.8382 16.1868C46.8368 15.8505 46.7316 15.5229 46.5368 15.2487C46.3421 14.9745 46.0674 14.7672 45.7504 14.6551V14.0601C46.5105 14.1879 47.2007 14.581 47.6985 15.1695C48.1963 15.758 48.4694 16.5038 48.4694 17.2746C48.4694 18.0454 48.1963 18.7912 47.6985 19.3797C47.2007 19.9682 46.5105 20.3613 45.7504 20.4891Z" fill="black"/>
<path d="M45.3153 18.6669C45.171 18.6669 45.0327 18.6096 44.9307 18.5076C44.8287 18.4056 44.7713 18.2672 44.7713 18.123C44.7713 17.9787 44.714 17.8404 44.612 17.7384C44.51 17.6364 44.3717 17.579 44.2274 17.579C44.0832 17.579 43.9448 17.6364 43.8428 17.7384C43.7408 17.8404 43.6835 17.9787 43.6835 18.123C43.6849 18.4592 43.7902 18.7869 43.9849 19.061C44.1796 19.3352 44.4543 19.5425 44.7713 19.6546V20.2986C44.7713 20.4428 44.8287 20.5812 44.9307 20.6832C45.0327 20.7852 45.171 20.8425 45.3153 20.8425C45.4595 20.8425 45.5979 20.7852 45.6999 20.6832C45.8019 20.5812 45.8592 20.4428 45.8592 20.2986V19.6546C46.2218 19.5269 46.5275 19.2749 46.7222 18.9434C46.9168 18.6119 46.9879 18.2222 46.9227 17.8433C46.8576 17.4644 46.6604 17.1208 46.3662 16.8733C46.072 16.6259 45.6997 16.4905 45.3153 16.4912C45.2077 16.4912 45.1025 16.4593 45.0131 16.3996C44.9236 16.3398 44.8539 16.2549 44.8128 16.1555C44.7716 16.0561 44.7608 15.9467 44.7818 15.8412C44.8028 15.7357 44.8546 15.6388 44.9307 15.5627C45.0067 15.4867 45.1036 15.4349 45.2091 15.4139C45.3147 15.3929 45.424 15.4037 45.5234 15.4448C45.6228 15.486 45.7077 15.5557 45.7675 15.6451C45.8273 15.7346 45.8592 15.8397 45.8592 15.9473C45.8592 16.0916 45.9165 16.2299 46.0185 16.3319C46.1205 16.4339 46.2588 16.4912 46.4031 16.4912C46.5473 16.4912 46.6857 16.4339 46.7877 16.3319C46.8897 16.2299 46.947 16.0916 46.947 15.9473C46.9456 15.611 46.8403 15.2834 46.6456 15.0092C46.4509 14.7351 46.1762 14.5278 45.8592 14.4157V13.7717C45.8592 13.6274 45.8019 13.4891 45.6999 13.3871C45.5979 13.2851 45.4595 13.2278 45.3153 13.2278C45.171 13.2278 45.0327 13.2851 44.9307 13.3871C44.8287 13.4891 44.7713 13.6274 44.7713 13.7717V14.4157C44.4087 14.5434 44.103 14.7953 43.9084 15.1269C43.7137 15.4584 43.6427 15.8481 43.7078 16.227C43.7729 16.6059 43.9701 16.9495 44.2643 17.197C44.5585 17.4444 44.9308 17.5798 45.3153 17.579C45.4595 17.579 45.5979 17.6364 45.6999 17.7384C45.8019 17.8404 45.8592 17.9787 45.8592 18.123C45.8592 18.2672 45.8019 18.4056 45.6999 18.5076C45.5979 18.6096 45.4595 18.6669 45.3153 18.6669Z" fill="#FF993A"/>
<defs>
<filter id="filter0_d_548_2280" x="0" y="0" width="63" height="63" filterUnits="userSpaceOnUse" color-interpolation-filters="sRGB">
<feFlood flood-opacity="0" result="BackgroundImageFix"/>
<feColorMatrix in="SourceAlpha" type="matrix" values="0 0 0 0 0 0 0 0 0 0 0 0 0 0 0 0 0 0 127 0" result="hardAlpha"/>
<feOffset dy="4"/>
<feGaussianBlur stdDeviation="2"/>
<feComposite in2="hardAlpha" operator="out"/>
<feColorMatrix type="matrix" values="0 0 0 0 0 0 0 0 0 0 0 0 0 0 0 0 0 0 0.1 0"/>
<feBlend mode="normal" in2="BackgroundImageFix" result="effect1_dropShadow_548_2280"/>
<feBlend mode="normal" in="SourceGraphic" in2="effect1_dropShadow_548_2280" result="shape"/>
</filter>
</defs>
</svg>
