<svg width="13" height="8" viewBox="0 0 13 8" fill="none" xmlns="http://www.w3.org/2000/svg">
<path d="M12.75 0.25H9.10417V1.32143H10.974L7.02083 5.3875L4.78646 3.08393C4.73804 3.03372 4.68044 2.99386 4.61697 2.96667C4.5535 2.93947 4.48542 2.92547 4.41667 2.92547C4.34791 2.92547 4.27983 2.93947 4.21637 2.96667C4.1529 2.99386 4.09529 3.03372 4.04687 3.08393L0.25 6.99464L0.984375 7.75L4.41667 4.21964L6.65104 6.52321C6.69946 6.57343 6.75706 6.61328 6.82053 6.64048C6.884 6.66768 6.95208 6.68168 7.02083 6.68168C7.08959 6.68168 7.15767 6.66768 7.22113 6.64048C7.2846 6.61328 7.34221 6.57343 7.39062 6.52321L11.7083 2.07679V4H12.75V0.25Z" fill="#008000"/>
</svg>
