<svg width="23" height="23" viewBox="0 0 23 23" fill="none" xmlns="http://www.w3.org/2000/svg">
<g clip-path="url(#clip0_585_2037)">
<path d="M17.4809 7.36701C16.8232 7.36701 16.1866 7.47861 15.5812 7.69901C14.3501 5.81721 12.2458 4.67188 9.95072 4.67188C8.32072 4.67188 6.74916 5.25744 5.52592 6.32047C4.44253 7.26173 3.69798 8.51691 3.39529 9.8965C2.53282 10.0769 1.74529 10.5177 1.13831 11.1675C0.404297 11.9533 0 12.9758 0 14.0465C0 15.1511 0.426582 16.1971 1.20131 16.9917C1.95358 17.7634 2.95712 18.2197 4.03455 18.2814C4.06841 18.2867 4.10316 18.2893 4.1386 18.2893H17.701C17.7417 18.2893 17.7813 18.2858 17.8201 18.279C19.2062 18.1958 20.4967 17.6052 21.4623 16.6102C22.4539 15.5882 23 14.2453 23 12.8282C23 9.81701 20.5242 7.36701 17.4809 7.36701Z" fill="white"/>
<path d="M17.4811 7.36692C16.8234 7.36692 16.1868 7.47852 15.5814 7.69892C14.5996 6.19807 13.0619 5.16645 11.3154 4.81006V18.2893H17.7012C17.7419 18.2893 17.7815 18.2857 17.8203 18.2789C19.2064 18.1955 20.4969 17.6051 21.4625 16.6099C22.4541 15.5882 23.0002 14.2452 23.0002 12.8281C23.0002 9.81692 20.5244 7.36692 17.4811 7.36692Z" fill="white"/>
<path d="M14.6791 14.1788C14.4164 13.9142 13.989 13.9128 13.7244 14.1755L11.9954 15.892V10.4326C11.9954 10.0597 11.6931 9.75732 11.3202 9.75732C10.9473 9.75732 10.6449 10.0597 10.6449 10.4326V15.9595L8.9251 14.1848C8.66574 13.917 8.23828 13.9101 7.97051 14.1697C7.70273 14.4292 7.69589 14.8567 7.95542 15.1243L10.7795 18.0389C10.9052 18.1684 11.0775 18.2425 11.2579 18.2442H11.2644C11.4425 18.2442 11.6136 18.1739 11.7401 18.0482L14.6756 15.1337C14.9402 14.8709 14.9418 14.4434 14.6791 14.1788Z" fill="#28D1FF"/>
<path d="M14.6791 14.1788C14.4164 13.9142 13.989 13.9128 13.7244 14.1755L11.9954 15.892V10.4326C11.9954 10.0597 11.6931 9.75732 11.3202 9.75732C11.3186 9.75732 11.317 9.7575 11.3154 9.7575V18.2416C11.4749 18.2295 11.6257 18.1616 11.7401 18.048L14.6758 15.1336C14.9402 14.8709 14.9418 14.4434 14.6791 14.1788Z" fill="#28D1FF"/>
</g>
<defs>
<clipPath id="clip0_585_2037">
<rect width="23" height="23" fill="white"/>
</clipPath>
</defs>
</svg>
