<svg width="24" height="29" viewBox="0 0 24 29" fill="none" xmlns="http://www.w3.org/2000/svg">
<path d="M17.7564 5.92407H9.97311C9.3426 5.92407 8.83105 6.43562 8.83105 7.06613C8.83105 7.69694 9.3426 8.20819 9.97311 8.20819H17.7564C18.3872 8.20819 18.8984 7.69694 18.8984 7.06613C18.8984 6.43562 18.3872 5.92407 17.7564 5.92407Z" fill="white"/>
<path d="M18.8984 11.4546C18.8984 10.824 18.3872 10.3125 17.7564 10.3125H9.97311C9.3426 10.3125 8.83105 10.824 8.83105 11.4546C8.83105 12.0854 9.3426 12.5966 9.97311 12.5966H17.7564C18.3872 12.5966 18.8984 12.0854 18.8984 11.4546Z" fill="white"/>
<path d="M9.97311 14.7009C9.3426 14.7009 8.83105 15.2125 8.83105 15.843C8.83105 16.4738 9.3426 16.985 9.97311 16.985H13.3193C13.9501 16.985 14.4613 16.4738 14.4613 15.843C14.4613 15.2125 13.9501 14.7009 13.3193 14.7009H9.97311Z" fill="white"/>
<path d="M22.2056 15.01C22.8361 15.01 23.3477 14.4988 23.3477 13.868V4.43351C23.3477 1.98908 21.3589 0 18.9144 0H8.82121C6.39285 0 4.41536 1.96291 4.38919 4.38532C1.96499 4.40912 0 6.38779 0 8.81764V23.7376C0 26.1823 1.98879 28.1711 4.43321 28.1711H15.0746C17.5175 28.1711 19.5051 26.185 19.5078 23.7426C21.6723 23.4515 23.3477 21.5932 23.3477 19.3502C23.3477 18.7196 22.8361 18.2081 22.2056 18.2081C21.5748 18.2081 21.0635 18.7196 21.0635 19.3502C21.0635 20.535 20.0996 21.4992 18.9147 21.4995L8.82181 21.5019H8.82151C8.2475 21.5019 7.7077 21.2783 7.30174 20.8726C6.89577 20.4666 6.67212 19.9268 6.67212 19.3528V4.43351C6.67212 3.24832 7.63632 2.28412 8.82121 2.28412H18.9144C20.0993 2.28412 21.0635 3.24832 21.0635 4.43351V13.868C21.0635 14.4988 21.5748 15.01 22.2056 15.01ZM8.82151 23.786H8.8224L17.2225 23.784C17.1978 24.9477 16.2443 25.8867 15.0746 25.8867H4.43291C3.24803 25.8867 2.28382 24.9227 2.28382 23.7376V8.81764C2.28382 7.64763 3.22364 6.69383 4.388 6.66974V19.3528C4.388 20.5371 4.84929 21.6506 5.6868 22.4878C6.5243 23.3251 7.63722 23.786 8.82151 23.786Z" fill="white"/>
</svg>
