<svg width="20" height="18" viewBox="0 0 20 18" fill="none" xmlns="http://www.w3.org/2000/svg">
<path d="M3.74145 0.953369V8.43622H4.3291V3.42157H19.4123V13.1767H15.9255V8.69446C16.474 8.56228 16.8658 8.07524 16.8658 7.49599V4.40099H6.87563V7.49599C6.87563 8.0752 7.30656 8.56224 7.81586 8.69446V10.7869H8.40352V8.69446C8.67777 8.63165 8.89414 8.48884 9.05973 8.29403C9.28625 8.56056 9.62852 8.73013 10.0049 8.73013C10.3813 8.73013 10.7211 8.56056 10.9476 8.29403C11.1741 8.56056 11.5127 8.73013 11.8891 8.73013C12.2654 8.73013 12.6034 8.56056 12.83 8.29403C13.0565 8.56056 13.3941 8.73013 13.7705 8.73013C14.1469 8.73013 14.4746 8.56056 14.7012 8.29403C14.8668 8.48888 15.1029 8.63169 15.338 8.69446V13.1767H13.1049V10.0425H10.6367V13.1767H8.1057C8.1082 13.0983 8.10977 13.0497 8.10977 12.9906C8.10977 10.7547 6.29078 8.93087 4.05492 8.93087C1.81898 8.93087 0 10.7474 0 12.9833C0 15.2192 1.81898 17.0467 4.05484 17.0467C6.02957 17.0467 7.67883 15.6058 8.03719 13.7644H20V0.953369H3.74145ZM8.10969 8.14243C7.75324 8.14243 7.46328 7.85243 7.46328 7.49599H8.75613C8.75613 7.85243 8.46613 8.14243 8.10969 8.14243ZM8.75613 6.90833H7.46328V4.98864H8.75613V6.90833ZM9.9902 8.14243C9.63375 8.14243 9.34379 7.85243 9.34379 7.49599H10.6366C10.6366 7.85243 10.3466 8.14243 9.9902 8.14243ZM10.6366 6.90833H9.34379V4.98864H10.6366V6.90833ZM11.8707 8.14243C11.5143 8.14243 11.2243 7.85243 11.2243 7.49599H12.5171C12.5171 7.85243 12.2271 8.14243 11.8707 8.14243ZM12.5171 6.90833H11.2243V4.98864H12.5171V6.90833ZM13.7512 8.14243C13.3948 8.14243 13.1048 7.85243 13.1048 7.49599H14.3977C14.3977 7.85243 14.1077 8.14243 13.7512 8.14243ZM14.3977 6.90833H13.1048V4.98864H14.3977V6.90833ZM2.69789 9.80993C2.50543 10.0929 2.34023 10.4343 2.20973 10.8261H1.35633C1.71133 10.3559 2.17129 10.0348 2.69789 9.80993ZM0.972578 11.4137H2.04746C1.95855 11.8055 1.90281 12.2365 1.88602 12.7066H0.600234C0.639258 12.2365 0.769297 11.8055 0.972578 11.4137ZM0.972578 14.5871C0.769297 14.1561 0.639258 13.7252 0.600234 13.2942H1.88598C1.90277 13.7252 1.95852 14.1561 2.04746 14.5871H0.972578ZM1.35633 15.1747H2.20973C2.34023 15.5273 2.50539 15.9079 2.69789 16.1909C2.17129 15.9661 1.71133 15.6057 1.35633 15.1747ZM3.74145 16.3808C3.46719 16.2541 3.19961 15.9616 2.97816 15.5186C2.92234 15.407 2.8809 15.2923 2.83355 15.1747H3.74145V16.3808ZM3.74145 14.5871H2.65117C2.55273 14.1561 2.49262 13.7252 2.47449 13.2942H3.74145V14.5871ZM3.74145 12.7066H2.47449C2.49262 12.2365 2.55273 11.8055 2.65117 11.4137H3.74145V12.7066ZM3.74145 10.8261H2.83355C2.8809 10.6693 2.92234 10.5742 2.97816 10.4626C3.19965 10.0197 3.46723 9.70755 3.74145 9.58087V10.8261ZM6.75336 10.8261H5.89996C5.76945 10.4343 5.6043 10.0929 5.4118 9.80989C5.9384 10.0348 6.39836 10.3559 6.75336 10.8261ZM4.3291 9.58087C4.6425 9.70755 4.89051 10.0197 5.11199 10.4626C5.16781 10.5742 5.22887 10.6693 5.27617 10.8261H4.3291V9.58087ZM4.3291 11.4137H5.45855C5.55699 11.8055 5.61711 12.2365 5.63523 12.7066H4.3291V11.4137ZM4.3291 13.2942H5.63523C5.61711 13.7252 5.55699 14.1561 5.45855 14.5871H4.3291V13.2942ZM5.11195 15.5187C4.89047 15.9616 4.6425 16.2541 4.32906 16.3808V15.1748H5.27613C5.22883 15.2923 5.16781 15.407 5.11195 15.5187ZM5.4118 16.1909C5.60426 15.9079 5.76945 15.5273 5.89996 15.1747H6.75336C6.39836 15.6057 5.9384 15.9661 5.4118 16.1909ZM7.13707 14.5871H6.06219C6.15109 14.1561 6.20688 13.7252 6.22367 13.2942H7.50941C7.47043 13.7252 7.34043 14.1561 7.13707 14.5871ZM6.22371 12.7066C6.20691 12.2365 6.15113 11.8055 6.06223 11.4137H7.13711C7.34043 11.8055 7.47047 12.2365 7.50949 12.7066H6.22371ZM12.5171 13.1767H11.2243V10.6302H12.5171V13.1767ZM14.9853 4.98864H16.2782V6.90833H14.9853V4.98864ZM14.9853 7.49599H16.2782C16.2782 7.85243 15.9882 8.14243 15.6318 8.14243C15.2753 8.14243 14.9853 7.85243 14.9853 7.49599ZM19.4123 2.83392H4.3291V1.54106H19.4123V2.83392Z" fill="#9197B3"/>
</svg>
