<svg width="15" height="14" viewBox="0 0 15 14" fill="none" xmlns="http://www.w3.org/2000/svg">
<path fill-rule="evenodd" clip-rule="evenodd" d="M10.5063 10.7458C9.48997 11.5361 8.21288 12.0067 6.82589 12.0067C3.51126 12.0067 0.824219 9.31891 0.824219 6.00335C0.824219 2.68779 3.51126 0 6.82589 0C10.1405 0 12.8276 2.68779 12.8276 6.00335C12.8276 7.39059 12.3572 8.66794 11.5672 9.6845L14.6042 12.7186C14.8973 13.0115 14.8976 13.4867 14.6048 13.7799C14.312 14.0731 13.837 14.0734 13.5439 13.7805L10.5063 10.7458ZM11.3271 6.00335C11.3271 8.49002 9.31187 10.5059 6.82589 10.5059C4.33992 10.5059 2.32464 8.49002 2.32464 6.00335C2.32464 3.51668 4.33992 1.50084 6.82589 1.50084C9.31187 1.50084 11.3271 3.51668 11.3271 6.00335Z" fill="#868FA0"/>
</svg>
