<svg width="19" height="22" viewBox="0 0 19 22" fill="none" xmlns="http://www.w3.org/2000/svg">
<g clip-path="url(#clip0_562_2140)">
<mask id="mask0_562_2140" style="mask-type:luminance" maskUnits="userSpaceOnUse" x="0" y="0" width="17" height="21">
<path d="M14.7843 1.57056H2.03923C1.49777 1.57056 1.05884 2.00949 1.05884 2.55095V18.2372C1.05884 18.7787 1.49777 19.2176 2.03923 19.2176H11.6597C5.4706 18.2372 12.0882 10.1485 15.7647 13.825V2.55095C15.7647 2.00949 15.3258 1.57056 14.7843 1.57056Z" fill="white" stroke="white" stroke-width="1.96078" stroke-linejoin="round"/>
<path d="M4.48999 6.96362H12.3331M4.48999 10.8852H10.3723M4.48999 14.8068H8.41156" stroke="black" stroke-width="1.96078" stroke-linecap="round" stroke-linejoin="round"/>
</mask>
<g mask="url(#mask0_562_2140)">
<path d="M-3.35303 -2.35156H20.1764V21.1778H-3.35303V-2.35156Z" fill="#8791A3"/>
</g>
<path d="M14.2058 12.3525C15.2633 12.3525 16.2421 12.7238 17.0183 13.3425C18.0533 14.1638 18.7058 15.435 18.7058 16.8525C18.7058 19.3388 16.6921 21.3525 14.2058 21.3525C13.0696 21.3525 12.0346 20.925 11.2358 20.2275C10.3021 19.4063 9.70581 18.2025 9.70581 16.8525C9.70581 14.3663 11.7196 12.3525 14.2058 12.3525ZM13.0808 17.1338C13.0808 17.4263 13.2383 17.7075 13.4858 17.8538L14.8921 18.6975C15.0271 18.7875 15.1846 18.8213 15.3308 18.8213C15.6121 18.8213 15.8933 18.675 16.0508 18.4163C16.2871 18.0113 16.1633 17.4938 15.7583 17.2575L14.7571 16.6613V15.4463C14.7683 14.985 14.3858 14.6025 13.9246 14.6025C13.4633 14.6025 13.0808 14.985 13.0808 15.4463V17.1338Z" fill="#8791A3" stroke="white" stroke-width="0.7"/>
</g>
<defs>
<clipPath id="clip0_562_2140">
<rect width="19" height="22" fill="white"/>
</clipPath>
</defs>
</svg>
